<?xml version="1.0" encoding="UTF-8" standalone="no"?>
<!-- Created with Inkscape (http://www.inkscape.org/) -->

<svg width="500" height="400" viewBox="0 0 132.29166 105.83334" version="1.1" id="svg5" inkscape:version="1.1.1 (3bf5ae0d25, 2021-09-20)" sodipodi:docname="0000main.svg" xmlns:inkscape="http://www.inkscape.org/namespaces/inkscape" xmlns:sodipodi="http://sodipodi.sourceforge.net/DTD/sodipodi-0.dtd" xmlns="http://www.w3.org/2000/svg" xmlns:svg="http://www.w3.org/2000/svg">
  <sodipodi:namedview id="namedview7" pagecolor="#505050" bordercolor="#ffffff" borderopacity="1" inkscape:pageshadow="0" inkscape:pageopacity="0" inkscape:pagecheckerboard="1" inkscape:document-units="px" showgrid="true" units="px" width="800px" inkscape:snap-bbox="true" inkscape:snap-bbox-midpoints="true" inkscape:snap-bbox-edge-midpoints="true" inkscape:bbox-nodes="true" inkscape:snap-global="false" inkscape:snap-center="true" inkscape:snap-grids="false" inkscape:snap-page="true" inkscape:zoom="0.66772385" inkscape:cx="232.8807" inkscape:cy="322.73821" inkscape:window-width="1284" inkscape:window-height="729" inkscape:window-x="-27" inkscape:window-y="25" inkscape:window-maximized="0" inkscape:current-layer="g987">
    <inkscape:grid type="xygrid" id="grid824" units="px" spacingx="0.99999999" spacingy="0.99999999" empcolor="#ffa23f" empopacity="0.25098039" dotted="false" enabled="false" />
  </sodipodi:namedview>
  <defs id="defs2" />
  <g inkscape:label="bg" inkscape:groupmode="layer" id="layer1">
    <rect style="opacity:1;fill:#ffffff;fill-opacity:1;stroke:none;stroke-width:0.529167;stroke-linejoin:round;stroke-miterlimit:4;stroke-dasharray:none;stroke-opacity:1" id="rect9060" width="132.29167" height="105.83333" x="0" y="0" sodipodi:insensitive="true" />
  </g>
  <g inkscape:groupmode="layer" id="layer2" inkscape:label="inspir">
    <path d="m 93.38228,46.112983 q 2.15623,-0.281252 4.14634,-0.478168 l -0.51035,-0.855657 c 0.17735,-0.04937 0.94546,0.445915 0.94546,0.445915 L 97.31504,42.75055 c 0.88657,0.09951 1.2988,2.623367 1.2988,2.623367 l 1.00536,-0.840594 -0.49522,0.952098 c 4.05987,-0.35464 7.56304,-0.463958 10.50775,-0.436613 l -0.43681,-0.732354 c 0.17735,-0.04937 0.94547,0.445916 0.94547,0.445916 l -0.64869,-2.474521 c 0.88656,0.09951 1.2988,2.623362 1.2988,2.623362 l 1.00535,-0.840594 -0.52451,1.008427 c 2.46795,0.06874 4.47885,0.232146 6.03017,0.4102 -0.43563,-1.138156 -1.95865,-2.232938 -1.95865,-2.232938 1.17138,0.305837 1.78059,0.803309 2.09578,1.264293 a 16.903869,16.903869 0 0 0 -1.26485,-6.880064 c 0,0 2.36164,4.454867 2.00519,7.423605 l -0.0453,0.527363 c 2.05678,0.269877 3.08877,0.538358 3.08877,0.538358 z" fill="#3f3d56" id="path925-7" style="stroke-width:0.264583" />
    <circle cx="113.61866" cy="36.795952" r="1.6168984" fill="#6c63ff" id="circle951" style="stroke-width:0.264583" />
    <ellipse cx="112.51622" cy="36.795952" rx="0.36747682" ry="0.80844921" fill="#ffffff" id="ellipse953" style="stroke-width:0.264583" />
    <circle cx="108.40049" cy="26.433107" r="1.6168984" fill="#3f3d56" id="circle955" style="stroke-width:0.264583" />
    <ellipse cx="72.281761" cy="83.895912" rx="0.80844909" ry="0.36747673" transform="rotate(-35.918539)" fill="#ffffff" id="ellipse957" style="stroke-width:0.264583" />
    <circle cx="112.51622" cy="17.540167" r="1.0076444" fill="#3f3d56" id="circle959" style="stroke-width:0.264583" />
    <ellipse cx="80.83181" cy="79.523781" rx="0.50382209" ry="0.22901025" transform="rotate(-35.918539)" fill="#ffffff" id="ellipse961" style="stroke-width:0.264583" />
    <circle cx="104.94621" cy="43.484035" r="1.0076444" fill="#3f3d56" id="circle963" style="stroke-width:0.264583" />
    <ellipse cx="59.481651" cy="96.093628" rx="0.50382209" ry="0.22901025" transform="rotate(-35.918539)" fill="#ffffff" id="ellipse965" style="stroke-width:0.264583" />
    <circle cx="113.47167" cy="29.446421" r="1.6168984" fill="#3f3d56" id="circle967" style="stroke-width:0.264583" />
    <ellipse cx="112.36924" cy="29.446421" rx="0.36747682" ry="0.80844921" fill="#ffffff" id="ellipse969" style="stroke-width:0.264583" />
    <circle cx="108.2535" cy="19.083572" r="1.6168984" fill="#6c63ff" id="circle971" style="stroke-width:0.264583" />
    <ellipse cx="76.474213" cy="77.857643" rx="0.80844909" ry="0.36747673" transform="rotate(-35.918539)" fill="#ffffff" id="ellipse973" style="stroke-width:0.264583" />
    <circle cx="112.36924" cy="10.190631" r="1.0076444" fill="#6c63ff" id="circle975" style="stroke-width:0.264583" />
    <ellipse cx="85.024254" cy="73.485519" rx="0.50382209" ry="0.22901025" transform="rotate(-35.918539)" fill="#ffffff" id="ellipse977" style="stroke-width:0.264583" />
    <circle cx="104.79921" cy="36.134495" r="1.0076444" fill="#3f3d56" id="circle979" style="stroke-width:0.264583" />
    <ellipse cx="63.674099" cy="90.055367" rx="0.50382209" ry="0.22901025" transform="rotate(-35.918539)" fill="#ffffff" id="ellipse981" style="stroke-width:0.264583" />
    <circle cx="96.067345" cy="27.790716" r="4.4565253" fill="#6c63ff" id="circle989" style="stroke-width:0.264583" />
    <path d="m 99.94786,30.588728 c -0.85566,5.6e-5 -2.74517,-0.878787 -4.42562,-1.908061 -2.08528,-1.277236 -4.11052,-2.946662 -3.75646,-3.524747 0.10007,-0.163354 0.34812,-0.206084 0.75844,-0.130757 l -0.0294,0.160179 c -0.31775,-0.05847 -0.53277,-0.03805 -0.59015,0.05559 -0.0837,0.136657 0.10085,0.533347 0.86973,1.236898 0.70069,0.641215 1.70677,1.374184 2.83294,2.063953 1.12614,0.689766 2.23625,1.252958 3.12577,1.585836 0.97611,0.365318 1.41333,0.349363 1.49697,0.212831 0.0575,-0.09382 -0.0225,-0.294873 -0.21905,-0.551688 l 0.12928,-0.09901 c 0.25397,0.331658 0.32877,0.572307 0.22865,0.735725 -0.0687,0.112262 -0.21492,0.163248 -0.42108,0.163248 z" fill="#3f3d56" id="path991" style="stroke-width:0.264583" />
    <circle cx="95.517265" cy="25.500015" r="0.9115622" fill="#ffffff" id="circle993" style="stroke-width:0.264583" />
    <circle cx="95.781296" cy="30.49716" r="0.6077081" fill="#ffffff" id="circle995" style="stroke-width:0.264583" />
    <circle cx="97.87397" cy="28.413774" r="0.6077081" fill="#ffffff" id="circle997" style="stroke-width:0.264583" />
    <path d="m 82.01984,25.453947 a 1.4313956,1.4313956 0 1 0 -1.85779,2.178116 l 2.17812,1.857788 1.8578,-2.178116 a 1.4314002,1.4314002 0 0 0 -2.17813,-1.857788 z" fill="#ff6584" id="path999" style="stroke-width:0.264583" />
  </g>
  <g id="g9343" transform="matrix(0.17839084,0,0,0.17839084,-0.2408529,4.2333601)" style="stroke-width:5.6038" inkscape:label="monitor">
    <circle cx="215.61496" cy="68.266129" r="26.70075" fill="#fd6584" id="circle9208" style="stroke-width:31.4026" />
    <path d="m 601.11937,230.11183 a 13.23512,13.23512 0 0 0 -11.17,-9.29 1.08068,1.08068 0 0 0 -0.18,0 1.41827,1.41827 0 0 0 -0.22,-0.05 c -8.94,-1.16 -18.88,1.66 -25.57,7.8 a 23.95824,23.95824 0 0 0 -5.83,8.04 12.917,12.917 0 0 0 -10.83,-5.28 13.18351,13.18351 0 0 0 -11.8,9.51 1.52646,1.52646 0 0 0 0.69,1.69 6.673,6.673 0 0 0 2.79,1.42 c 2.21,0.47 4.44,0.9 6.67,1.29 q 6.54,1.14 13.15,1.85 4.365,0.465 8.75,0.74 c 6.04,0.38 12.11,0.47 18.16,0.28 3,-0.1 5.88,-0.2 8.62,-1.52 a 12.79756,12.79756 0 0 0 4.95,-4.31 14.54776,14.54776 0 0 0 1.82,-12.17 z" transform="translate(-325.74624,-174.48895)" fill="#e6e6e6" id="path9210" style="stroke-width:31.4026" />
    <path d="m 546.18937,269.01185 a 13.65247,13.65247 0 0 0 -0.56,-3.3 13.26025,13.26025 0 0 0 -11.18,-9.29 0.9647,0.9647 0 0 0 -0.17,0 1.88726,1.88726 0 0 0 -0.23,-0.05 33.19372,33.19372 0 0 0 -14.69,1.51 c -7.26,2.43 -13.63,7.32995 -16.7,14.32995 a 12.92229,12.92229 0 0 0 -10.84,-5.28 13.18342,13.18342 0 0 0 -11.8,9.51 1.55528,1.55528 0 0 0 0.69,1.69 6.73289,6.73289 0 0 0 2.79,1.42 c 2.22,0.47 4.44,0.9 6.68,1.29 q 6.54,1.14 13.14,1.85 a 195.164,195.164 0 0 0 26.92,1.01995 c 2.99,-0.1 5.88,-0.2 8.62,-1.51995 a 12.76978,12.76978 0 0 0 4.94,-4.31 14.26445,14.26445 0 0 0 2.39,-8.86995 z" transform="translate(-325.74624,-174.48895)" fill="#e6e6e6" id="path9212" style="stroke-width:31.4026" />
    <path d="m 743.87618,605.96893 h -24.34 V 225.999 c -1.64,-1.21 -3.29,-2.41 -4.96,-3.58 q -0.49493,-0.345 -0.99,-0.69 a 288.32215,288.32215 0 0 0 -62.01,-32.94 l -4.72,65.1 -3e-4,0.004 h -30.36965 v -76.014 c -1.98,-0.49 -3.96,-0.95 -5.96,-1.38 v 77.394 h -114.68 v -79.404 c -1.99,0.37 -3.98,0.75 -5.96,1.16 v 78.244 H 458.5165 l -3e-4,-0.004 -4.95,-68.27 a 287.68741,287.68741 0 0 0 -60.78,29.46 c -0.66,0.42 -1.32,0.84 -1.98,1.28 -1.33,0.86 -2.66,1.74 -3.97,2.63 v 386.98 h -34.27 a 26.80329,26.80329 0 0 0 -24.88995,36.79 25.53979,25.53979 0 0 0 1.75,3.56 27.09542,27.09542 0 0 0 3.02,4.18 26.76039,26.76039 0 0 0 20.12,9.11 h 391.31 a 26.82,26.82 0 0 0 0,-53.64 z M 640.316,344.27123 621.38619,605.96893 h -137.4 l -18.92981,-261.6977 z m 6.11,-84.41931 -4.66974,64.55591 h -25.27 v -64.55591 z m -35.89978,0 v 64.55591 h -45.63228 a 10.91565,10.91565 0 0 0 -9.72265,-5.959 h -5.95905 a 10.91565,10.91565 0 0 0 -9.72265,5.959 h -43.64338 v -64.55591 z m -120.64,64.55591 h -26.27 l -4.66974,-64.55591 h 30.93976 z" transform="translate(-325.74624,-174.48895)" fill="#f2f2f2" id="path9214" style="stroke-width:31.4026" />
    <path d="m 328.11414,649.21557 a 289.0041,289.0041 0 0 0 28.12,28.95 l 379.57995,1 a 289.003,289.003 0 0 0 28.12,-28.95 z" transform="translate(-325.74624,-174.48895)" fill="#3f3d56" id="path9216" style="stroke-width:31.4026" />
    <path d="m 519.80415,552.40557 v 102.56 h 71.85 v -102.56 a 3.448,3.448 0 0 0 -2.43,-3.3 3.1749,3.1749 0 0 0 -1.03,-0.16 h -64.92 a 3.46327,3.46327 0 0 0 -3.47,3.46 z m 28.04,35.24 a 7.67034,7.67034 0 0 1 15.34,0 v 11.9 a 7.6701,7.6701 0 0 1 -15.34,0 z" transform="translate(-325.74624,-174.48895)" fill="#2f2e41" id="path9218" style="stroke-width:31.4026" />
    <path d="m 519.58417,651.6856 v 9.89 a 1.94623,1.94623 0 0 0 1.93,1.94 h 68.43 a 1.93971,1.93971 0 0 0 1.93,-1.94 v -9.89 z" transform="translate(-325.74624,-174.48895)" fill="#3f3d56" id="path9220" style="stroke-width:31.4026" />
    <path d="m 406.77412,397.88561 v 187.26 a 9.00714,9.00714 0 0 0 9,9 h 277.5 a 9.0071,9.0071 0 0 0 9,-9 v -187.26 a 9.01147,9.01147 0 0 0 -9,-8.99 h -277.5 a 9.01151,9.01151 0 0 0 -9,8.99 z" transform="translate(-325.74624,-174.48895)" fill="#3f3d56" id="path9222" style="stroke-width:31.4026" />
    <path d="m 413.28413,400.21557 v 182.62 a 4.81833,4.81833 0 0 0 4.81,4.81 h 272.87 a 4.8183,4.8183 0 0 0 4.81,-4.81 v -182.62 a 4.82048,4.82048 0 0 0 -4.81,-4.82 h -272.87 a 4.82051,4.82051 0 0 0 -4.81,4.82 z" transform="translate(-325.74624,-174.48895)" fill="#6c63ff" id="path9224" style="stroke-width:31.4026" />
    <path d="m 468.92414,665.84557 a 2.94838,2.94838 0 0 0 2.32,1.11 h 162.34 a 2.98725,2.98725 0 0 0 2.92,-3.6 l -2.52,-11.97 a 2.99263,2.99263 0 0 0 -1.86,-2.17 2.89445,2.89445 0 0 0 -1.06,-0.19995 h -157.31 a 2.89426,2.89426 0 0 0 -1.06,0.19995 2.99243,2.99243 0 0 0 -1.86,2.17 l -2.52,11.97 a 2.9849,2.9849 0 0 0 0.61,2.49 z" transform="translate(-325.74624,-174.48895)" fill="#2f2e41" id="path9226" style="stroke-width:31.4026" />
    <path d="m 473.75405,651.516 a 0.395,0.395 0 0 0 -0.14453,0.0254 0.50826,0.50826 0 0 0 -0.32764,0.35254 l -2.52148,11.97656 a 0.47775,0.47775 0 0 0 0.10156,0.39551 l 0.0112,0.0137 a 0.449,0.449 0 0 0 0.37109,0.17578 H 633.5841 a 0.467,0.467 0 0 0 0.37012,-0.17481 0.45923,0.45923 0 0 0 0.106,-0.39746 l -2.52246,-11.98339 a 0.49765,0.49765 0 0 0 -0.30371,-0.34864 0.43641,0.43641 0 0 0 -0.16992,-0.0352 z" transform="translate(-325.74624,-174.48895)" fill="#ffffff" id="path9228" style="stroke-width:31.4026" />
    <path d="M 426.86744,420.5523 H 682.1908 a 1.0156,1.0156 0 0 0 0,-2.0307 H 426.86744 a 1.0156,1.0156 0 0 0 0,2.0307 z" transform="translate(-325.74624,-174.48895)" fill="#3f3d56" id="path9230" style="stroke-width:31.4026" />
    <ellipse cx="339.06436" cy="232.76546" rx="5.9504299" ry="6.0830402" fill="#3f3d56" id="ellipse9232" style="stroke-width:31.4026" />
    <ellipse cx="318.50836" cy="232.76546" rx="5.9504299" ry="6.0830402" fill="#3f3d56" id="ellipse9234" style="stroke-width:31.4026" />
    <ellipse cx="297.95233" cy="232.76546" rx="5.9504299" ry="6.0830402" fill="#3f3d56" id="ellipse9236" style="stroke-width:31.4026" />
    <path d="m 438.15555,403.78558 a 1.0948,1.0948 0 0 0 1.09,1.1 h 14.6 a 1.1053,1.1053 0 0 0 0,-2.21 h -14.6 a 1.1034,1.1034 0 0 0 -1.09,1.11 z" transform="translate(-325.74624,-174.48895)" fill="#3f3d56" id="path9238" style="stroke-width:31.4026" />
    <path d="m 438.15555,407.9356 a 1.09475,1.09475 0 0 0 1.09,1.1 h 14.6 a 1.10527,1.10527 0 0 0 0,-2.21 h -14.6 a 1.1034,1.1034 0 0 0 -1.09,1.11 z" transform="translate(-325.74624,-174.48895)" fill="#3f3d56" id="path9240" style="stroke-width:31.4026" />
    <path d="m 438.15555,412.07562 a 1.1034,1.1034 0 0 0 1.09,1.11 h 14.6 a 1.1053,1.1053 0 0 0 0,-2.21 h -14.6 a 1.09476,1.09476 0 0 0 -1.09,1.1 z" transform="translate(-325.74624,-174.48895)" fill="#3f3d56" id="path9242" style="stroke-width:31.4026" />
    <path d="M 644.14761,451.54632 H 464.9103 a 8.89169,8.89169 0 0 0 -8.88135,8.88135 v 87.23681 a 8.8918,8.8918 0 0 0 8.88135,8.88184 h 179.23731 a 8.89179,8.89179 0 0 0 8.88134,-8.88184 v -87.23681 a 8.89168,8.89168 0 0 0 -8.88134,-8.88135 z m 6.88134,8.88135 v 25.45166 h -63 v -32.333 h 56.11866 a 6.88908,6.88908 0 0 1 6.88139,6.88134 z m -128,59.78564 v -32.334 h 63 v 32.334 z m 63,2 v 32.333 h -63 v -32.333 z m -65,-2 h -63 v -32.334 h 63 z m 2,-34.334 v -32.333 h 63 v 32.333 z m 65,2 h 63 v 32.334 h -63 z m -123.11865,-34.333 h 56.1187 v 32.333 h -63 v -25.45164 a 6.88908,6.88908 0 0 1 6.8813,-6.88135 z m -6.8813,94.11817 v -25.45117 h 63 v 32.333 h -56.1187 a 6.88919,6.88919 0 0 1 -6.8813,-6.88183 z m 186.11866,6.88184 H 588.029 v -32.333 h 63 v 25.45117 a 6.88918,6.88918 0 0 1 -6.88139,6.88183 z" transform="translate(-325.74624,-174.48895)" fill="#3f3d56" id="path9244" style="stroke-width:31.4026" />
    <path d="m 545.41938,473.69457 c -1.59058,-2.63069 -3.47535,-5.43947 -6.42705,-6.29847 -3.41828,-0.99476 -6.9297,0.98138 -9.9082,2.93142 a 288.72629,288.72629 0 0 0 -25.69476,18.93158 l 0.009,0.10212 19.1738,-1.32225 c 4.6177,-0.31844 9.394,-0.68081 13.4748,-2.86527 1.54851,-0.82892 3.058,-1.93619 4.8127,-2.01335 2.18007,-0.0958 4.081,1.42671 5.57479,3.01744 8.83651,9.40968 11.39362,23.79933 21.3073,32.06644 a 314.61566,314.61566 0 0 0 -22.32238,-44.54966 z" transform="translate(-325.74624,-174.48895)" fill="#ffffff" id="path9246" style="stroke-width:31.4026" />
    <path d="m 599.7361,553.50572 c -0.97718,-1.23391 -1.37646,-1.52289 -2.34035,-2.76822 q -11.77262,-15.22612 -22.1306,-31.48084 -7.03554,-11.03961 -13.37335,-22.50318 -3.01729,-5.44992 -5.86917,-10.9854 -2.213,-4.29206 -4.32719,-8.63546 c -0.40309,-0.827 -0.79476,-1.6579 -1.18448,-2.49064 -0.91831,-1.95829 -1.81955,-3.92607 -2.78726,-5.85775 a 16.11413,16.11413 0 0 0 -4.46988,-5.98893 6.09843,6.09843 0 0 0 -3.177,-1.2225 8.86159,8.86159 0 0 0 -4.59911,1.31757 148.04814,148.04814 0 0 0 -29.11183,20.07527 151.55944,151.55944 0 0 0 -23.65157,26.25436 c -0.20906,0.2985 -0.7034,0.0133 -0.49239,-0.28708 q 1.24631,-1.76247 2.542,-3.48689 A 152.39717,152.39717 0 0 1 523.671,469.155 q 3.78459,-2.45261 7.71148,-4.67517 c 1.31945,-0.74719 2.64466,-1.48488 3.99261,-2.17692 a 9.72793,9.72793 0 0 1 4.23409,-1.31187 c 5.13717,-0.0799 7.79706,5.738 9.62413,9.65264 q 0.86127,1.848 1.74343,3.68462 3.33382,6.97281 6.92433,13.81826 2.21591,4.22647 4.52883,8.40352 7.198,13.00739 15.30124,25.48812 c 7.15632,11.02153 14.25555,20.75782 22.40808,31.06448 0.22435,0.28516 -0.17679,0.69203 -0.40312,0.40304 z" transform="translate(-325.74624,-174.48895)" fill="#ffffff" id="path9248" style="stroke-width:31.4026" />
    <path d="m 505.8582,480.09286 c -0.29847,-0.33272 -0.59507,-0.66544 -0.89548,-0.99815 -2.36895,-2.61993 -4.91085,-5.20943 -8.16395,-6.71142 a 11.84427,11.84427 0 0 0 -4.96227,-1.15025 14.16149,14.16149 0 0 0 -5.15231,1.12364 c -0.77572,0.30991 -1.53437,0.66163 -2.2815,1.03618 -0.8537,0.42968 -1.69218,0.88789 -2.52676,1.34989 q -2.35,1.30045 -4.639,2.715 -4.55449,2.8148 -8.82372,6.05928 -2.21312,1.68261 -4.3349,3.47548 -1.97348,1.66549 -3.8671,3.42035 c -0.27,0.24906 -0.673,-0.154 -0.40309,-0.40307 0.33272,-0.3099 0.66924,-0.6179 1.00577,-0.9221 q 1.42593,-1.28906 2.89754,-2.52867 2.68351,-2.26439 5.506,-4.35385 4.38906,-3.25113 9.08031,-6.06117 2.3443,-1.40312 4.75312,-2.68837 c 0.48487,-0.25857 0.97541,-0.51144 1.47161,-0.751 a 23.45971,23.45971 0 0 1 3.49828,-1.424 12.44508,12.44508 0 0 1 5.28357,-0.519 13.75614,13.75614 0 0 1 4.87483,1.68641 c 3.19405,1.78527 5.67134,4.54588 8.08215,7.23995 0.2434,0.27368 -0.15783,0.67865 -0.4031,0.40487 z" transform="translate(-325.74624,-174.48895)" fill="#ffffff" id="path9250" style="stroke-width:31.4026" />
    <path d="m 571.30359,507.2422 7.6538,-2.79942 3.80014,-1.38991 a 38.8622,38.8622 0 0 1 3.75173,-1.29215 5.91886,5.91886 0 0 1 3.39578,0.0433 7.82666,7.82666 0 0 1 2.64863,1.64187 21.49478,21.49478 0 0 1 2.17243,2.32 c 0.82736,0.9943 1.6425,1.999 2.46129,3.00038 q 5.069,6.19922 10.0717,12.45223 5.00259,6.2529 9.93828,12.55895 4.94777,6.32146 9.82747,12.69578 0.59778,0.78089 1.19453,1.56254 c 0.21979,0.28788 0.7154,0.004 0.4925,-0.28788 q -4.91571,-6.43842 -9.89994,-12.82414 -4.9965,-6.401 -10.062,-12.74766 -5.06544,-6.34655 -10.19934,-12.63806 -1.279,-1.56741 -2.56224,-3.13136 c -0.72164,-0.8795 -1.43514,-1.76849 -2.22665,-2.58709 a 8.0255,8.0255 0 0 0 -5.44085,-2.86653 10.50123,10.50123 0 0 0 -3.70075,0.81358 c -1.27955,0.4629 -2.556,0.93446 -3.834,1.40186 l -7.70733,2.819 -1.92683,0.70475 c -0.34194,0.12506 -0.19423,0.6765 0.15163,0.55 z" transform="translate(-325.74624,-174.48895)" fill="#ffffff" id="path9252" style="stroke-width:31.4026" />
    <path d="m 495.79155,475.68 a 12.35654,12.35654 0 0 0 -12.4447,0.89 177.49838,177.49838 0 0 1 20.19408,4.7132 c -2.75473,-1.61442 -4.90959,-4.14373 -7.74938,-5.6032 z" transform="translate(-325.74624,-174.48895)" fill="#ffffff" id="path9254" style="stroke-width:31.4026" />
    <path d="m 483.30857,476.563 -0.74878,0.60863 c 0.25328,-0.213 0.51658,-0.41275 0.78706,-0.60175 z" transform="translate(-325.74624,-174.48895)" fill="#ffffff" id="path9256" style="stroke-width:31.4026" />
    <path d="m 592.26547,507.27016 a 6.371,6.371 0 0 0 -2.69492,-2.24988 l -1.05213,0.0415 a 119.34217,119.34217 0 0 0 31.78674,36.33972 z" transform="translate(-325.74624,-174.48895)" fill="#ffffff" id="path9258" style="stroke-width:31.4026" />
    <circle cx="261.59708" cy="311.22702" r="6.0588999" fill="#ffffff" id="circle9260" style="stroke-width:31.4026" />
    <path d="m 675.26821,553.04632 a 4.50677,4.50677 0 0 0 4.5,-4.5 v -93 a 4.5,4.5 0 1 0 -9,0 v 93 a 4.50677,4.50677 0 0 0 4.5,4.5 z" transform="translate(-325.74624,-174.48895)" fill="#3f3d56" id="path9262" style="stroke-width:31.4026" />
    <path d="m 675.26821,553.04632 a 4.50677,4.50677 0 0 0 4.5,-4.5 v -19.72 a 5.58075,5.58075 0 0 0 -9,0 v 19.72 a 4.50677,4.50677 0 0 0 4.5,4.5 z" transform="translate(-325.74624,-174.48895)" fill="#2f2e41" id="path9264" style="stroke-width:31.4026" />
    <path d="m 675.26821,534.04632 a 4.8469,4.8469 0 0 0 4.83962,-4.83962 v -21.20828 a 6.00194,6.00194 0 0 0 -9.67924,0 v 21.20828 a 4.8469,4.8469 0 0 0 4.83962,4.83962 z" transform="translate(-325.74624,-174.48895)" fill="#6c63ff" id="path9266" style="stroke-width:31.4026" />
    <path d="m 675.26821,530.19 a 3.53525,3.53525 0 0 0 3.52994,-3.52993 v -15.46893 a 4.37772,4.37772 0 0 0 -7.05988,0 v 15.46895 a 3.53525,3.53525 0 0 0 3.52994,3.52991 z" transform="translate(-325.74624,-174.48895)" fill="#3f3d56" id="path9268" style="stroke-width:31.4026" />
    <path d="m 288.69858,483.03568 a 4.00426,4.00426 0 0 1 -0.317,-5.648 l 39.31582,-43.99163 a 4.0000246,4.0000246 0 0 1 5.965,5.331 l -39.31583,43.99166 a 4.00426,4.00426 0 0 1 -5.64799,0.31697 z" fill="#6c63ff" id="path9270" style="stroke-width:31.4026" />
  </g>
  <g id="g987" transform="matrix(0.26467153,0,0,0.26467153,-9.0344047,0.32158126)" inkscape:label="laptop" style="stroke-width:0.999667">
    <rect style="opacity:1;fill:none;stroke:#6c63ff;stroke-width:1.99933;stroke-linejoin:round;stroke-miterlimit:4;stroke-dasharray:none;stroke-opacity:1" id="rect1145" width="149.95001" height="129.95668" x="300.76926" y="180.72432" ry="1.9513646" />
    <path id="ellipse8311" style="opacity:1;fill:none;stroke:#3f3d56;stroke-width:1.99933;stroke-linejoin:round" transform="rotate(-31.758984)" d="m 110.97581,412.18877 c 0,14.67691 -5.34195,26.5749 -11.931581,26.5749 -6.589632,0 -5.374602,-14.89322 -5.374601,-29.57013 10e-7,-14.67691 11.931582,-26.57489 11.931582,-26.57489 0,0 5.3746,14.89322 5.3746,29.57012 z" sodipodi:nodetypes="ssscs" />
    <path id="path7096" style="opacity:1;fill:#d0cde1;stroke-width:2.999;stroke-linejoin:round" transform="rotate(-63.748027)" d="m -138.51612,401.08331 c 4.80071,13.86956 3.59921,26.62374 -2.99042,26.62374 -6.58963,1e-5 -11.93158,-11.89797 -11.93159,-26.57489 0,-14.67691 12.84037,-29.25236 12.84037,-29.25236 0,0 -3.37624,13.43532 2.08164,29.20351 z" sodipodi:nodetypes="ssscs" />
    <rect y="319.20987" width="300" height="0.70093459" fill="#3f3d56" id="rect903" x="260.00018" style="stroke-width:0.999666" />
    <path d="M 502.87063,356.92198 H 315.43995 a 6.2846518,6.2846518 0 0 1 -6.28466,-6.28464 v 0 q 101.91537,-11.84452 200,0 v 0 a 6.2846518,6.2846518 0 0 1 -6.28466,6.28464 z" fill="#2f2e41" id="path905" style="stroke-width:0.999667" />
    <path d="m 509.15527,351.00702 -199.99998,-0.3697 23.1793,-39.00185 0.1108,-0.1848 V 225.495 a 7.9438792,7.9438792 0 0 1 7.94454,-7.94454 h 136.42142 a 7.9438792,7.9438792 0 0 1 7.94456,7.94454 v 86.54713 z" fill="#3f3d56" id="path907" style="stroke-width:0.999667" />
    <path d="m 340.20889,223.09574 a 2.5907061,2.5907061 0 0 0 -2.5878,2.5878 v 78.37339 a 2.5908243,2.5908243 0 0 0 2.5878,2.5878 h 137.89278 a 2.5909361,2.5909361 0 0 0 2.5878,-2.5878 v -78.37339 a 2.5908211,2.5908211 0 0 0 -2.5878,-2.5878 z" fill="#ffffff" id="path909" style="stroke-width:0.999667" />
    <path d="m 340.78671,316.99593 a 1.112117,1.112117 0 0 0 -1.00762,0.6455 l -7.14226,15.52681 a 1.1090067,1.1090067 0 0 0 1.00744,1.5726 h 150.198 a 1.1089312,1.1089312 0 0 0 0.99172,-1.6051 l -7.7634,-15.52681 a 1.1034333,1.1034333 0 0 0 -0.99172,-0.613 z" fill="#2f2e41" id="path911" style="stroke-width:0.999667" />
    <circle cx="408.60068" cy="220.13834" r="1.6635855" fill="#ffffff" id="circle913" style="stroke-width:0.999667" />
    <path d="m 393.83752,337.69832 a 1.1107408,1.1107408 0 0 0 -1.0708,0.82062 l -1.79156,6.65434 a 1.1089509,1.1089509 0 0 0 1.07078,1.3975 h 34.07156 a 1.1088031,1.1088031 0 0 0 1.04768,-1.47188 l -2.30332,-6.65434 a 1.1096439,1.1096439 0 0 0 -1.04804,-0.74624 z" fill="#2f2e41" id="path915" style="stroke-width:0.999667" />
    <polygon points="99.732,342.53 100.081,341.968 100.081,338.028 563.827,338.028 563.827,342.53 " fill="#2f2e41" id="polygon917" transform="matrix(0.32842722,0,0,0.32842722,299.57997,199.13919)" style="stroke-width:3.0438" />
    <path d="m 357.1486,239.36857 a 2.0383376,2.0383376 0 0 0 -2.00668,2.06432 v 46.79108 a 2.0383376,2.0383376 0 0 0 2.00668,2.06432 h 104.01337 a 2.0383408,2.0383408 0 0 0 2.00668,-2.06432 v -46.79108 a 2.0383408,2.0383408 0 0 0 -2.00668,-2.06432 z" fill="#e6e6e6" id="path919" style="stroke-width:0.999667" />
    <path d="m 416.90196,290.37191 h 37.86319 a 1.2188952,1.2188952 0 0 0 0.86192,-2.08066 l -24.23295,-24.23296 a 1.2202188,1.2202188 0 0 0 -1.72368,0 l -6.02612,6.02612 a 2.5561491,2.5561491 0 0 1 -3.6154,0 l -18.87458,-18.8746 a 1.2204158,1.2204158 0 0 0 -1.72386,0 l -36.91422,36.91422 a 1.2188952,1.2188952 0 0 0 0.86192,2.08066 h 53.57228 z" fill="#6c63ff" id="path921" style="stroke-width:0.999667" />
    <circle cx="371.86423" cy="250.40544" r="4.6822753" fill="#6c63ff" id="circle923" style="stroke-width:0.999667" />
    <path d="m 359.6449,256.30677 a 0.33446699,0.33446699 0 0 1 -0.33446,-0.33446 v -22.40802 a 0.33447027,0.33447027 0 0 1 0.33446,-0.33444 h 25.7525 a 0.33445057,0.33445057 0 1 1 0,0.6689 h -25.41806 v 22.07358 a 0.33446371,0.33446371 0 0 1 -0.33444,0.33444 z" fill="#3f3d56" id="path925" style="stroke-width:0.999667" />
    <path d="m 458.64153,256.64121 a 0.33435861,0.33435861 0 0 1 -0.33444,-0.33444 v -22.0736 h -25.41807 a 0.33444729,0.33444729 0 1 1 0,-0.66888 h 25.75251 a 0.33435861,0.33435861 0 0 1 0.33446,0.33444 v 22.40802 a 0.33435861,0.33435861 0 0 1 -0.33446,0.33446 z" fill="#3f3d56" id="path927" style="stroke-width:0.999667" />
    <path d="m 385.3974,296.10609 h -25.7525 a 0.33436189,0.33436189 0 0 1 -0.33446,-0.33446 v -22.408 a 0.33445057,0.33445057 0 1 1 0.6689,0 v 22.07356 h 25.41806 a 0.33445057,0.33445057 0 1 1 0,0.6689 z" fill="#3f3d56" id="path929" style="stroke-width:0.999667" />
    <path d="m 458.64153,296.44053 h -25.75251 a 0.33445003,0.33445003 0 1 1 0,-0.6689 h 25.41807 v -22.07358 a 0.33445003,0.33445003 0 0 1 0.6689,0 v 22.40804 a 0.33425351,0.33425351 0 0 1 -0.33446,0.33444 z" fill="#3f3d56" id="path931" style="stroke-width:0.999667" />
    <rect style="opacity:1;fill:#d0cde1;fill-opacity:1;stroke:none;stroke-width:1.99932;stroke-linejoin:round;stroke-miterlimit:4;stroke-dasharray:none;stroke-opacity:1" id="rect1802" width="40" height="40" x="315.11975" y="205.99753" />
    <rect style="opacity:1;fill:#ffffff;fill-opacity:1;stroke:none;stroke-width:1.99932;stroke-linejoin:round;stroke-miterlimit:4;stroke-dasharray:none;stroke-opacity:1" id="rect2052" width="36" height="24" x="317.11975" y="212.99754" />
    <circle style="opacity:1;fill:#3f3d56;fill-opacity:1;stroke:none;stroke-width:1.99933;stroke-linejoin:round;stroke-miterlimit:4;stroke-dasharray:none;stroke-opacity:1" id="path2112" cx="335.11975" cy="209.59753" r="2" />
    <path style="fill:none;stroke:#fffff0;stroke-width:0.999667px;stroke-linecap:butt;stroke-linejoin:miter;stroke-opacity:1" d="m 317.31121,239.66544 h 25.30986" id="path2988" />
    <rect style="opacity:1;fill:#d0cde1;fill-opacity:1;stroke:none;stroke-width:1.99932;stroke-linejoin:round;stroke-miterlimit:4;stroke-dasharray:none;stroke-opacity:1" id="rect3216" width="40" height="40" x="315.11975" y="285.99756" />
    <rect style="opacity:1;fill:#ffffff;fill-opacity:1;stroke:none;stroke-width:1.99932;stroke-linejoin:round;stroke-miterlimit:4;stroke-dasharray:none;stroke-opacity:1" id="rect3218" width="36" height="24" x="317.11975" y="292.39758" />
    <circle style="opacity:1;fill:#3f3d56;fill-opacity:1;stroke:none;stroke-width:1.99933;stroke-linejoin:round;stroke-miterlimit:4;stroke-dasharray:none;stroke-opacity:1" id="circle3220" cx="335.11975" cy="289.59756" r="2" />
    <path style="fill:none;stroke:#fffff0;stroke-width:0.999667px;stroke-linecap:butt;stroke-linejoin:miter;stroke-opacity:1" d="m 317.31121,319.66548 h 25.30986" id="path3222" />
    <rect style="opacity:1;fill:#d0cde1;fill-opacity:1;stroke:none;stroke-width:1.99932;stroke-linejoin:round;stroke-miterlimit:4;stroke-dasharray:none;stroke-opacity:1" id="rect3224" width="40" height="40" x="475.11975" y="285.99756" />
    <rect style="opacity:1;fill:#ffffff;fill-opacity:1;stroke:none;stroke-width:1.99932;stroke-linejoin:round;stroke-miterlimit:4;stroke-dasharray:none;stroke-opacity:1" id="rect3226" width="36" height="24" x="477.11975" y="292.39758" />
    <circle style="opacity:1;fill:#3f3d56;fill-opacity:1;stroke:none;stroke-width:1.99933;stroke-linejoin:round;stroke-miterlimit:4;stroke-dasharray:none;stroke-opacity:1" id="circle3228" cx="495.11975" cy="289.59756" r="2" />
    <path style="fill:none;stroke:#fffff0;stroke-width:0.999667px;stroke-linecap:butt;stroke-linejoin:miter;stroke-opacity:1" d="m 477.31129,319.66548 h 25.30986" id="path3230" />
    <rect style="opacity:1;fill:#d0cde1;fill-opacity:1;stroke:none;stroke-width:1.99932;stroke-linejoin:round;stroke-miterlimit:4;stroke-dasharray:none;stroke-opacity:1" id="rect3232" width="40" height="40" x="475.11975" y="205.99751" />
    <rect style="opacity:1;fill:#ffffff;fill-opacity:1;stroke:none;stroke-width:1.99932;stroke-linejoin:round;stroke-miterlimit:4;stroke-dasharray:none;stroke-opacity:1" id="rect3234" width="36" height="24" x="477.11975" y="212.39754" />
    <circle style="opacity:1;fill:#3f3d56;fill-opacity:1;stroke:none;stroke-width:1.99933;stroke-linejoin:round;stroke-miterlimit:4;stroke-dasharray:none;stroke-opacity:1" id="circle3236" cx="495.11975" cy="209.59752" r="2" />
    <path style="fill:none;stroke:#fffff0;stroke-width:0.999667px;stroke-linecap:butt;stroke-linejoin:miter;stroke-opacity:1" d="m 483.31129,239.66544 h 25.30986" id="path3238" />
    <circle style="opacity:1;fill:#3f3d56;fill-opacity:1;stroke:none;stroke-width:1.99933;stroke-linejoin:round;stroke-miterlimit:4;stroke-dasharray:none;stroke-opacity:1" id="circle3240" cx="324.11975" cy="224.99754" r="5" />
    <circle style="opacity:1;fill:#d0cde1;fill-opacity:1;stroke:none;stroke-width:1.99933;stroke-linejoin:round;stroke-miterlimit:4;stroke-dasharray:none;stroke-opacity:1" id="circle3242" cx="346.11975" cy="224.99754" r="5" />
    <circle style="opacity:1;fill:#6c63ff;fill-opacity:1;stroke:none;stroke-width:1.99933;stroke-linejoin:round;stroke-miterlimit:4;stroke-dasharray:none;stroke-opacity:1" id="circle3244" cx="335.11975" cy="224.99754" r="5" />
    <rect style="opacity:1;fill:#6c63ff;fill-opacity:1;stroke:none;stroke-width:1.99931;stroke-linejoin:round;stroke-miterlimit:4;stroke-dasharray:none;stroke-opacity:1" id="rect4498" width="7.8947353" height="7.8947353" x="329.11975" y="301.55548" />
    <rect style="opacity:1;fill:none;fill-opacity:1;stroke:#3f3d56;stroke-width:0.999667;stroke-linejoin:round;stroke-miterlimit:4;stroke-dasharray:none;stroke-opacity:1" id="rect4931" width="7.8947353" height="7.8947353" x="331.22501" y="298.39758" />
    <path style="fill:none;stroke:#fffff0;stroke-width:0.999665px;stroke-linecap:butt;stroke-linejoin:miter;stroke-opacity:1" d="m 317.31121,321.66548 h 15" id="path5790" />
    <path style="fill:none;stroke:#fffff0;stroke-width:0.999667px;stroke-linecap:butt;stroke-linejoin:miter;stroke-opacity:1" d="m 317.3112,241.66545 h 30" id="path5792" />
    <path style="fill:none;stroke:#3b3950;stroke-width:0.999667px;stroke-linecap:butt;stroke-linejoin:miter;stroke-opacity:1" d="m 482.46482,299.66547 h 25.30986" id="path5794" />
    <path style="fill:none;stroke:#3b3950;stroke-width:0.999667px;stroke-linecap:butt;stroke-linejoin:miter;stroke-opacity:1" d="m 482.46482,301.66547 h 25.30986" id="path6305" />
    <path style="fill:none;stroke:#3b3950;stroke-width:0.999667px;stroke-linecap:butt;stroke-linejoin:miter;stroke-opacity:1" d="m 482.46482,303.66547 h 25.30986" id="path6307" />
    <path style="fill:none;stroke:#3b3950;stroke-width:0.999667px;stroke-linecap:butt;stroke-linejoin:miter;stroke-opacity:1" d="m 482.46482,297.66547 h 25.30986" id="path6309" />
    <path style="fill:none;stroke:#3b3950;stroke-width:0.999667px;stroke-linecap:butt;stroke-linejoin:miter;stroke-opacity:1" d="m 482.46482,305.66547 h 25.30986" id="path6311" />
    <path style="fill:none;stroke:#3b3950;stroke-width:2.999;stroke-linecap:butt;stroke-linejoin:miter;stroke-miterlimit:4;stroke-dasharray:none;stroke-opacity:1" d="m 492.46482,309.66547 h 5" id="path6313" />
    <path style="fill:none;stroke:#fffff0;stroke-width:0.999667px;stroke-linecap:butt;stroke-linejoin:miter;stroke-opacity:1" d="m 483.31129,241.66544 h 25.30986" id="path6315" />
    <path sodipodi:type="star" style="opacity:1;fill:#3f3d56;fill-opacity:1;stroke:none;stroke-width:22.6818;stroke-linejoin:round;stroke-miterlimit:4;stroke-dasharray:none;stroke-opacity:1" id="path6339" inkscape:flatsided="false" sodipodi:sides="3" sodipodi:cx="450.03634" sodipodi:cy="145.26964" sodipodi:r1="35.958599" sodipodi:r2="17.9793" sodipodi:arg1="0.52359878" sodipodi:arg2="1.5707963" inkscape:rounded="0.05" inkscape:randomized="0.005" d="m 481.32293,163.38021 c -0.77745,1.3463 -29.90856,0.0102 -31.4638,3.4e-4 -1.55523,-0.01 -30.34701,1.18418 -31.1236,-0.16562 -0.77659,-1.3498 15.11852,-25.66359 15.90368,-27.01248 0.78515,-1.34889 13.66467,-26.99704 15.22365,-27.00907 1.55897,-0.012 15.11065,25.83053 15.89995,27.17469 0.7893,1.34416 16.33758,25.66584 15.56012,27.01214 z" transform="matrix(0.15963437,0,0,0.10951411,423.27957,203.95356)" inkscape:transform-center-x="0.00028742373" inkscape:transform-center-y="-0.25158198" />
    <path sodipodi:type="star" style="opacity:1;fill:#3f3d56;fill-opacity:1;stroke:none;stroke-width:22.6818;stroke-linejoin:round;stroke-miterlimit:4;stroke-dasharray:none;stroke-opacity:1" id="path7072" inkscape:flatsided="false" sodipodi:sides="3" sodipodi:cx="450.03635" sodipodi:cy="145.26964" sodipodi:r1="35.958599" sodipodi:r2="17.9793" sodipodi:arg1="0.52359878" sodipodi:arg2="1.5707963" inkscape:rounded="0.05" inkscape:randomized="0.005" d="m 481.32294,163.38021 c -0.77746,1.3463 -29.90857,0.0102 -31.4638,3.5e-4 -1.55524,-0.01 -30.34701,1.18417 -31.12361,-0.16563 -0.77659,-1.3498 15.11853,-25.66359 15.90368,-27.01248 0.78516,-1.34889 13.66468,-26.99703 15.22365,-27.00906 1.55897,-0.012 15.11065,25.83053 15.89995,27.17468 0.7893,1.34416 16.33758,25.66585 15.56013,27.01214 z" transform="matrix(0.15963437,0,0,-0.10951411,423.27957,241.87)" inkscape:transform-center-x="0.00028742373" inkscape:transform-center-y="0.25158131" />
    <path style="fill:none;stroke:#000000;stroke-width:0.999667px;stroke-linecap:butt;stroke-linejoin:miter;stroke-opacity:1" d="M 32.637277,377.55787 H 532.67738" id="path11891" />
    <rect style="fill:#6c63ff;fill-opacity:1;stroke:none;stroke-width:1.99932;stroke-linejoin:round;stroke-miterlimit:4;stroke-dasharray:none;stroke-opacity:1" id="rect4498-1" width="11.838177" height="11.838177" x="43.010891" y="366.70789" />
    <rect style="fill:none;fill-opacity:1;stroke:#3f3d56;stroke-width:0.999667;stroke-linejoin:round;stroke-miterlimit:4;stroke-dasharray:none;stroke-opacity:1" id="rect4931-6" width="11.838177" height="11.838177" x="46.167717" y="361.9726" />
    <rect style="fill:#6c63ff;fill-opacity:1;stroke:none;stroke-width:1.99932;stroke-linejoin:round;stroke-miterlimit:4;stroke-dasharray:none;stroke-opacity:1" id="rect12000" width="7.8921151" height="7.8921151" x="282.93106" y="383.12341" />
    <rect style="fill:none;fill-opacity:1;stroke:#3f3d56;stroke-width:0.999666;stroke-linejoin:round;stroke-miterlimit:4;stroke-dasharray:none;stroke-opacity:1" id="rect12002" width="7.8921151" height="7.8921151" x="285.03561" y="379.96655" />
    <rect style="fill:#6c63ff;fill-opacity:1;stroke:none;stroke-width:1.99932;stroke-linejoin:round;stroke-miterlimit:4;stroke-dasharray:none;stroke-opacity:1" id="rect12004" width="15.784229" height="15.784229" x="498.85922" y="366.38727" />
    <rect style="fill:none;fill-opacity:1;stroke:#3f3d56;stroke-width:0.999665;stroke-linejoin:round;stroke-miterlimit:4;stroke-dasharray:none;stroke-opacity:1" id="rect12006" width="15.784229" height="15.784229" x="503.06833" y="360.07355" />
  </g>
</svg>
