<?xml version="1.0" encoding="UTF-8" standalone="no"?>
<svg width="1345" height="533" version="1.1" viewBox="0 0 1345 533" id="svg22" sodipodi:docname="banner.svg" inkscape:version="1.1.1 (3bf5ae0d25, 2021-09-20)" xmlns:inkscape="http://www.inkscape.org/namespaces/inkscape" xmlns:sodipodi="http://sodipodi.sourceforge.net/DTD/sodipodi-0.dtd" xmlns:xlink="http://www.w3.org/1999/xlink" xmlns="http://www.w3.org/2000/svg" xmlns:svg="http://www.w3.org/2000/svg">
  <defs id="defs26">
    <linearGradient inkscape:collect="always" id="linearGradient913">
      <stop style="stop-color:#00a2ff;stop-opacity:1" offset="0" id="stop909" />
      <stop style="stop-color:#383838;stop-opacity:1" offset="0.28844565" id="stop1271" />
      <stop style="stop-color:#383838;stop-opacity:1" offset="1" id="stop911" />
    </linearGradient>
    <linearGradient inkscape:collect="always" xlink:href="#linearGradient913" id="linearGradient915" x1="741.61859" y1="0.74884421" x2="731.66211" y2="431.26428" gradientUnits="userSpaceOnUse" />
  </defs>
  <sodipodi:namedview id="namedview24" pagecolor="#505050" bordercolor="#ffffff" borderopacity="1" inkscape:pageshadow="0" inkscape:pageopacity="0" inkscape:pagecheckerboard="1" showgrid="false" inkscape:zoom="0.33622076" inkscape:cx="655.81911" inkscape:cy="206.70943" inkscape:window-width="1366" inkscape:window-height="715" inkscape:window-x="-8" inkscape:window-y="-8" inkscape:window-maximized="1" inkscape:current-layer="svg22" />
  <path sodipodi:type="star" style="fill:#0d6efd;fill-opacity:1;stroke:#3383d6;stroke-width:2.21843;stroke-linejoin:round;stroke-opacity:1" id="path6948" inkscape:flatsided="false" sodipodi:sides="3" sodipodi:cx="921.05658" sodipodi:cy="216" sodipodi:r1="76.895844" sodipodi:r2="38.447922" sodipodi:arg1="1.012197" sodipodi:arg2="2.0593946" inkscape:rounded="0" inkscape:randomized="0" d="m 961.8113,281.20754 -58.80174,-31.25834 -58.80173,-31.25835 56.47139,-35.29462 56.47139,-35.29462 2.33034,66.55297 z" inkscape:transform-center-x="7.9811402" inkscape:transform-center-y="-0.64644337" transform="matrix(0.45076878,0,0,0.45076878,367.7034,141.88151)" />
  <path style="opacity:1;fill:url(#linearGradient915);fill-opacity:1;stroke:#ffffff;stroke-width:5;stroke-linecap:butt;stroke-linejoin:miter;stroke-miterlimit:4;stroke-dasharray:20, 10, 5, 10;stroke-opacity:1;stroke-dashoffset:0" d="M 1351.7853,533.92106 C 1323.7666,193.4085 1309.1613,-75.521878 833.05542,45.266097 751.09678,66.058989 706.59411,154.49694 795.37505,253.12502 c 88.31027,98.10521 144.08968,164.26224 103.74457,230.54349 -40.34511,66.28125 -273.77039,-54.75408 -273.77039,-54.75408 0,0 -181.553,164.26224 -573.476942,66.28126 C -340.05165,397.2147 -83.572017,189.72556 -80.690223,172.4348 c 2.881794,-17.29077 77.8084293,-414.97829 77.8084293,-414.97829 0,0 1210.8779937,-413.43608 1532.2892937,-16.44271 170.4316,210.509749 -161.2963,991.3157 -177.6222,792.90726 z" id="path2219" sodipodi:nodetypes="sssscsscas" />
  <g fill-opacity="0.63197" stroke="#ffffff" stroke-linejoin="round" id="g20" style="display:none">
    <circle cx="100" cy="519.09003" r="100" fill="#fd7e14" id="circle2" />
    <circle cx="1820" cy="540" r="100" fill="#fd7e14" id="circle4" />
    <circle cx="960" r="100" fill="#0d6efd" id="circle6" cy="0" />
    <circle cx="960" cy="1080" r="100" fill="#0d6efd" id="circle8" />
    <circle cx="-100" cy="1180" r="100" fill="#b92d3a" id="circle10" />
    <circle cx="-100" cy="-100" r="100" fill="#28a745" id="circle12" />
    <circle cx="2020" cy="-100" r="100" fill="#b92d3a" id="circle14" />
    <circle cx="2020" cy="1180" r="100" fill="#28a745" id="circle16" />
    <circle cx="960" cy="540" r="100" fill="#28a745" id="circle18" />
  </g>
  <path sodipodi:type="star" style="fill:#0d6efd;fill-opacity:1;stroke:#3383d6;stroke-width:2.21843;stroke-linejoin:round;stroke-opacity:1" id="path1856" inkscape:flatsided="false" sodipodi:sides="3" sodipodi:cx="921.05658" sodipodi:cy="216" sodipodi:r1="76.895844" sodipodi:r2="38.447922" sodipodi:arg1="1.012197" sodipodi:arg2="2.0593946" inkscape:rounded="0" inkscape:randomized="0" d="m 961.8113,281.20754 -58.80174,-31.25834 -58.80173,-31.25835 56.47139,-35.29462 56.47139,-35.29462 2.33034,66.55297 z" inkscape:transform-center-x="7.9811402" inkscape:transform-center-y="-0.64644337" transform="matrix(0.45076878,0,0,0.45076878,349.70337,1.8814259)" />
  <path sodipodi:type="star" style="fill:#094bac;fill-opacity:1;stroke:#3383d6;stroke-linejoin:round;stroke-opacity:1" id="path1882" inkscape:flatsided="false" sodipodi:sides="3" sodipodi:cx="240.45284" sodipodi:cy="696.90564" sodipodi:r1="43.322857" sodipodi:r2="21.661428" sodipodi:arg1="0.71883" sodipodi:arg2="1.7660276" inkscape:rounded="0.05" inkscape:randomized="0.005" d="m 273.13948,725.34679 c -1.23974,1.40706 -35.14037,-6.82685 -36.98415,-7.18953 -1.84379,-0.36268 -36.3098,-5.34119 -36.9076,-7.11746 -0.59781,-1.77627 23.84535,-27.06046 25.07566,-28.47199 1.23031,-1.41154 22.89191,-28.55342 24.73043,-28.19446 1.83853,0.35895 11.11936,33.80563 11.73681,35.57956 0.61744,1.77393 13.5886,33.98682 12.34885,35.39388 z" inkscape:transform-center-x="4.2228897" inkscape:transform-center-y="-6.9665328" transform="translate(-255.78432,-252.81009)" />
  <path sodipodi:type="star" style="fill:#0d6efd;fill-opacity:1;stroke:#3383d6;stroke-linejoin:round;stroke-opacity:1" id="path1884" inkscape:flatsided="false" sodipodi:sides="3" sodipodi:cx="277.13208" sodipodi:cy="36.679245" sodipodi:r1="53.13765" sodipodi:r2="26.568825" sodipodi:arg1="1.6475682" sodipodi:arg2="2.6947658" inkscape:rounded="0.05" inkscape:randomized="0.005" d="M 273.16037,89.738952 C 270.86828,89.550075 254.37854,50.14478 253.39812,48.060024 252.41771,45.975268 231.74311,8.4590761 233.03397,6.5478834 c 1.29086,-1.9111929 43.64063,3.4504722 45.93758,3.6246236 2.29695,0.174151 44.99403,1.500543 45.99541,3.570843 1.00137,2.0703 -24.80177,36.009238 -26.10534,37.900451 -1.30358,1.891213 -23.40915,38.284029 -25.70125,38.095151 z" inkscape:transform-center-x="-1.8535845" inkscape:transform-center-y="11.258946" transform="translate(-255.78432,-98.149799)" />
  <path sodipodi:type="star" style="fill:#0d6efd;fill-opacity:1;stroke:#3383d6;stroke-linejoin:round;stroke-opacity:1" id="path1886" inkscape:flatsided="false" sodipodi:sides="3" sodipodi:cx="1560.9056" sodipodi:cy="-171.16982" sodipodi:r1="45.565159" sodipodi:r2="22.782579" sodipodi:arg1="0.46364761" sodipodi:arg2="1.5108452" inkscape:rounded="0.05" inkscape:randomized="0.005" d="m 1601.7275,-150.79027 c -0.8809,1.76948 -37.4712,2.19245 -39.4363,2.3184 -1.9651,0.12596 -38.4402,4.17043 -39.5284,2.52152 -1.0882,-1.64891 16.6868,-33.86437 17.5755,-35.62589 0.8886,-1.76152 15.6558,-35.03523 17.625,-35.16591 1.9693,-0.13068 20.8326,31.19775 21.9284,32.84361 1.0958,1.64586 22.7168,31.33878 21.8358,33.10827 z" inkscape:transform-center-x="-1.3286224" inkscape:transform-center-y="-9.9793538" />
  <path sodipodi:type="star" style="fill:#0d6efd;fill-opacity:1;stroke:#3383d6;stroke-linejoin:round;stroke-opacity:1" id="path1880" inkscape:flatsided="false" sodipodi:sides="3" sodipodi:cx="1385.6604" sodipodi:cy="607.2453" sodipodi:r1="26.095753" sodipodi:r2="13.047876" sodipodi:arg1="-0.89605538" sodipodi:arg2="0.15114217" inkscape:rounded="0.05" inkscape:randomized="0.005" d="m 1402.0145,586.92252 c 0.8867,0.69919 -3.2063,21.05477 -3.3704,22.17007 -0.164,1.11529 -2.404,22.0037 -3.4551,22.42121 -1.0512,0.41751 -16.7509,-13.27783 -17.6349,-13.98204 -0.8839,-0.70421 -17.8818,-13.21101 -17.7115,-14.33001 0.1703,-1.11901 20.1403,-7.66964 21.1948,-8.08237 1.0545,-0.41274 20.0904,-8.89606 20.9771,-8.19686 z" inkscape:transform-center-x="4.6696893" inkscape:transform-center-y="1.9570675" transform="translate(-115.99522,-577.00185)" />
  <text xml:space="preserve" style="font-size:38.2202px;line-height:1.25;font-family:sans-serif;stroke-width:1" x="-118.61135" y="519.04919" id="text1366" transform="rotate(-40.97714)"><tspan sodipodi:role="line" id="tspan1364" x="-118.61135" y="519.04919" style="font-style:normal;font-variant:normal;font-weight:bold;font-stretch:condensed;font-family:'Agency FB';-inkscape-font-specification:'Agency FB Bold Condensed';fill:#0b5cd5;stroke-width:1">=&gt;</tspan></text>
  <text xml:space="preserve" style="font-size:39.2588px;line-height:1.25;font-family:sans-serif;stroke-width:1" x="662.71735" y="49.078201" id="text2888"><tspan sodipodi:role="line" id="tspan2886" x="662.71735" y="49.078201" style="font-style:normal;font-variant:normal;font-weight:bold;font-stretch:condensed;font-family:'Agency FB';-inkscape-font-specification:'Agency FB Bold Condensed';fill:#dc3545;stroke-width:1">&lt;/&gt;</tspan></text>
  <text xml:space="preserve" style="font-size:80px;line-height:1.25;font-family:sans-serif" x="1297.5352" y="166.55724" id="text4608"><tspan sodipodi:role="line" id="tspan4606" x="1297.5352" y="166.55724" style="fill:#fd7e14">+</tspan></text>
  <text xml:space="preserve" style="font-size:80px;line-height:1.25;font-family:sans-serif" x="196.29961" y="74.355911" id="text5297"><tspan sodipodi:role="line" id="tspan5295" x="196.29961" y="74.355911" /></text>
  <rect style="fill:#fd7e14;fill-opacity:0.628631;stroke-width:5.00689;stroke-linejoin:round;stroke-miterlimit:4;stroke-dasharray:20.0277, 10.0138, 5.00689, 10.0138;stroke-dashoffset:0" id="rect6245" width="68.758789" height="37.091759" x="127.79085" y="57.767235" transform="matrix(0.98149059,-0.19151038,0.11814524,0.99299633,0,0)" />
  <text xml:space="preserve" style="font-size:26.1725px;line-height:1.25;font-family:sans-serif;stroke-width:1" x="783.1391" y="439.07837" id="text6411"><tspan sodipodi:role="line" id="tspan6409" x="783.1391" y="439.07837" style="font-style:normal;font-variant:normal;font-weight:bold;font-stretch:condensed;font-family:'Agency FB';-inkscape-font-specification:'Agency FB Bold Condensed';fill:#dc3545;stroke-width:1">&lt;/&gt;</tspan></text>
  <rect style="fill:#febc85;fill-opacity:0.628631;stroke-width:5.00689;stroke-linejoin:round;stroke-miterlimit:4;stroke-dasharray:20.0277, 10.0138, 5.00689, 10.0138;stroke-dashoffset:0" id="rect6649" width="55.007034" height="29.673407" x="135.59494" y="60.648369" transform="matrix(0.98149059,-0.19151036,0.11814524,0.99299633,0,0)" />
</svg>
