<?xml version="1.0" encoding="UTF-8" standalone="no"?>
<!-- Created with Inkscape (http://www.inkscape.org/) -->

<svg width="100" height="25" viewBox="0 0 26.458332 6.6145839" version="1.1" id="svg5" inkscape:version="1.1.1 (3bf5ae0d25, 2021-09-20)" sodipodi:docname="instFive.svg" xmlns:inkscape="http://www.inkscape.org/namespaces/inkscape" xmlns:sodipodi="http://sodipodi.sourceforge.net/DTD/sodipodi-0.dtd" xmlns="http://www.w3.org/2000/svg" xmlns:svg="http://www.w3.org/2000/svg">
  <sodipodi:namedview id="namedview7" pagecolor="#505050" bordercolor="#ffffff" borderopacity="1" inkscape:pageshadow="0" inkscape:pageopacity="0" inkscape:pagecheckerboard="1" inkscape:document-units="px" showgrid="true" units="px" width="500mm" inkscape:snap-bbox="true" inkscape:snap-bbox-midpoints="true" inkscape:snap-bbox-edge-midpoints="true" inkscape:bbox-nodes="true" inkscape:snap-global="true" inkscape:snap-center="true" inkscape:snap-grids="false" inkscape:snap-page="true" showguides="false" fit-margin-top="0" fit-margin-left="0" fit-margin-right="0" fit-margin-bottom="0" inkscape:zoom="4.8704322" inkscape:cx="49.790242" inkscape:cy="22.482604" inkscape:window-width="1366" inkscape:window-height="715" inkscape:window-x="-8" inkscape:window-y="-8" inkscape:window-maximized="1" inkscape:current-layer="layer1">
    <inkscape:grid type="xygrid" id="grid824" units="px" spacingx="0.99999999" spacingy="0.99999999" empcolor="#ffa23f" empopacity="0.25098039" dotted="false" enabled="false" originx="0.36800374" originy="-36.604908" />
  </sodipodi:namedview>
  <defs id="defs2" />
  <g inkscape:label="Layer 1" inkscape:groupmode="layer" id="layer1" transform="translate(0.36800448,-36.604905)">
    <rect style="display:inline;opacity:1;fill:#d56a11;fill-opacity:1;stroke:none;stroke-width:1.32292;stroke-linejoin:round" id="rect26846" width="18.642632" height="6.5574369" x="56.228123" y="3.8018031" />
    <g id="g31431" style="display:none">
      <text xml:space="preserve" style="font-style:normal;font-weight:normal;font-size:4.51622px;line-height:1.25;font-family:sans-serif;letter-spacing:-0.141133px;fill:#ffffff;fill-opacity:1;stroke:none;stroke-width:0.264583" x="21.260353" y="9.4830256" id="text31397" transform="scale(0.93736008,1.0668259)"><tspan sodipodi:role="line" id="tspan31395" style="font-style:normal;font-variant:normal;font-weight:normal;font-stretch:normal;font-size:4.51622px;font-family:IMPACT;-inkscape-font-specification:IMPACT;fill:#ffffff;fill-opacity:1;stroke-width:0.264583" x="21.260353" y="9.4830256">&quot; DO WHAT YOU LOVE</tspan></text>
      <text xml:space="preserve" style="font-style:normal;font-weight:normal;font-size:4.51622px;line-height:1.25;font-family:sans-serif;letter-spacing:-0.141132px;fill:#ffffff;fill-opacity:1;stroke:none;stroke-width:0.264583" x="-1.8853359" y="14.939249" id="text31401" transform="scale(0.93736073,1.0668251)"><tspan sodipodi:role="line" id="tspan31399" style="font-style:normal;font-variant:normal;font-weight:normal;font-stretch:normal;font-size:4.51622px;font-family:IMPACT;-inkscape-font-specification:IMPACT;fill:#ffffff;fill-opacity:1;stroke-width:0.264583" x="-1.8853359" y="14.939249">LOVE WHAT YOU DO &quot;</tspan></text>
      <path id="path31403" style="opacity:1;fill:#d56a11;stroke:none;stroke-width:5;stroke-linejoin:round" inkscape:transform-center-x="-0.036286505" inkscape:transform-center-y="4.2105964" d="m 38.923828,-1.3007812 31.25,54.1269532 31.250002,54.126948 31.25,-54.126948 31.25,-54.1269532 h -62.5 z M 47.5,3.5 H 101.25 155 L 128.125,50.048828 101.25,96.597656 74.375,50.048828 Z" transform="matrix(0.26458334,0,0,0.26458334,-1.5936073,-0.13222468)" />
      <path id="path31405" style="opacity:1;fill:#d56a11;stroke:none;stroke-width:1.32292;stroke-linejoin:round" inkscape:transform-center-x="-0.036286505" inkscape:transform-center-y="-4.2105964" d="M 8.7049891,22.874119 16.973218,8.5530293 25.241448,-5.7680598 33.509678,8.5530293 41.777907,22.874119 H 25.241448 Z M 10.974101,21.603912 H 25.195456 39.41681 L 32.306133,9.2878683 25.195456,-3.0281768 18.084778,9.2878683 Z" />
      <text xml:space="preserve" style="font-style:normal;font-weight:normal;font-size:4.51622px;line-height:1.25;font-family:sans-serif;letter-spacing:-0.141133px;fill:#ffffff;fill-opacity:1;stroke:none;stroke-width:0.264583" x="21.260353" y="29.323828" id="text31409" transform="scale(0.93736007,1.0668259)"><tspan sodipodi:role="line" id="tspan31407" style="font-style:normal;font-variant:normal;font-weight:normal;font-stretch:normal;font-size:4.51622px;font-family:IMPACT;-inkscape-font-specification:IMPACT;fill:#ffffff;fill-opacity:1;stroke-width:0.264583" x="21.260353" y="29.323828">&quot; DO WHAT YOU LOVE</tspan></text>
      <text xml:space="preserve" style="font-style:normal;font-weight:normal;font-size:4.51622px;line-height:1.25;font-family:sans-serif;letter-spacing:-0.141132px;fill:#ffffff;fill-opacity:1;stroke:none;stroke-width:0.264583" x="-1.8853359" y="34.780064" id="text31413" transform="scale(0.93736077,1.0668251)"><tspan sodipodi:role="line" id="tspan31411" style="font-style:normal;font-variant:normal;font-weight:normal;font-stretch:normal;font-size:4.51622px;font-family:IMPACT;-inkscape-font-specification:IMPACT;fill:#ffffff;fill-opacity:1;stroke-width:0.264583" x="-1.8853359" y="34.780064">LOVE WHAT YOU DO &quot;</tspan></text>
      <path id="path31415" style="opacity:1;fill:#d56a11;stroke:none;stroke-width:1.32292;stroke-linejoin:round" inkscape:transform-center-x="-0.036286505" inkscape:transform-center-y="4.2105964" d="m 8.7049891,20.690291 8.2682289,14.32109 8.26823,14.321088 8.26823,-14.321088 8.268229,-14.32109 H 25.241448 Z m 2.2691119,1.270206 H 25.195456 39.41681 L 32.306133,34.276542 25.195456,46.592586 18.084779,34.276542 Z" />
      <path id="path31417" style="opacity:1;fill:#d56a11;stroke:none;stroke-width:1.32292;stroke-linejoin:round" inkscape:transform-center-x="-0.036286505" inkscape:transform-center-y="-4.2105964" d="m 8.7049891,44.040799 8.2682289,-14.321089 8.26823,-14.321089 8.26823,14.321089 8.268229,14.321089 H 25.241448 Z M 10.974101,42.770592 H 25.195456 39.41681 L 32.306133,30.454549 25.195456,18.138504 18.084778,30.454549 Z" />
    </g>
    <text xml:space="preserve" style="font-style:normal;font-weight:normal;font-size:4.51622px;line-height:1.25;font-family:sans-serif;letter-spacing:-0.141132px;display:none;fill:#ffffff;fill-opacity:1;stroke:none;stroke-width:0.264583" x="38.196198" y="71.485565" id="text33951" transform="scale(0.93736077,1.0668251)"><tspan sodipodi:role="line" id="tspan33949" style="font-style:normal;font-variant:normal;font-weight:normal;font-stretch:normal;font-size:4.51622px;font-family:IMPACT;-inkscape-font-specification:IMPACT;fill:#ffffff;fill-opacity:1;stroke-width:0.264583" x="0" y="0">LOVE WHAT YOU DO &quot;</tspan></text>
    <g aria-label="&quot;WOKRK IT OUT&quot;" id="text1892" style="font-size:4.90067px;line-height:1.25;stroke-width:0.132292" transform="translate(0.45665816,0.57494722)">
      <path d="m 1.0373428,40.37522 -0.10289491,1.172523 h -0.3397925 l -0.102895,-1.172523 z m -0.78487302,0 -0.1076807,1.172523 h -0.33261387 l -0.1076807,-1.172523 z" style="font-weight:bold;font-stretch:condensed;font-family:'Agency FB';-inkscape-font-specification:'Agency FB Bold Condensed';opacity:0.447155;fill:none;stroke:#d63384" id="path4702" />
      <path d="M 4.7371093,37.729385 4.1891339,41.479067 H 3.6411586 L 3.3061519,39.35656 q -0.00479,-0.114859 -0.019143,-0.342185 0,0.114859 -0.019143,0.342185 L 2.9352515,41.479067 H 2.3848834 L 1.8369081,37.729385 h 0.5671186 l 0.2895414,2.220616 q 0.00718,0.114859 0.019143,0.342185 0.00239,-0.114859 0.021536,-0.342185 l 0.3230423,-2.220616 h 0.4594379 l 0.3230422,2.220616 q 0.00718,0.114859 0.021536,0.342185 0.00239,-0.114859 0.019143,-0.342185 L 4.16999,37.729385 Z" style="font-weight:bold;font-stretch:condensed;font-family:'Agency FB';-inkscape-font-specification:'Agency FB Bold Condensed';opacity:0.447155;fill:none;stroke:#d63384" id="path4704" />
      <path d="m 6.9385819,41.661263 q 0,0.342185 -0.3397924,0.342185 H 5.3831936 q -0.3326138,0 -0.3326138,-0.342185 V 38.60313 q 0,-0.344578 0.3326138,-0.344578 h 1.2155959 q 0.3397924,0 0.3397924,0.344578 z M 6.3786422,41.522474 V 38.739525 H 5.6105196 v 2.782949 z" style="font-weight:bold;font-stretch:condensed;font-family:'Agency FB';-inkscape-font-specification:'Agency FB Bold Condensed';opacity:0.447155;fill:none;stroke:#d63384" id="path4706" />
      <path d="M 9.3014327,40.415947 H 8.7175638 L 8.1001942,38.676305 q 0,0 0,-0.337399 H 8.6505624 V 37.152024 H 7.9446553 v 3.263923 H 7.3847155 v -3.744896 h 1.4859942 q 0.3373996,0 0.3373996,0.344578 v 1.361563 q 0,0.236898 -0.1603246,0.306292 -0.086145,0.03589 -0.3637216,0.03589 z" style="font-weight:bold;font-stretch:condensed;font-family:'Agency FB';-inkscape-font-specification:'Agency FB Bold Condensed';opacity:0.447155;fill:none;stroke:#d63384" id="path4710" />
      <path d="m 11.53162,41.474281 h -0.617369 l -0.710693,-1.670248 v 1.670248 H 9.6436181 v -3.744896 h 0.5599399 v 1.584103 l 0.622155,-1.584103 h 0.612584 v 0.02632 l -0.760944,1.777929 z" style="font-weight:bold;font-stretch:condensed;font-family:'Agency FB';-inkscape-font-specification:'Agency FB Bold Condensed';opacity:0.447155;fill:none;stroke:#d63384" id="path4712" />
      <path d="m 13.335871,41.474281 h -0.55994 v -3.744896 h 0.55994 z" style="font-weight:bold;font-stretch:condensed;font-family:'Agency FB';-inkscape-font-specification:'Agency FB Bold Condensed';opacity:0.447155;fill:none;stroke:#d63384" id="path4714" />
      <path d="m 15.422484,38.753883 h -0.617369 v 3.249565 h -0.557547 v -3.249565 h -0.61737 v -0.495331 h 1.792286 z" style="font-weight:bold;font-stretch:condensed;font-family:'Agency FB';-inkscape-font-specification:'Agency FB Bold Condensed';opacity:0.447155;fill:none;stroke:#d63384" id="path4716" />
      <path d="m 18.605048,41.132096 q 0,0.342185 -0.339792,0.342185 H 17.04966 q -0.332614,0 -0.332614,-0.342185 v -3.058133 q 0,-0.344578 0.332614,-0.344578 h 1.215596 q 0.339792,0 0.339792,0.344578 z m -0.559939,-0.138789 v -2.782949 h -0.768123 v 2.782949 z" style="font-weight:bold;font-stretch:condensed;font-family:'Agency FB';-inkscape-font-specification:'Agency FB Bold Condensed';opacity:0.447155;fill:none;stroke:#d63384" id="path4718" />
      <path d="m 20.928559,40.073762 q 0,0.342185 -0.344579,0.342185 h -1.189273 q -0.339793,0 -0.339793,-0.342185 v -3.402711 h 0.55994 v 3.263922 h 0.753765 v -3.263922 h 0.55994 z" style="font-weight:bold;font-stretch:condensed;font-family:'Agency FB';-inkscape-font-specification:'Agency FB Bold Condensed';opacity:0.447155;fill:none;stroke:#d63384" id="path4720" />
      <path d="m 23.005601,38.224716 h -0.61737 v 3.249565 h -0.557547 v -3.249565 h -0.617369 v -0.495331 h 1.792286 z" style="font-weight:bold;font-stretch:condensed;font-family:'Agency FB';-inkscape-font-specification:'Agency FB Bold Condensed';opacity:0.447155;fill:none;stroke:#d63384" id="path4722" />
      <path d="m 25.104514,40.37522 -0.102895,1.172523 H 24.661827 L 24.558932,40.37522 Z m -0.784873,0 -0.10768,1.172523 H 23.879347 L 23.771666,40.37522 Z" style="font-weight:bold;font-stretch:condensed;font-family:'Agency FB';-inkscape-font-specification:'Agency FB Bold Condensed';opacity:0.447155;fill:none;stroke:#d63384" id="path4724" />
    </g>
    <text xml:space="preserve" style="font-style:normal;font-weight:normal;font-size:4.90067px;line-height:1.25;font-family:sans-serif;fill:#000000;fill-opacity:1;stroke:none;stroke-width:0.132292;stroke-miterlimit:4;stroke-dasharray:none" x="-2.0600815" y="52.057625" id="text4700"><tspan sodipodi:role="line" id="tspan4698" style="font-style:normal;font-variant:normal;font-weight:bold;font-stretch:condensed;font-family:'Agency FB';-inkscape-font-specification:'Agency FB Bold Condensed';opacity:0.447155;fill:none;fill-opacity:1;stroke:#d63384;stroke-width:0.132292;stroke-miterlimit:4;stroke-dasharray:none;stroke-opacity:1" x="-2.0600815" y="52.057625">&quot;WOKRK IT OUT&quot;</tspan></text>
  </g>
</svg>
