<?xml version="1.0" encoding="UTF-8" standalone="no"?>
<!-- Created with Inkscape (http://www.inkscape.org/) -->

<svg width="1336" height="768" viewBox="0 0 1336 768" version="1.1" id="svg5" inkscape:version="1.1.1 (3bf5ae0d25, 2021-09-20)" sodipodi:docname="SVG-bg2.svg" xmlns:inkscape="http://www.inkscape.org/namespaces/inkscape" xmlns:sodipodi="http://sodipodi.sourceforge.net/DTD/sodipodi-0.dtd" xmlns="http://www.w3.org/2000/svg" xmlns:svg="http://www.w3.org/2000/svg">
  <sodipodi:namedview id="namedview7" pagecolor="#505050" bordercolor="#ffffff" borderopacity="1" inkscape:pageshadow="0" inkscape:pageopacity="0" inkscape:pagecheckerboard="1" inkscape:document-units="px" showgrid="true" units="px" width="500mm" inkscape:snap-bbox="true" inkscape:snap-bbox-midpoints="true" inkscape:snap-bbox-edge-midpoints="true" inkscape:bbox-nodes="true" inkscape:snap-global="true" inkscape:snap-center="true" inkscape:snap-grids="false" inkscape:snap-page="true" inkscape:zoom="0.24537037" inkscape:cx="595.01887" inkscape:cy="344.37736" inkscape:window-width="1366" inkscape:window-height="715" inkscape:window-x="-8" inkscape:window-y="-8" inkscape:window-maximized="1" inkscape:current-layer="layer1">
    <inkscape:grid type="xygrid" id="grid824" units="px" spacingx="0.99999999" spacingy="0.99999999" empcolor="#ffa23f" empopacity="0.25098039" dotted="false" />
  </sodipodi:namedview>
  <defs id="defs2">
    <inkscape:perspective sodipodi:type="inkscape:persp3d" inkscape:vp_x="100.00006 : 464.00005 : 1" inkscape:vp_y="0 : 1000 : 0" inkscape:vp_z="1436 : 464.00005 : 1" inkscape:persp3d-origin="768.00005 : 336.00005 : 1" id="perspective1700" />
  </defs>
  <g inkscape:label="Layer 1" inkscape:groupmode="layer" id="layer1">
    <path sodipodi:type="star" style="fill:#0d6efd;stroke:#ffffff;stroke-width:2.85356;stroke-linejoin:round" id="path961" inkscape:flatsided="false" sodipodi:sides="3" sodipodi:cx="89.660378" sodipodi:cy="88.64151" sodipodi:r1="44.235767" sodipodi:r2="22.117884" sodipodi:arg1="0.89965249" sodipodi:arg2="1.94685" inkscape:rounded="0.05" inkscape:randomized="0.005" d="M 117.04955,123.36416 C 115.55444,124.56867 83.249329,109.80094 81.469255,109.08727 79.689181,108.3736 46.203158,97.126387 45.931135,95.225734 45.659112,93.325081 74.485766,72.396646 75.995822,71.215923 77.505878,70.035199 104.2628,46.959145 106.0444,47.651581 c 1.78161,0.692436 5.2668,35.662667 5.55556,37.554065 0.28875,1.891398 6.94469,36.953994 5.44959,38.158514 z" inkscape:transform-center-x="2.8251535" inkscape:transform-center-y="-1.0885949" transform="matrix(0.35044016,0,0,0.35044016,29.833778,30.942632)" />
    <path sodipodi:type="star" style="fill:#28a745;stroke:#ffffff;stroke-width:3.2876;stroke-linejoin:round" id="path963" inkscape:flatsided="false" sodipodi:sides="4" sodipodi:cx="425.88679" sodipodi:cy="417.73585" sodipodi:r1="91.805977" sodipodi:r2="45.902988" sodipodi:arg1="2.0307675" sodipodi:arg2="2.8161657" inkscape:rounded="0.05" inkscape:randomized="0.005" d="m 384.91537,500.15974 c -3.03842,-1.4786 -1.34621,-64.64687 -2.41045,-67.8551 -1.06424,-3.20823 -40.31929,-52.4157 -38.83432,-55.44787 1.48497,-3.03217 64.74709,-1.74364 67.95728,-2.80989 3.21018,-1.06624 52.44141,-39.73414 55.46321,-38.22436 3.0218,1.50978 1.48869,63.9727 2.58181,67.17427 1.09311,3.20157 39.77943,52.83166 38.29519,55.87081 -1.48424,3.03915 -64.14655,1.18901 -67.35354,2.24352 -3.207,1.05451 -52.66077,40.52721 -55.69918,39.04862 z" inkscape:transform-center-x="-6.0374659" inkscape:transform-center-y="0.8704075" transform="matrix(0.30417286,0,0,0.30417286,756.69165,388.51236)" />
    <circle style="fill:#ffc107;stroke:#ffffff;stroke-width:1;stroke-linejoin:round" id="path1013" cx="1235" cy="660" r="25" />
    <path style="fill:none;stroke:#000000;stroke-width:1px;stroke-linecap:butt;stroke-linejoin:miter;stroke-opacity:1" d="M 478.86792,-158.9434 H 751.92453" id="path1048" />
    <rect style="fill:#dc3545;stroke:#ffffff;stroke-width:1;stroke-linejoin:round" id="rect1232" width="35.355339" height="35.355339" x="803.22473" y="43.088146" transform="rotate(45)" />
    <rect style="fill:#0d6efd;stroke:#ffffff;stroke-width:1;stroke-linejoin:round" id="rect1234" width="17.67767" height="17.67767" x="970.29956" y="-690.81073" transform="rotate(45)" />
    <rect style="fill:#0d6efd;stroke:#ffffff;stroke-width:1;stroke-linejoin:round" id="rect1236" width="35.355339" height="35.355339" x="433.21631" y="397.86096" transform="rotate(45)" />
    <path sodipodi:type="star" style="fill:#28a745;stroke:#ffffff;stroke-width:7.1339;stroke-linejoin:round" id="path1398" inkscape:flatsided="false" sodipodi:sides="3" sodipodi:cx="89.660378" sodipodi:cy="88.64151" sodipodi:r1="44.235767" sodipodi:r2="22.117884" sodipodi:arg1="0.89965249" sodipodi:arg2="1.94685" inkscape:rounded="0.05" inkscape:randomized="0.005" d="M 117.04955,123.36416 C 115.55444,124.56867 83.249329,109.80094 81.469255,109.08727 79.689181,108.3736 46.203158,97.126387 45.931135,95.225734 45.659112,93.325081 74.485766,72.396646 75.995822,71.215923 77.505878,70.035199 104.2628,46.959145 106.0444,47.651581 c 1.78161,0.692436 5.2668,35.662667 5.55556,37.554065 0.28875,1.891398 6.94469,36.953994 5.44959,38.158514 z" inkscape:transform-center-x="1.1300613" inkscape:transform-center-y="-0.43543259" transform="matrix(0.14017607,0,0,0.14017607,937.37826,371.60041)" />
    <path sodipodi:type="star" style="fill:#28a745;stroke:#ffffff;stroke-width:1.42678;stroke-linejoin:round" id="path1400" inkscape:flatsided="false" sodipodi:sides="3" sodipodi:cx="89.660378" sodipodi:cy="88.64151" sodipodi:r1="44.235767" sodipodi:r2="22.117884" sodipodi:arg1="0.89965249" sodipodi:arg2="1.94685" inkscape:rounded="0.05" inkscape:randomized="0.005" d="M 117.04955,123.36416 C 115.55444,124.56867 83.249329,109.80094 81.469255,109.08727 79.689181,108.3736 46.203158,97.126387 45.931135,95.225734 45.659112,93.325081 74.485766,72.396646 75.995822,71.215923 77.505878,70.035199 104.2628,46.959145 106.0444,47.651581 c 1.78161,0.692436 5.2668,35.662667 5.55556,37.554065 0.28875,1.891398 6.94469,36.953994 5.44959,38.158514 z" inkscape:transform-center-x="5.6503026" inkscape:transform-center-y="-2.1771891" transform="matrix(0.70088033,0,0,0.70088033,380.53079,95.758395)" />
    <path sodipodi:type="star" style="fill:#dc3545;stroke:#ffffff;stroke-width:2.85356;stroke-linejoin:round" id="path1402" inkscape:flatsided="false" sodipodi:sides="3" sodipodi:cx="89.660378" sodipodi:cy="88.64151" sodipodi:r1="44.235767" sodipodi:r2="22.117884" sodipodi:arg1="0.89965249" sodipodi:arg2="1.94685" inkscape:rounded="0.05" inkscape:randomized="0.005" d="M 117.04955,123.36416 C 115.55444,124.56867 83.249329,109.80094 81.469255,109.08727 79.689181,108.3736 46.203158,97.126387 45.931135,95.225734 45.659112,93.325081 74.485766,72.396646 75.995822,71.215923 77.505878,70.035199 104.2628,46.959145 106.0444,47.651581 c 1.78161,0.692436 5.2668,35.662667 5.55556,37.554065 0.28875,1.891398 6.94469,36.953994 5.44959,38.158514 z" inkscape:transform-center-x="2.8251535" inkscape:transform-center-y="-1.0885949" transform="matrix(0.35044016,0,0,0.35044016,245.83378,459.99924)" />
    <path sodipodi:type="star" style="fill:#28a745;stroke:#ffffff;stroke-width:3.2876;stroke-linejoin:round" id="path1404" inkscape:flatsided="false" sodipodi:sides="4" sodipodi:cx="425.88678" sodipodi:cy="417.73584" sodipodi:r1="91.805977" sodipodi:r2="45.902988" sodipodi:arg1="2.0307675" sodipodi:arg2="2.8161657" inkscape:rounded="0.05" inkscape:randomized="0.005" d="m 384.91535,500.15973 c -3.03841,-1.4786 -1.3462,-64.64687 -2.41045,-67.8551 -1.06424,-3.20823 -40.31929,-52.4157 -38.83431,-55.44787 1.48497,-3.03217 64.74709,-1.74364 67.95728,-2.80989 3.21018,-1.06624 52.44141,-39.73414 55.46321,-38.22436 3.02179,1.50978 1.48869,63.9727 2.58181,67.17427 1.09311,3.20157 39.77943,52.83166 38.29519,55.87081 -1.48424,3.03915 -64.14655,1.18901 -67.35355,2.24352 -3.20699,1.05451 -52.66076,40.52721 -55.69918,39.04862 z" inkscape:transform-center-x="-6.0374659" inkscape:transform-center-y="0.8704075" transform="matrix(0.30417286,0,0,0.30417286,91.786081,615.85266)" />
    <path sodipodi:type="star" style="fill:#28a745;stroke:#ffffff;stroke-width:3.2876;stroke-linejoin:round" id="path1406" inkscape:flatsided="false" sodipodi:sides="4" sodipodi:cx="425.88678" sodipodi:cy="417.73584" sodipodi:r1="91.805977" sodipodi:r2="45.902988" sodipodi:arg1="2.0307675" sodipodi:arg2="2.8161657" inkscape:rounded="0.05" inkscape:randomized="0.005" d="m 384.91535,500.15973 c -3.03841,-1.4786 -1.3462,-64.64687 -2.41045,-67.8551 -1.06424,-3.20823 -40.31929,-52.4157 -38.83431,-55.44787 1.48497,-3.03217 64.74709,-1.74364 67.95728,-2.80989 3.21018,-1.06624 52.44141,-39.73414 55.46321,-38.22436 3.02179,1.50978 1.48869,63.9727 2.58181,67.17427 1.09311,3.20157 39.77943,52.83166 38.29519,55.87081 -1.48424,3.03915 -64.14655,1.18901 -67.35355,2.24352 -3.20699,1.05451 -52.66076,40.52721 -55.69918,39.04862 z" inkscape:transform-center-x="-6.0374659" inkscape:transform-center-y="0.8704075" transform="matrix(0.30417286,0,0,0.30417286,640.95359,-126.27076)" />
    <circle style="fill:#ffc107;stroke:#ffffff;stroke-width:1;stroke-linejoin:round" id="circle1408" cx="69.026009" cy="202.3392" r="10" />
    <circle style="fill:#ffc107;stroke:#ffffff;stroke-width:1;stroke-linejoin:round" id="circle1410" cx="1311" cy="433.81131" r="25" />
    <circle style="fill:#dc3545;fill-opacity:0.63197;stroke:#ffffff;stroke-width:1;stroke-linejoin:round" id="circle1412" cx="640" cy="360" r="50" />
    <g sodipodi:type="inkscape:box3d" id="g1702" style="fill:#ffc107;fill-opacity:0.63197;stroke:#ffffff;stroke-linejoin:round" inkscape:perspectiveID="#perspective1700" inkscape:corner0="-3.0235481 : 1.3563778 : 0 : 1" inkscape:corner7="-9.1953704 : -0.22844993 : 0.25 : 1">
      <path sodipodi:type="inkscape:box3dside" id="path1708" style="fill:#8686bf;fill-rule:evenodd;stroke:none;stroke-linejoin:round" inkscape:box3dsidetype="3" d="M -230.11317,911.04151 18.490628,453.88674 V 260.50589 L -230.11317,127.849 Z" points="18.490628,453.88674 18.490628,260.50589 -230.11317,127.849 -230.11317,911.04151 " />
      <path sodipodi:type="inkscape:box3dside" id="path1704" style="fill:#353564;fill-rule:evenodd;stroke:none;stroke-linejoin:round" inkscape:box3dsidetype="6" d="M -230.11317,911.04151 V 127.849 L -464.9691,103.01869 v 893.59163 z" points="-230.11317,127.849 -464.9691,103.01869 -464.9691,996.61032 -230.11317,911.04151 " />
      <path sodipodi:type="inkscape:box3dside" id="path1706" style="fill:#4d4d9f;fill-rule:evenodd;stroke:none;stroke-linejoin:round" inkscape:box3dsidetype="5" d="M -230.11317,911.04151 18.490628,453.88674 -26.111112,458.60291 -464.9691,996.61032 Z" points="18.490628,453.88674 -26.111112,458.60291 -464.9691,996.61032 -230.11317,911.04151 " />
      <path sodipodi:type="inkscape:box3dside" id="path1714" style="fill:#e9e9ff;fill-rule:evenodd;stroke:none;stroke-linejoin:round" inkscape:box3dsidetype="11" d="M -464.9691,996.61032 -26.111112,458.60291 V 259.13736 L -464.9691,103.01869 Z" points="-26.111112,458.60291 -26.111112,259.13736 -464.9691,103.01869 -464.9691,996.61032 " />
      <path sodipodi:type="inkscape:box3dside" id="path1710" style="fill:#d7d7ff;fill-rule:evenodd;stroke:none;stroke-linejoin:round" inkscape:box3dsidetype="14" d="M 18.490628,453.88674 V 260.50589 l -44.60174,-1.36853 v 199.46555 z" points="18.490628,260.50589 -26.111112,259.13736 -26.111112,458.60291 18.490628,453.88674 " />
      <path sodipodi:type="inkscape:box3dside" id="path1712" style="fill:#afafde;fill-rule:evenodd;stroke:none;stroke-linejoin:round" inkscape:box3dsidetype="13" d="M -230.11317,127.849 18.490628,260.50589 -26.111112,259.13736 -464.9691,103.01869 Z" points="18.490628,260.50589 -26.111112,259.13736 -464.9691,103.01869 -230.11317,127.849 " />
    </g>
  </g>
</svg>
