<?xml version="1.0" encoding="UTF-8"?>
<svg width="500" height="500" version="1.1" viewBox="0 0 500 500" xmlns="http://www.w3.org/2000/svg"><path d="m378.38 244c0 70.901-57.477 128.38-128.38 128.38s-128.38-57.477-128.38-128.38c0-39.316 71.741-209.89 128.38-209.89s128.38 167.51 128.38 209.89z" fill="#5a9cfe"/><ellipse cx="244.12" cy="463.22" rx="244.19" ry="38.027" fill="#e25563" fill-opacity=".62863"/><ellipse cx="244.12" cy="450.86" rx="217.32" ry="32.5" fill="#975cf6" fill-opacity=".62863"/><g transform="matrix(.5594 0 0 .5594 110.15 -80.549)" fill="#e25563" fill-opacity=".62863" stroke-width="1.7876"><path d="m396.13 224.27c18.231 8.8851 28.871 19.385 28.871 30.387 0 29.894-78.35 54.129-175 54.129s-175-24.235-175-54.129c1e-6 -10.967 10.577-21.435 28.703-30.303-32.389 12.332-50.317 28.321-50.344 44.896 0.0018 37.138 88.04 83.244 196.64 83.244 108.6-1.7e-4 196.64-46.106 196.64-83.244-0.012-16.612-18.005-32.635-50.512-44.98z"/><path d="m396.13 204.97c18.231 8.8851 28.871 19.385 28.871 30.387 0 29.894-78.35 54.129-175 54.129s-175-24.235-175-54.129c1e-6 -10.967 10.577-21.435 28.703-30.303-32.389 12.332-50.317 28.321-50.344 44.896 0.0018 37.138 88.04 83.244 196.64 83.244 108.6-1.7e-4 196.64-46.106 196.64-83.244-0.012-16.612-18.005-32.635-50.512-44.98z"/></g><g transform="translate(0 34.025)" fill="#e25563" fill-opacity=".62863"><path d="m396.13 224.27c18.231 8.8851 28.871 19.385 28.871 30.387 0 29.894-78.35 54.129-175 54.129s-175-24.235-175-54.129c1e-6 -10.967 10.577-21.435 28.703-30.303-32.389 12.332-50.317 28.321-50.344 44.896 0.0018 37.138 88.04 83.244 196.64 83.244 108.6-1.7e-4 196.64-46.106 196.64-83.244-0.012-16.612-18.005-32.635-50.512-44.98z"/><path d="m396.13 204.97c18.231 8.8851 28.871 19.385 28.871 30.387 0 29.894-78.35 54.129-175 54.129s-175-24.235-175-54.129c1e-6 -10.967 10.577-21.435 28.703-30.303-32.389 12.332-50.317 28.321-50.344 44.896 0.0018 37.138 88.04 83.244 196.64 83.244 108.6-1.7e-4 196.64-46.106 196.64-83.244-0.012-16.612-18.005-32.635-50.512-44.98z"/></g><ellipse cx="244.12" cy="440.79" rx="150" ry="22.433" fill="#1d1d1d" fill-opacity=".62863"/></svg>
