<?xml version="1.0" encoding="UTF-8" standalone="no"?>
<!-- Created with Inkscape (http://www.inkscape.org/) -->

<svg width="200" height="150" viewBox="0 0 52.916664 39.687504" version="1.1" id="svg5" inkscape:version="1.1.1 (3bf5ae0d25, 2021-09-20)" sodipodi:docname="instTwo.svg" xmlns:inkscape="http://www.inkscape.org/namespaces/inkscape" xmlns:sodipodi="http://sodipodi.sourceforge.net/DTD/sodipodi-0.dtd" xmlns="http://www.w3.org/2000/svg" xmlns:svg="http://www.w3.org/2000/svg">
  <sodipodi:namedview id="namedview7" pagecolor="#505050" bordercolor="#ffffff" borderopacity="1" inkscape:pageshadow="0" inkscape:pageopacity="0" inkscape:pagecheckerboard="1" inkscape:document-units="px" showgrid="true" units="px" width="500mm" inkscape:snap-bbox="true" inkscape:snap-bbox-midpoints="true" inkscape:snap-bbox-edge-midpoints="true" inkscape:bbox-nodes="true" inkscape:snap-global="true" inkscape:snap-center="true" inkscape:snap-grids="false" inkscape:snap-page="true" showguides="false" fit-margin-top="0" fit-margin-left="0" fit-margin-right="0" fit-margin-bottom="0" inkscape:zoom="1.2205448" inkscape:cx="78.243748" inkscape:cy="155.25854" inkscape:window-width="1366" inkscape:window-height="715" inkscape:window-x="-8" inkscape:window-y="-8" inkscape:window-maximized="1" inkscape:current-layer="layer1">
    <inkscape:grid type="xygrid" id="grid824" units="px" spacingx="0.99999999" spacingy="0.99999999" empcolor="#ffa23f" empopacity="0.25098039" dotted="false" enabled="false" originx="4.5241774" originy="16.351391" />
  </sodipodi:namedview>
  <defs id="defs2" />
  <g inkscape:label="Layer 1" inkscape:groupmode="layer" id="layer1" transform="translate(4.5241779,16.35139)">
    <rect style="display:none;opacity:1;fill:#d56a11;fill-opacity:1;stroke:none;stroke-width:1.32292;stroke-linejoin:round" id="rect26846" width="18.642632" height="6.5574369" x="56.228123" y="3.8018031" />
    <g id="g7303" transform="matrix(0.9142857,0,0,0.9142857,4.9038801,-0.91017853)" style="stroke-width:1.09375">
      <g aria-label="&quot; EVER POSITIVE" transform="scale(0.93736007,1.0668259)" id="text8689" style="font-size:4.51622px;line-height:1.25;letter-spacing:-0.141133px;display:inline;fill:#ffffff;stroke-width:0.289388">
        <path d="m 14.682265,-5.3387692 -0.116874,-0.6020157 v -0.546886 h 0.674786 v 0.546886 l -0.101438,0.6020157 z m 0.835766,0 -0.116875,-0.6020157 v -0.546886 h 0.674787 v 0.546886 l -0.103644,0.6020157 z" style="font-family:IMPACT;-inkscape-font-specification:IMPACT;stroke-width:0.289388" id="path40138" />
        <path d="m 16.854371,-6.4876709 h 1.54804 v 0.7144801 h -0.619657 v 0.676992 h 0.579964 v 0.6791971 h -0.579964 v 0.7850461 h 0.681402 v 0.7144801 h -1.609785 z" style="font-family:IMPACT;-inkscape-font-specification:IMPACT;stroke-width:0.289388" id="path40140" />
        <path d="m 20.795036,-6.4876709 -0.471909,3.5701954 h -1.409114 l -0.53586,-3.5701954 h 0.979102 q 0.1698,1.4752691 0.242571,2.4940649 0.07277,-1.0298217 0.152158,-1.8303041 l 0.06395,-0.6637608 z" style="font-family:IMPACT;-inkscape-font-specification:IMPACT;stroke-width:0.289388" id="path40142" />
        <path d="m 20.812677,-6.4876709 h 1.54804 v 0.7144801 H 21.74106 v 0.676992 h 0.579963 v 0.6791971 H 21.74106 v 0.7850461 h 0.681402 v 0.7144801 h -1.609785 z" style="font-family:IMPACT;-inkscape-font-specification:IMPACT;stroke-width:0.289388" id="path40144" />
        <path d="m 22.548157,-6.4876709 h 0.657145 q 0.657145,0 0.88869,0.050719 0.23375,0.050719 0.379292,0.2602119 0.147747,0.2072875 0.147747,0.6637609 0,0.4167801 -0.103643,0.5601171 -0.103644,0.1433371 -0.40796,0.1720045 0.275648,0.068361 0.370471,0.1830304 0.09482,0.1146697 0.116875,0.2116978 0.02426,0.094823 0.02426,0.5270394 v 0.9416142 h -0.862227 v -1.1863898 q 0,-0.2866741 -0.04631,-0.3550349 -0.0441,-0.068361 -0.235955,-0.068361 v 1.6097854 h -0.928383 z m 0.928383,0.6108364 v 0.7938668 q 0.156568,0 0.218313,-0.041898 0.06395,-0.044104 0.06395,-0.2800586 v -0.1962615 q 0,-0.1697993 -0.06175,-0.2227238 -0.05954,-0.052924 -0.220519,-0.052924 z" style="font-family:IMPACT;-inkscape-font-specification:IMPACT;stroke-width:0.289388" id="path40146" />
        <path d="m 25.494282,-6.4876709 h 0.934999 q 0.379292,0 0.582169,0.05954 0.205082,0.05954 0.306521,0.1720045 0.103644,0.1124644 0.138927,0.273443 0.03749,0.1587733 0.03749,0.4939615 v 0.3109312 q 0,0.3418038 -0.07057,0.4983719 -0.07057,0.1565682 -0.260212,0.2403653 -0.187441,0.083797 -0.491757,0.083797 h -0.249186 v 1.437781 H 25.49428 Z m 0.928383,0.6108364 v 0.9085364 q 0.03969,0.00221 0.06836,0.00221 0.127901,0 0.176415,-0.061745 0.05072,-0.06395 0.05072,-0.2624171 v -0.2932896 q 0,-0.1830304 -0.05733,-0.2381601 -0.05733,-0.05513 -0.238161,-0.05513 z" style="font-family:IMPACT;-inkscape-font-specification:IMPACT;stroke-width:0.289388" id="path40148" />
        <path d="m 29.741469,-4.397155 q 0,0.5380653 -0.02646,0.7629942 -0.02426,0.2227238 -0.158773,0.4079594 -0.132312,0.1852355 -0.359446,0.2844689 -0.227134,0.099233 -0.529244,0.099233 -0.286674,0 -0.516014,-0.092618 -0.227134,-0.094823 -0.366061,-0.2822638 -0.138926,-0.1874408 -0.165388,-0.4079593 -0.02646,-0.2205186 -0.02646,-0.771815 V -5.007992 q 0,-0.5380653 0.02426,-0.760789 0.02646,-0.224929 0.158774,-0.4101646 0.134516,-0.1852355 0.36165,-0.2844689 0.227134,-0.099233 0.529245,-0.099233 0.286674,0 0.513808,0.094823 0.229339,0.092618 0.368266,0.2800586 0.138927,0.1874408 0.165389,0.4079593 0.02646,0.2205186 0.02646,0.771815 z m -0.928383,-1.1731587 q 0,-0.249186 -0.02867,-0.3175468 -0.02646,-0.070566 -0.112465,-0.070566 -0.07277,0 -0.112464,0.057335 -0.03749,0.05513 -0.03749,0.3307779 v 1.6671203 q 0,0.3109311 0.02426,0.3837023 0.02646,0.072771 0.11908,0.072771 0.09482,0 0.121285,-0.083797 0.02646,-0.083797 0.02646,-0.3991385 z" style="font-family:IMPACT;-inkscape-font-specification:IMPACT;stroke-width:0.289388" id="path40150" />
        <path d="m 31.913576,-5.40713 h -0.862228 v -0.2646223 q 0,-0.1852356 -0.03308,-0.2359548 -0.03308,-0.050719 -0.110259,-0.050719 -0.0838,0 -0.127901,0.068361 -0.0419,0.068361 -0.0419,0.2072874 0,0.17862 0.04851,0.2690326 0.04631,0.090413 0.262417,0.2183134 0.619657,0.368266 0.780635,0.6042209 0.160979,0.2359548 0.160979,0.760789 0,0.3814971 -0.09041,0.5623223 -0.08821,0.1808252 -0.344009,0.3043156 -0.255801,0.1212852 -0.5954,0.1212852 -0.372676,0 -0.637298,-0.1411318 -0.262417,-0.1411319 -0.344009,-0.3594453 -0.08159,-0.2183134 -0.08159,-0.6196571 v -0.2337497 h 0.862227 v 0.4344216 q 0,0.2006718 0.03528,0.2580067 0.03749,0.057335 0.130106,0.057335 0.09262,0 0.136722,-0.072771 0.04631,-0.072771 0.04631,-0.2161082 0,-0.3153416 -0.086,-0.4123697 -0.08821,-0.097028 -0.434422,-0.3241623 -0.346214,-0.2293393 -0.458679,-0.332983 -0.112464,-0.1036438 -0.18744,-0.2866742 -0.07277,-0.1830304 -0.07277,-0.4674993 0,-0.4101645 0.103644,-0.5998105 0.105849,-0.1896459 0.339599,-0.2954949 0.233749,-0.108054 0.564527,-0.108054 0.361651,0 0.615247,0.1168748 0.255802,0.1168748 0.337393,0.2954949 0.0838,0.1764148 0.0838,0.6020156 z" style="font-family:IMPACT;-inkscape-font-specification:IMPACT;stroke-width:0.289388" id="path40152" />
        <path d="m 33.069092,-6.4876709 v 3.5701954 h -0.928383 v -3.5701954 z" style="font-family:IMPACT;-inkscape-font-specification:IMPACT;stroke-width:0.289388" id="path40154" />
        <path d="m 35.170631,-6.4876709 v 0.7144801 h -0.551296 v 2.8557153 h -0.928383 v -2.8557153 h -0.549091 v -0.7144801 z" style="font-family:IMPACT;-inkscape-font-specification:IMPACT;stroke-width:0.289388" id="path40156" />
        <path d="m 36.16958,-6.4876709 v 3.5701954 h -0.928383 v -3.5701954 z" style="font-family:IMPACT;-inkscape-font-specification:IMPACT;stroke-width:0.289388" id="path40158" />
        <path d="m 38.606308,-6.4876709 -0.471909,3.5701954 h -1.409114 l -0.53586,-3.5701954 h 0.979102 q 0.1698,1.4752691 0.242571,2.4940649 0.07277,-1.0298217 0.152157,-1.8303041 l 0.06395,-0.6637608 z" style="font-family:IMPACT;-inkscape-font-specification:IMPACT;stroke-width:0.289388" id="path40160" />
        <path d="m 38.623949,-6.4876709 h 1.54804 v 0.7144801 h -0.619657 v 0.676992 h 0.579964 v 0.6791971 h -0.579964 v 0.7850461 h 0.681402 v 0.7144801 h -1.609785 z" style="font-family:IMPACT;-inkscape-font-specification:IMPACT;stroke-width:0.289388" id="path40162" />
      </g>
      <g aria-label="NEVER NEGATIVE &quot;" transform="scale(0.93736073,1.0668251)" id="text20661" style="font-size:4.51622px;line-height:1.25;letter-spacing:0px;display:inline;fill:#ffffff;stroke-width:0.289388">
        <path d="m 0.37277412,11.369054 v 3.570195 H -0.44093936 L -0.923875,13.316232 v 1.623017 h -0.7762253 v -3.570195 h 0.7762253 l 0.5204238,1.60758 v -1.60758 z" style="font-family:Impact;-inkscape-font-specification:Impact;stroke-width:0.289388" id="path40183" />
        <path d="M 0.74545059,11.369054 H 2.2934909 v 0.71448 H 1.6738337 v 0.676992 h 0.5799638 v 0.679197 H 1.6738337 v 0.785046 h 0.6814024 v 0.71448 H 0.74545059 Z" style="font-family:Impact;-inkscape-font-specification:Impact;stroke-width:0.289388" id="path40185" />
        <path d="M 4.8272488,11.369054 4.3553391,14.939249 H 2.9462255 L 2.4103654,11.369054 h 0.9791024 q 0.1697993,1.475269 0.2425705,2.494064 0.072771,-1.029821 0.1521578,-1.830304 l 0.06395,-0.66376 z" style="font-family:Impact;-inkscape-font-specification:Impact;stroke-width:0.289388" id="path40187" />
        <path d="m 4.9860226,11.369054 h 1.5480402 v 0.71448 H 5.9144057 v 0.676992 h 0.5799638 v 0.679197 H 5.9144057 v 0.785046 H 6.595808 v 0.71448 H 4.9860226 Z" style="font-family:Impact;-inkscape-font-specification:Impact;stroke-width:0.289388" id="path40189" />
        <path d="m 6.8626352,11.369054 h 0.6571453 q 0.6571453,0 0.8886898,0.05072 0.2337497,0.05072 0.3792919,0.260212 0.1477475,0.207287 0.1477475,0.663761 0,0.41678 -0.1036437,0.560117 -0.1036438,0.143337 -0.4079594,0.172004 0.2756482,0.06836 0.3704712,0.183031 0.094823,0.114669 0.1168748,0.211697 0.024257,0.09482 0.024257,0.52704 V 14.93925 H 8.0732821 v -1.18639 q 0,-0.286674 -0.046309,-0.355035 -0.044104,-0.06836 -0.2359548,-0.06836 V 14.93925 H 6.8626352 Z m 0.9283832,0.610836 v 0.793867 q 0.1565681,0 0.2183133,-0.0419 0.06395,-0.0441 0.06395,-0.280058 v -0.196262 q 0,-0.169799 -0.061745,-0.222724 -0.05954,-0.05292 -0.2205185,-0.05292 z" style="font-family:Impact;-inkscape-font-specification:Impact;stroke-width:0.289388" id="path40191" />
        <path d="m 12.163901,11.369054 v 3.570195 h -0.813713 l -0.482936,-1.623017 v 1.623017 h -0.776225 v -3.570195 h 0.776225 l 0.520424,1.60758 v -1.60758 z" style="font-family:Impact;-inkscape-font-specification:Impact;stroke-width:0.289388" id="path40193" />
        <path d="m 12.536578,11.369054 h 1.54804 v 0.71448 h -0.619657 v 0.676992 h 0.579964 v 0.679197 h -0.579964 v 0.785046 h 0.681402 v 0.71448 h -1.609785 z" style="font-family:Impact;-inkscape-font-specification:Impact;stroke-width:0.289388" id="path40195" />
        <path d="m 16.5434,12.683344 h -0.928383 v -0.324162 q 0,-0.306521 -0.02646,-0.383702 -0.02646,-0.07718 -0.125695,-0.07718 -0.086,0 -0.116875,0.06616 -0.03087,0.06616 -0.03087,0.339598 v 1.713429 q 0,0.240366 0.03087,0.317547 0.03087,0.07498 0.12349,0.07498 0.101439,0 0.136722,-0.086 0.03749,-0.086 0.03749,-0.335188 V 13.565418 H 15.456243 V 13.022943 H 16.5434 v 1.916306 h -0.584374 l -0.086,-0.255801 q -0.09482,0.165388 -0.240365,0.249185 -0.143337,0.08159 -0.339598,0.08159 -0.23375,0 -0.438832,-0.112464 -0.202878,-0.11467 -0.308726,-0.282264 -0.105849,-0.167594 -0.132312,-0.350624 -0.02646,-0.185236 -0.02646,-0.553502 v -1.060694 q 0,-0.511603 0.05513,-0.743148 0.05513,-0.231544 0.315341,-0.423395 0.262417,-0.194057 0.676992,-0.194057 0.40796,0 0.676992,0.167594 0.269033,0.167594 0.350625,0.399139 0.08159,0.229339 0.08159,0.668171 z" style="font-family:Impact;-inkscape-font-specification:Impact;stroke-width:0.289388" id="path40197" />
        <path d="m 18.506015,11.369054 0.53145,3.570195 H 18.08703 L 18.04072,14.29754 h -0.332983 l -0.05513,0.641709 h -0.961461 l 0.47191,-3.570195 z m -0.491756,2.295598 q -0.07057,-0.606426 -0.141132,-1.497321 -0.141132,1.023206 -0.176415,1.497321 z" style="font-family:Impact;-inkscape-font-specification:Impact;stroke-width:0.289388" id="path40199" />
        <path d="m 20.817049,11.369054 v 0.71448 h -0.551296 v 2.855715 h -0.928384 v -2.855715 h -0.549091 v -0.71448 z" style="font-family:Impact;-inkscape-font-specification:Impact;stroke-width:0.289388" id="path40201" />
        <path d="m 21.95713,11.369054 v 3.570195 h -0.928383 v -3.570195 z" style="font-family:Impact;-inkscape-font-specification:Impact;stroke-width:0.289388" id="path40203" />
        <path d="m 24.534992,11.369054 -0.471909,3.570195 h -1.409114 l -0.53586,-3.570195 h 0.979102 q 0.1698,1.475269 0.242571,2.494064 0.07277,-1.029821 0.152158,-1.830304 l 0.06395,-0.66376 z" style="font-family:Impact;-inkscape-font-specification:Impact;stroke-width:0.289388" id="path40205" />
        <path d="m 24.693765,11.369054 h 1.548041 v 0.71448 h -0.619658 v 0.676992 h 0.579964 v 0.679197 h -0.579964 v 0.785046 h 0.681403 v 0.71448 h -1.609786 z" style="font-family:Impact;-inkscape-font-specification:Impact;stroke-width:0.289388" id="path40207" />
        <path d="M 27.377477,12.517955 27.260602,11.91594 v -0.546886 h 0.674787 v 0.546886 l -0.101439,0.602015 z m 0.835765,0 -0.116875,-0.602015 v -0.546886 h 0.674787 v 0.546886 l -0.103644,0.602015 z" style="font-family:Impact;-inkscape-font-specification:Impact;stroke-width:0.289388" id="path40209" />
      </g>
      <path id="path26459" style="display:inline;opacity:1;fill:#28a745;stroke:none;stroke-width:5.46876;stroke-linejoin:round" inkscape:transform-center-x="-0.036286057" inkscape:transform-center-y="3.8895561" d="M 38.923828,-1.3007812 65.279297,40.869141 h 5.806641 L 47.5,3.1347656 H 101.25 155 l -26.875,42.9980464 -26.875,43 -14.675781,-23.480468 h -5.804688 l 20.654299,33.046875 31.25,-50 31.25,-50.0000002 h -62.5 z" transform="matrix(0.26458334,0,0,0.26458334,-1.5936073,-0.13222468)" />
      <path id="path31301" style="display:inline;opacity:1;fill:#28a745;stroke:none;stroke-width:5.46876;stroke-linejoin:round" inkscape:transform-center-x="-0.036286505" inkscape:transform-center-y="-3.8895564" d="m 51.423828,-61.300781 -31.25,50 -31.25,50 h 62.5 62.500002 L 85.769531,-6.3476562 H 79.617188 L 105,34.263672 H 51.25 -2.5 l 26.875,-42.998047 26.875,-43 12.876953,20.603516 h 6.152344 z" transform="matrix(0.26458334,0,0,0.26458334,-1.5936073,-0.13222468)" />
    </g>
    <text xml:space="preserve" style="font-style:normal;font-weight:normal;font-size:4.51622px;line-height:1.25;font-family:sans-serif;letter-spacing:-0.141133px;display:none;fill:#ffffff;fill-opacity:1;stroke:none;stroke-width:0.264583" x="21.260353" y="54.124828" id="text31385" transform="scale(0.93736007,1.0668259)"><tspan sodipodi:role="line" id="tspan31383" style="font-style:normal;font-variant:normal;font-weight:normal;font-stretch:normal;font-size:4.51622px;font-family:IMPACT;-inkscape-font-specification:IMPACT;fill:#ffffff;fill-opacity:1;stroke-width:0.264583" x="0" y="0">&quot; DO WHAT YOU LOVE</tspan></text>
    <text xml:space="preserve" style="font-style:normal;font-weight:normal;font-size:4.51622px;line-height:1.25;font-family:sans-serif;letter-spacing:-0.141132px;display:none;fill:#ffffff;fill-opacity:1;stroke:none;stroke-width:0.264583" x="-1.8853359" y="59.581085" id="text31389" transform="scale(0.93736077,1.0668251)"><tspan sodipodi:role="line" id="tspan31387" style="font-style:normal;font-variant:normal;font-weight:normal;font-stretch:normal;font-size:4.51622px;font-family:IMPACT;-inkscape-font-specification:IMPACT;fill:#ffffff;fill-opacity:1;stroke-width:0.264583" x="0" y="0">LOVE WHAT YOU DO &quot;</tspan></text>
    <path id="path31391" style="display:none;opacity:1;fill:#d56a11;stroke:none;stroke-width:1.32292;stroke-linejoin:round" inkscape:transform-center-x="-0.036286505" inkscape:transform-center-y="4.2105964" d="m 8.7049891,47.148641 8.2682289,14.32109 8.26823,14.321088 8.26823,-14.321088 8.268229,-14.32109 H 25.241448 Z m 2.2691119,1.270206 H 25.195456 39.41681 L 32.306133,60.734892 25.195456,73.050936 18.084779,60.734892 Z" />
    <path id="path31393" style="display:none;opacity:1;fill:#d56a11;stroke:none;stroke-width:1.32292;stroke-linejoin:round" inkscape:transform-center-x="-0.036286505" inkscape:transform-center-y="-4.2105964" d="m 8.7049891,70.499149 8.2682289,-14.321089 8.26823,-14.321089 8.26823,14.321089 8.268229,14.321089 H 25.241448 Z M 10.974101,69.228942 H 25.195456 39.41681 L 32.306133,56.912899 25.195456,44.596854 18.084778,56.912899 Z" />
    <g id="g31431" style="display:none">
      <text xml:space="preserve" style="font-style:normal;font-weight:normal;font-size:4.51622px;line-height:1.25;font-family:sans-serif;letter-spacing:-0.141133px;fill:#ffffff;fill-opacity:1;stroke:none;stroke-width:0.264583" x="21.260353" y="9.4830256" id="text31397" transform="scale(0.93736008,1.0668259)"><tspan sodipodi:role="line" id="tspan31395" style="font-style:normal;font-variant:normal;font-weight:normal;font-stretch:normal;font-size:4.51622px;font-family:IMPACT;-inkscape-font-specification:IMPACT;fill:#ffffff;fill-opacity:1;stroke-width:0.264583" x="21.260353" y="9.4830256">&quot; DO WHAT YOU LOVE</tspan></text>
      <text xml:space="preserve" style="font-style:normal;font-weight:normal;font-size:4.51622px;line-height:1.25;font-family:sans-serif;letter-spacing:-0.141132px;fill:#ffffff;fill-opacity:1;stroke:none;stroke-width:0.264583" x="-1.8853359" y="14.939249" id="text31401" transform="scale(0.93736073,1.0668251)"><tspan sodipodi:role="line" id="tspan31399" style="font-style:normal;font-variant:normal;font-weight:normal;font-stretch:normal;font-size:4.51622px;font-family:IMPACT;-inkscape-font-specification:IMPACT;fill:#ffffff;fill-opacity:1;stroke-width:0.264583" x="-1.8853359" y="14.939249">LOVE WHAT YOU DO &quot;</tspan></text>
      <path id="path31403" style="opacity:1;fill:#d56a11;stroke:none;stroke-width:5;stroke-linejoin:round" inkscape:transform-center-x="-0.036286505" inkscape:transform-center-y="4.2105964" d="m 38.923828,-1.3007812 31.25,54.1269532 31.250002,54.126948 31.25,-54.126948 31.25,-54.1269532 h -62.5 z M 47.5,3.5 H 101.25 155 L 128.125,50.048828 101.25,96.597656 74.375,50.048828 Z" transform="matrix(0.26458334,0,0,0.26458334,-1.5936073,-0.13222468)" />
      <path id="path31405" style="opacity:1;fill:#d56a11;stroke:none;stroke-width:1.32292;stroke-linejoin:round" inkscape:transform-center-x="-0.036286505" inkscape:transform-center-y="-4.2105964" d="M 8.7049891,22.874119 16.973218,8.5530293 25.241448,-5.7680598 33.509678,8.5530293 41.777907,22.874119 H 25.241448 Z M 10.974101,21.603912 H 25.195456 39.41681 L 32.306133,9.2878683 25.195456,-3.0281768 18.084778,9.2878683 Z" />
      <text xml:space="preserve" style="font-style:normal;font-weight:normal;font-size:4.51622px;line-height:1.25;font-family:sans-serif;letter-spacing:-0.141133px;fill:#ffffff;fill-opacity:1;stroke:none;stroke-width:0.264583" x="21.260353" y="29.323828" id="text31409" transform="scale(0.93736007,1.0668259)"><tspan sodipodi:role="line" id="tspan31407" style="font-style:normal;font-variant:normal;font-weight:normal;font-stretch:normal;font-size:4.51622px;font-family:IMPACT;-inkscape-font-specification:IMPACT;fill:#ffffff;fill-opacity:1;stroke-width:0.264583" x="21.260353" y="29.323828">&quot; DO WHAT YOU LOVE</tspan></text>
      <text xml:space="preserve" style="font-style:normal;font-weight:normal;font-size:4.51622px;line-height:1.25;font-family:sans-serif;letter-spacing:-0.141132px;fill:#ffffff;fill-opacity:1;stroke:none;stroke-width:0.264583" x="-1.8853359" y="34.780064" id="text31413" transform="scale(0.93736077,1.0668251)"><tspan sodipodi:role="line" id="tspan31411" style="font-style:normal;font-variant:normal;font-weight:normal;font-stretch:normal;font-size:4.51622px;font-family:IMPACT;-inkscape-font-specification:IMPACT;fill:#ffffff;fill-opacity:1;stroke-width:0.264583" x="-1.8853359" y="34.780064">LOVE WHAT YOU DO &quot;</tspan></text>
      <path id="path31415" style="opacity:1;fill:#d56a11;stroke:none;stroke-width:1.32292;stroke-linejoin:round" inkscape:transform-center-x="-0.036286505" inkscape:transform-center-y="4.2105964" d="m 8.7049891,20.690291 8.2682289,14.32109 8.26823,14.321088 8.26823,-14.321088 8.268229,-14.32109 H 25.241448 Z m 2.2691119,1.270206 H 25.195456 39.41681 L 32.306133,34.276542 25.195456,46.592586 18.084779,34.276542 Z" />
      <path id="path31417" style="opacity:1;fill:#d56a11;stroke:none;stroke-width:1.32292;stroke-linejoin:round" inkscape:transform-center-x="-0.036286505" inkscape:transform-center-y="-4.2105964" d="m 8.7049891,44.040799 8.2682289,-14.321089 8.26823,-14.321089 8.26823,14.321089 8.268229,14.321089 H 25.241448 Z M 10.974101,42.770592 H 25.195456 39.41681 L 32.306133,30.454549 25.195456,18.138504 18.084778,30.454549 Z" />
    </g>
  </g>
</svg>
