<?xml version="1.0" encoding="UTF-8" standalone="no"?>
<!-- Created with Inkscape (http://www.inkscape.org/) -->

<svg width="200" height="150" viewBox="0 0 52.916664 39.687504" version="1.1" id="svg5" inkscape:version="1.1.1 (3bf5ae0d25, 2021-09-20)" sodipodi:docname="instOne.svg" xmlns:inkscape="http://www.inkscape.org/namespaces/inkscape" xmlns:sodipodi="http://sodipodi.sourceforge.net/DTD/sodipodi-0.dtd" xmlns="http://www.w3.org/2000/svg" xmlns:svg="http://www.w3.org/2000/svg">
  <sodipodi:namedview id="namedview7" pagecolor="#505050" bordercolor="#ffffff" borderopacity="1" inkscape:pageshadow="0" inkscape:pageopacity="0" inkscape:pagecheckerboard="1" inkscape:document-units="px" showgrid="true" units="px" width="500mm" inkscape:snap-bbox="true" inkscape:snap-bbox-midpoints="true" inkscape:snap-bbox-edge-midpoints="true" inkscape:bbox-nodes="true" inkscape:snap-global="true" inkscape:snap-center="true" inkscape:snap-grids="false" inkscape:snap-page="true" showguides="false" fit-margin-top="0" fit-margin-left="0" fit-margin-right="0" fit-margin-bottom="0" inkscape:zoom="1.726111" inkscape:cx="95.30094" inkscape:cy="52.43" inkscape:window-width="1366" inkscape:window-height="715" inkscape:window-x="-8" inkscape:window-y="-8" inkscape:window-maximized="1" inkscape:current-layer="layer1">
    <inkscape:grid type="xygrid" id="grid824" units="px" spacingx="0.99999999" spacingy="0.99999999" empcolor="#ffa23f" empopacity="0.25098039" dotted="false" enabled="false" originx="1.5936071" originy="0.47638977" />
  </sodipodi:namedview>
  <defs id="defs2">
    <rect x="-19.697458" y="-66.623756" width="75.89315" height="84.003868" id="rect27628" />
  </defs>
  <g inkscape:label="Layer 1" inkscape:groupmode="layer" id="layer1" transform="translate(1.5936073,0.47638971)">
    <text xml:space="preserve" style="font-style:normal;font-weight:normal;font-size:4.51622px;line-height:1.25;font-family:sans-serif;letter-spacing:-0.141132px;display:none;fill:#ffffff;fill-opacity:1;stroke:none;stroke-width:0.264583" x="-1.8853359" y="49.660679" id="text24879" transform="scale(0.93736077,1.0668251)"><tspan sodipodi:role="line" id="tspan24877" style="font-style:normal;font-variant:normal;font-weight:normal;font-stretch:normal;font-size:4.51622px;font-family:IMPACT;-inkscape-font-specification:IMPACT;fill:#ffffff;fill-opacity:1;stroke-width:0.264583" x="0" y="0">LOVE WHAT YOU DO &quot;</tspan></text>
    <text xml:space="preserve" style="font-style:normal;font-weight:normal;font-size:4.51622px;line-height:1.25;font-family:sans-serif;letter-spacing:-0.141133px;display:none;fill:#ffffff;fill-opacity:1;stroke:none;stroke-width:0.264583" x="21.260353" y="44.204426" id="text24875" transform="scale(0.93736007,1.0668259)"><tspan sodipodi:role="line" id="tspan24873" style="font-style:normal;font-variant:normal;font-weight:normal;font-stretch:normal;font-size:4.51622px;font-family:IMPACT;-inkscape-font-specification:IMPACT;fill:#ffffff;fill-opacity:1;stroke-width:0.264583" x="0" y="0">&quot; DO WHAT YOU LOVE</tspan></text>
    <path sodipodi:type="star" style="display:none;fill:none;stroke:#d63384;stroke-width:6.99791;stroke-linejoin:round" id="path24867" inkscape:flatsided="false" sodipodi:sides="3" sodipodi:cx="68.396225" sodipodi:cy="60.377357" sodipodi:r1="92.925728" sodipodi:r2="46.462864" sodipodi:arg1="1.0471976" sodipodi:arg2="2.0943952" inkscape:rounded="0" inkscape:randomized="0" d="m 114.85908,140.8534 -69.694291,-40.23802 -69.694292,-40.238027 69.6943,-40.238018 69.694293,-40.238016 0,80.476043 z" transform="matrix(0,-0.18904436,-0.18904436,0,36.681705,59.284387)" inkscape:transform-center-x="-0.033383664" inkscape:transform-center-y="3.8737484" />
    <path sodipodi:type="star" style="display:none;fill:none;stroke:#d63384;stroke-width:6.99791;stroke-linejoin:round" id="path26377" inkscape:flatsided="false" sodipodi:sides="3" sodipodi:cx="68.396225" sodipodi:cy="60.377357" sodipodi:r1="92.925728" sodipodi:r2="46.462864" sodipodi:arg1="1.0471976" sodipodi:arg2="2.0943952" inkscape:rounded="0" inkscape:randomized="0" d="m 114.85908,140.8534 -69.694291,-40.23802 -69.694292,-40.238027 69.6943,-40.238018 69.694293,-40.238016 0,80.476043 z" transform="matrix(0,-0.18904436,-0.18904436,0,36.681705,59.284387)" inkscape:transform-center-x="-0.033383664" inkscape:transform-center-y="3.8737484" />
    <g id="g7113" transform="translate(0,5.5226611)">
      <g aria-label="&quot; DO WHAT YOU LOVE" transform="scale(0.93736008,1.0668259)" id="text8689" style="font-size:4.51622px;line-height:1.25;letter-spacing:-0.141133px;display:inline;fill:#ffffff;stroke-width:0.264583">
        <path d="M 21.456615,7.0617318 21.33974,6.4597161 v -0.546886 h 0.674787 v 0.546886 l -0.101439,0.6020157 z m 0.835765,0 -0.116875,-0.6020157 v -0.546886 h 0.674787 v 0.546886 l -0.103644,0.6020157 z" style="font-family:IMPACT;-inkscape-font-specification:IMPACT" id="path881" />
        <path d="m 23.62872,5.9128301 h 0.694634 q 0.672581,0 0.908536,0.061745 0.23816,0.061745 0.36165,0.202877 0.123491,0.1411319 0.154363,0.3153416 0.03087,0.1720045 0.03087,0.6791972 v 1.2503402 q 0,0.4807304 -0.04631,0.6439142 -0.0441,0.1609785 -0.156568,0.2535963 -0.112464,0.090413 -0.277853,0.1279008 -0.165389,0.035283 -0.498372,0.035283 h -1.17095 z m 0.928383,0.6108364 v 2.3485226 q 0.200672,0 0.246981,-0.079387 0.04631,-0.081592 0.04631,-0.438832 V 6.9669088 q 0,-0.2425704 -0.01544,-0.3109312 -0.01544,-0.068361 -0.07057,-0.099233 -0.05513,-0.033078 -0.207288,-0.033078 z" style="font-family:IMPACT;-inkscape-font-specification:IMPACT" id="path883" />
        <path d="m 28.105246,8.003346 q 0,0.5380653 -0.02646,0.7629942 -0.02426,0.2227238 -0.158774,0.4079594 -0.132311,0.1852356 -0.359445,0.2844689 -0.227134,0.099233 -0.529245,0.099233 -0.286674,0 -0.516013,-0.092618 Q 26.288173,9.3705611 26.149246,9.1831203 26.010319,8.9956795 25.983857,8.775161 25.957395,8.5546424 25.957395,8.003346 V 7.3925096 q 0,-0.5380653 0.02426,-0.760789 0.02646,-0.224929 0.158773,-0.4101645 0.134517,-0.1852356 0.361651,-0.284469 0.227134,-0.099233 0.529244,-0.099233 0.286675,0 0.513809,0.094823 0.229339,0.092618 0.368266,0.2800586 0.138926,0.1874408 0.165389,0.4079594 0.02646,0.2205185 0.02646,0.7718149 z M 27.176863,6.8301873 q 0,-0.249186 -0.02867,-0.3175467 -0.02646,-0.070566 -0.112464,-0.070566 -0.07277,0 -0.112465,0.057335 -0.03749,0.05513 -0.03749,0.3307779 v 1.6671203 q 0,0.3109312 0.02426,0.3837023 0.02646,0.072771 0.11908,0.072771 0.09482,0 0.121285,-0.083797 0.02646,-0.083797 0.02646,-0.3991386 z" style="font-family:IMPACT;-inkscape-font-specification:IMPACT" id="path885" />
        <path d="M 32.45828,5.9128301 32.045911,9.4830256 H 30.885983 Q 30.72721,8.6604913 30.605924,7.6130282 30.550795,8.0606808 30.347918,9.4830256 H 29.194606 L 28.780031,5.9128301 h 0.901921 l 0.09482,1.2459298 0.09703,1.2018262 q 0.05072,-0.9327935 0.255801,-2.447756 h 0.965872 q 0.01985,0.1565682 0.101438,1.1775691 l 0.101439,1.3561891 q 0.07718,-1.2944439 0.258006,-2.5337582 z" style="font-family:IMPACT;-inkscape-font-specification:IMPACT" id="path887" />
        <path d="M 34.637002,5.9128301 V 9.4830256 H 33.708619 V 7.9834993 H 33.430766 V 9.4830256 H 32.502383 V 5.9128301 h 0.928383 v 1.2768024 h 0.277853 V 5.9128301 Z" style="font-family:IMPACT;-inkscape-font-specification:IMPACT" id="path889" />
        <path d="m 36.471716,5.9128301 0.53145,3.5701955 h -0.950435 l -0.04631,-0.6417091 h -0.332983 l -0.05513,0.6417091 h -0.961461 l 0.47191,-3.5701955 z M 35.97996,8.2084283 q -0.07057,-0.6064261 -0.141132,-1.497321 -0.141132,1.0232061 -0.176415,1.497321 z" style="font-family:IMPACT;-inkscape-font-specification:IMPACT" id="path891" />
        <path d="M 38.641617,5.9128301 V 6.6273102 H 38.09032 V 9.4830256 H 37.161937 V 6.6273102 H 36.612846 V 5.9128301 Z" style="font-family:IMPACT;-inkscape-font-specification:IMPACT" id="path893" />
        <path d="M 41.345172,5.9128301 40.66818,8.1907868 V 9.4830256 H 39.808157 V 8.1907868 L 39.155423,5.9128301 h 0.853406 q 0.200672,1.0430528 0.224929,1.4047032 0.07718,-0.5711431 0.258007,-1.4047032 z" style="font-family:IMPACT;-inkscape-font-specification:IMPACT" id="path895" />
        <path d="m 43.484202,8.003346 q 0,0.5380653 -0.02646,0.7629942 -0.02426,0.2227238 -0.158773,0.4079594 -0.132312,0.1852356 -0.359446,0.2844689 -0.227134,0.099233 -0.529244,0.099233 -0.286674,0 -0.516014,-0.092618 Q 41.667129,9.3705611 41.528202,9.1831203 41.389276,8.9956795 41.362814,8.775161 41.336351,8.5546424 41.336351,8.003346 V 7.3925096 q 0,-0.5380653 0.02426,-0.760789 0.02646,-0.224929 0.158774,-0.4101645 0.134516,-0.1852356 0.36165,-0.284469 0.227134,-0.099233 0.529245,-0.099233 0.286674,0 0.513808,0.094823 0.229339,0.092618 0.368266,0.2800586 0.138927,0.1874408 0.165389,0.4079594 0.02646,0.2205185 0.02646,0.7718149 z M 42.555819,6.8301873 q 0,-0.249186 -0.02867,-0.3175467 -0.02646,-0.070566 -0.112465,-0.070566 -0.07277,0 -0.112464,0.057335 -0.03749,0.05513 -0.03749,0.3307779 v 1.6671203 q 0,0.3109312 0.02426,0.3837023 0.02646,0.072771 0.11908,0.072771 0.09482,0 0.121285,-0.083797 0.02646,-0.083797 0.02646,-0.3991386 z" style="font-family:IMPACT;-inkscape-font-specification:IMPACT" id="path897" />
        <path d="m 45.799646,5.9128301 v 2.3860108 q 0,0.4057541 -0.02646,0.5711431 -0.02646,0.1631837 -0.156568,0.3373934 -0.130106,0.1720044 -0.344009,0.262417 -0.211698,0.088208 -0.500577,0.088208 -0.319752,0 -0.564527,-0.1058489 Q 43.962726,9.346304 43.841441,9.1765048 43.720156,9.0067055 43.698104,8.8192647 43.676052,8.6296187 43.676052,8.0253979 V 5.9128301 h 0.928383 v 2.6770953 q 0,0.2337497 0.02426,0.2999052 0.02646,0.06395 0.103644,0.06395 0.08821,0 0.112464,-0.070566 0.02646,-0.072771 0.02646,-0.3395986 V 5.9128301 Z" style="font-family:IMPACT;-inkscape-font-specification:IMPACT" id="path899" />
        <path d="m 47.60128,5.9128301 v 2.8557153 h 0.564528 V 9.4830256 H 46.672897 V 5.9128301 Z" style="font-family:IMPACT;-inkscape-font-specification:IMPACT" id="path901" />
        <path d="m 50.30263,8.003346 q 0,0.5380653 -0.02646,0.7629942 -0.02426,0.2227238 -0.158773,0.4079594 -0.132312,0.1852356 -0.359446,0.2844689 -0.227134,0.099233 -0.529244,0.099233 -0.286674,0 -0.516014,-0.092618 Q 48.485557,9.3705611 48.346631,9.1831203 48.207704,8.9956795 48.181242,8.775161 48.154779,8.5546424 48.154779,8.003346 V 7.3925096 q 0,-0.5380653 0.02426,-0.760789 0.02646,-0.224929 0.158774,-0.4101645 0.134516,-0.1852356 0.36165,-0.284469 0.227134,-0.099233 0.529245,-0.099233 0.286674,0 0.513808,0.094823 0.229339,0.092618 0.368266,0.2800586 0.138927,0.1874408 0.165389,0.4079594 0.02646,0.2205185 0.02646,0.7718149 z M 49.374247,6.8301873 q 0,-0.249186 -0.02867,-0.3175467 -0.02646,-0.070566 -0.112465,-0.070566 -0.07277,0 -0.112464,0.057335 -0.03749,0.05513 -0.03749,0.3307779 v 1.6671203 q 0,0.3109312 0.02426,0.3837023 0.02646,0.072771 0.11908,0.072771 0.09482,0 0.121285,-0.083797 0.02646,-0.083797 0.02646,-0.3991386 z" style="font-family:IMPACT;-inkscape-font-specification:IMPACT" id="path903" />
        <path d="m 52.712897,5.9128301 -0.47191,3.5701955 h -1.409114 l -0.53586,-3.5701955 h 0.979103 q 0.169799,1.4752691 0.24257,2.4940649 0.07277,-1.0298217 0.152158,-1.8303041 l 0.06395,-0.6637608 z" style="font-family:IMPACT;-inkscape-font-specification:IMPACT" id="path905" />
        <path d="m 52.730537,5.9128301 h 1.54804 V 6.6273102 H 53.65892 v 0.676992 h 0.579964 V 7.9834993 H 53.65892 v 0.7850461 h 0.681403 v 0.7144802 h -1.609786 z" style="font-family:IMPACT;-inkscape-font-specification:IMPACT" id="path907" />
      </g>
      <g aria-label="LOVE WHAT YOU DO &quot;" transform="scale(0.93736073,1.0668251)" id="text20661" style="font-size:4.51622px;line-height:1.25;letter-spacing:-0.141132px;display:inline;fill:#ffffff;stroke-width:0.264583">
        <path d="m -0.7717172,11.369054 v 2.855715 h 0.56452751 v 0.71448 H -1.7001003 v -3.570195 z" style="font-family:IMPACT;-inkscape-font-specification:IMPACT" id="path834" />
        <path d="m 1.929635,13.45957 q 0,0.538065 -0.026462,0.762994 -0.024257,0.222723 -0.1587734,0.407959 -0.1323111,0.185236 -0.3594452,0.284469 -0.2271342,0.09923 -0.52924458,0.09923 -0.28667413,0 -0.51601343,-0.09262 -0.22713411,-0.09482 -0.36606081,-0.282264 -0.13892669,-0.187441 -0.16538892,-0.40796 -0.0264622,-0.220518 -0.0264622,-0.771814 v -0.610837 q 0,-0.538065 0.024257,-0.760789 0.0264622,-0.224929 0.15877336,-0.410164 0.13451632,-0.185236 0.36165044,-0.284469 0.22713411,-0.09923 0.52924454,-0.09923 0.2866741,0 0.5138083,0.09482 0.2293393,0.09262 0.368266,0.280059 0.1389266,0.187441 0.1653889,0.407959 0.026462,0.220519 0.026462,0.771815 z M 1.0012519,12.286411 q 0,-0.249186 -0.0286674,-0.317547 -0.0264622,-0.07057 -0.11246447,-0.07057 -0.0727711,0 -0.11246446,0.05734 -0.0374882,0.05513 -0.0374882,0.330778 v 1.66712 q 0,0.310931 0.024257,0.383702 0.0264622,0.07277 0.11908002,0.07277 0.094823,0 0.12128521,-0.0838 0.0264623,-0.0838 0.0264623,-0.399138 z" style="font-family:IMPACT;-inkscape-font-specification:IMPACT" id="path836" />
        <path d="M 4.3399027,11.369054 3.867993,14.939249 H 2.4588794 L 1.9230193,11.369054 h 0.9791024 q 0.1697993,1.475269 0.2425704,2.494064 0.072771,-1.029821 0.1521578,-1.830304 l 0.06395,-0.66376 z" style="font-family:IMPACT;-inkscape-font-specification:IMPACT" id="path838" />
        <path d="m 4.357544,11.369054 h 1.5480403 v 0.71448 H 5.2859272 v 0.676992 H 5.865891 v 0.679197 H 5.2859272 v 0.785046 h 0.6814023 v 0.71448 H 4.357544 Z" style="font-family:IMPACT;-inkscape-font-specification:IMPACT" id="path840" />
        <path d="M 10.240978,11.369054 9.8286087,14.939249 H 8.6686811 Q 8.5099078,14.116715 8.3886226,13.069252 8.3334929,13.516904 8.1306158,14.939249 H 6.9773038 L 6.5627289,11.369054 h 0.9019209 l 0.094823,1.245929 0.097028,1.201827 q 0.050719,-0.932794 0.2558016,-2.447756 h 0.9658713 q 0.019847,0.156568 0.1014385,1.177569 l 0.1014385,1.356189 q 0.077182,-1.294444 0.2580067,-2.533758 z" style="font-family:IMPACT;-inkscape-font-specification:IMPACT" id="path842" />
        <path d="m 12.419702,11.369054 v 3.570195 h -0.928383 v -1.499526 h -0.277853 v 1.499526 h -0.928384 v -3.570195 h 0.928384 v 1.276802 h 0.277853 v -1.276802 z" style="font-family:IMPACT;-inkscape-font-specification:IMPACT" id="path844" />
        <path d="m 14.254417,11.369054 0.531449,3.570195 h -0.950435 l -0.04631,-0.641709 h -0.332983 l -0.05513,0.641709 h -0.961461 l 0.47191,-3.570195 z m -0.491757,2.295598 q -0.07057,-0.606426 -0.141132,-1.497321 -0.141132,1.023206 -0.176415,1.497321 z" style="font-family:IMPACT;-inkscape-font-specification:IMPACT" id="path846" />
        <path d="m 16.424318,11.369054 v 0.71448 h -0.551296 v 2.855715 h -0.928383 v -2.855715 h -0.549091 v -0.71448 z" style="font-family:IMPACT;-inkscape-font-specification:IMPACT" id="path848" />
        <path d="m 19.127877,11.369054 -0.676992,2.277956 v 1.292239 H 17.590863 V 13.64701 l -0.652735,-2.277956 h 0.853407 q 0.200672,1.043052 0.224929,1.404703 0.07718,-0.571143 0.258006,-1.404703 z" style="font-family:IMPACT;-inkscape-font-specification:IMPACT" id="path850" />
        <path d="m 21.266906,13.45957 q 0,0.538065 -0.02646,0.762994 -0.02426,0.222723 -0.158773,0.407959 -0.132311,0.185236 -0.359445,0.284469 -0.227134,0.09923 -0.529245,0.09923 -0.286674,0 -0.516013,-0.09262 -0.227134,-0.09482 -0.366061,-0.282264 -0.138927,-0.187441 -0.165389,-0.40796 -0.02646,-0.220518 -0.02646,-0.771814 v -0.610837 q 0,-0.538065 0.02426,-0.760789 0.02646,-0.224929 0.158773,-0.410164 0.134516,-0.185236 0.361651,-0.284469 0.227134,-0.09923 0.529244,-0.09923 0.286674,0 0.513808,0.09482 0.22934,0.09262 0.368266,0.280059 0.138927,0.187441 0.165389,0.407959 0.02646,0.220519 0.02646,0.771815 z m -0.928384,-1.173159 q 0,-0.249186 -0.02867,-0.317547 -0.02646,-0.07057 -0.112465,-0.07057 -0.07277,0 -0.112464,0.05734 -0.03749,0.05513 -0.03749,0.330778 v 1.66712 q 0,0.310931 0.02426,0.383702 0.02646,0.07277 0.11908,0.07277 0.09482,0 0.121285,-0.0838 0.02646,-0.0838 0.02646,-0.399138 z" style="font-family:IMPACT;-inkscape-font-specification:IMPACT" id="path852" />
        <path d="m 23.582351,11.369054 v 2.38601 q 0,0.405755 -0.02646,0.571143 -0.02646,0.163184 -0.156569,0.337394 -0.130105,0.172004 -0.344008,0.262417 -0.211698,0.08821 -0.500578,0.08821 -0.319751,0 -0.564527,-0.105849 -0.244776,-0.105848 -0.366061,-0.275648 -0.121285,-0.169799 -0.143337,-0.35724 -0.02205,-0.189646 -0.02205,-0.793867 v -2.112567 h 0.928383 v 2.677095 q 0,0.23375 0.02426,0.299905 0.02646,0.06395 0.103644,0.06395 0.08821,0 0.112465,-0.07057 0.02646,-0.07277 0.02646,-0.339599 v -2.630786 z" style="font-family:IMPACT;-inkscape-font-specification:IMPACT" id="path854" />
        <path d="m 24.455604,11.369054 h 0.694634 q 0.672581,0 0.908536,0.06175 0.23816,0.06175 0.361651,0.202877 0.12349,0.141132 0.154363,0.315341 0.03087,0.172005 0.03087,0.679198 v 1.25034 q 0,0.48073 -0.04631,0.643914 -0.0441,0.160979 -0.156568,0.253596 -0.112464,0.09041 -0.277853,0.127901 -0.165389,0.03528 -0.498372,0.03528 h -1.170954 z m 0.928383,0.610836 v 2.348523 q 0.200672,0 0.246981,-0.07939 0.04631,-0.08159 0.04631,-0.438832 v -1.387062 q 0,-0.24257 -0.01544,-0.310931 -0.01544,-0.06836 -0.07057,-0.09923 -0.05513,-0.03308 -0.207288,-0.03308 z" style="font-family:IMPACT;-inkscape-font-specification:IMPACT" id="path856" />
        <path d="m 28.932131,13.45957 q 0,0.538065 -0.02646,0.762994 -0.02426,0.222723 -0.158773,0.407959 -0.132311,0.185236 -0.359445,0.284469 -0.227134,0.09923 -0.529245,0.09923 -0.286674,0 -0.516013,-0.09262 -0.227134,-0.09482 -0.366061,-0.282264 -0.138927,-0.187441 -0.165389,-0.40796 -0.02646,-0.220518 -0.02646,-0.771814 v -0.610837 q 0,-0.538065 0.02426,-0.760789 0.02646,-0.224929 0.158773,-0.410164 0.134516,-0.185236 0.361651,-0.284469 0.227134,-0.09923 0.529244,-0.09923 0.286674,0 0.513808,0.09482 0.22934,0.09262 0.368266,0.280059 0.138927,0.187441 0.165389,0.407959 0.02646,0.220519 0.02646,0.771815 z m -0.928383,-1.173159 q 0,-0.249186 -0.02867,-0.317547 -0.02646,-0.07057 -0.112465,-0.07057 -0.07277,0 -0.112464,0.05734 -0.03749,0.05513 -0.03749,0.330778 v 1.66712 q 0,0.310931 0.02426,0.383702 0.02646,0.07277 0.11908,0.07277 0.09482,0 0.121285,-0.0838 0.02646,-0.0838 0.02646,-0.399138 z" style="font-family:IMPACT;-inkscape-font-specification:IMPACT" id="path858" />
        <path d="M 29.80318,12.517955 29.686305,11.91594 v -0.546886 h 0.674787 v 0.546886 l -0.101439,0.602015 z m 0.835765,0 -0.116875,-0.602015 v -0.546886 h 0.674787 v 0.546886 l -0.103644,0.602015 z" style="font-family:IMPACT;-inkscape-font-specification:IMPACT" id="path860" />
      </g>
      <path id="path26459" style="opacity:1;fill:#d63384;stroke:none;stroke-width:5;stroke-linejoin:round" inkscape:transform-center-x="-0.036286505" inkscape:transform-center-y="4.2105964" d="m 38.923828,-1.3007812 24.50586,42.4472652 h 5.804687 L 47.5,3.5 H 101.25 155 l -8.92773,15.464844 h 6.15039 l 11.70117,-20.2656252 h -62.5 z M 131.76172,43.75 128.125,50.048828 101.25,96.597656 83.542969,65.929688 h -5.804688 l 23.685549,41.023432 31.25,-54.126948 5.24023,-9.076172 z" transform="matrix(0.26458334,0,0,0.26458334,-1.5936073,-0.13222468)" />
    </g>
  </g>
</svg>
