<?xml version="1.0" encoding="UTF-8" standalone="no"?>
<!-- Created with Inkscape (http://www.inkscape.org/) -->

<svg width="200" height="150" viewBox="0 0 52.916664 39.687503" version="1.1" id="svg5" inkscape:version="1.1.1 (3bf5ae0d25, 2021-09-20)" sodipodi:docname="instThree.svg" xmlns:inkscape="http://www.inkscape.org/namespaces/inkscape" xmlns:sodipodi="http://sodipodi.sourceforge.net/DTD/sodipodi-0.dtd" xmlns="http://www.w3.org/2000/svg" xmlns:svg="http://www.w3.org/2000/svg">
  <sodipodi:namedview id="namedview7" pagecolor="#505050" bordercolor="#ffffff" borderopacity="1" inkscape:pageshadow="0" inkscape:pageopacity="0" inkscape:pagecheckerboard="1" inkscape:document-units="px" showgrid="true" units="px" width="500mm" inkscape:snap-bbox="true" inkscape:snap-bbox-midpoints="true" inkscape:snap-bbox-edge-midpoints="true" inkscape:bbox-nodes="true" inkscape:snap-global="true" inkscape:snap-center="true" inkscape:snap-grids="false" inkscape:snap-page="true" showguides="false" fit-margin-top="0" fit-margin-left="0" fit-margin-right="0" fit-margin-bottom="0" inkscape:zoom="1.726111" inkscape:cx="90.086906" inkscape:cy="101.09431" inkscape:window-width="1366" inkscape:window-height="715" inkscape:window-x="-8" inkscape:window-y="-8" inkscape:window-maximized="1" inkscape:current-layer="layer1">
    <inkscape:grid type="xygrid" id="grid824" units="px" spacingx="0.99999999" spacingy="0.99999999" empcolor="#ffa23f" empopacity="0.25098039" dotted="false" enabled="false" originx="3.2059125" originy="-37.222978" />
  </sodipodi:namedview>
  <defs id="defs2" />
  <g inkscape:label="Layer 1" inkscape:groupmode="layer" id="layer1" transform="translate(3.2059132,-37.222977)">
    <rect style="display:none;opacity:1;fill:#d56a11;fill-opacity:1;stroke:none;stroke-width:1.32292;stroke-linejoin:round" id="rect26846" width="18.642632" height="6.5574369" x="56.228123" y="3.8018031" />
    <g id="g31431" style="display:none">
      <text xml:space="preserve" style="font-style:normal;font-weight:normal;font-size:4.51622px;line-height:1.25;font-family:sans-serif;letter-spacing:-0.141133px;fill:#ffffff;fill-opacity:1;stroke:none;stroke-width:0.264583" x="21.260353" y="9.4830256" id="text31397" transform="scale(0.93736008,1.0668259)"><tspan sodipodi:role="line" id="tspan31395" style="font-style:normal;font-variant:normal;font-weight:normal;font-stretch:normal;font-size:4.51622px;font-family:IMPACT;-inkscape-font-specification:IMPACT;fill:#ffffff;fill-opacity:1;stroke-width:0.264583" x="21.260353" y="9.4830256">&quot; DO WHAT YOU LOVE</tspan></text>
      <text xml:space="preserve" style="font-style:normal;font-weight:normal;font-size:4.51622px;line-height:1.25;font-family:sans-serif;letter-spacing:-0.141132px;fill:#ffffff;fill-opacity:1;stroke:none;stroke-width:0.264583" x="-1.8853359" y="14.939249" id="text31401" transform="scale(0.93736073,1.0668251)"><tspan sodipodi:role="line" id="tspan31399" style="font-style:normal;font-variant:normal;font-weight:normal;font-stretch:normal;font-size:4.51622px;font-family:IMPACT;-inkscape-font-specification:IMPACT;fill:#ffffff;fill-opacity:1;stroke-width:0.264583" x="-1.8853359" y="14.939249">LOVE WHAT YOU DO &quot;</tspan></text>
      <path id="path31403" style="opacity:1;fill:#d56a11;stroke:none;stroke-width:5;stroke-linejoin:round" inkscape:transform-center-x="-0.036286505" inkscape:transform-center-y="4.2105964" d="m 38.923828,-1.3007812 31.25,54.1269532 31.250002,54.126948 31.25,-54.126948 31.25,-54.1269532 h -62.5 z M 47.5,3.5 H 101.25 155 L 128.125,50.048828 101.25,96.597656 74.375,50.048828 Z" transform="matrix(0.26458334,0,0,0.26458334,-1.5936073,-0.13222468)" />
      <path id="path31405" style="opacity:1;fill:#d56a11;stroke:none;stroke-width:1.32292;stroke-linejoin:round" inkscape:transform-center-x="-0.036286505" inkscape:transform-center-y="-4.2105964" d="M 8.7049891,22.874119 16.973218,8.5530293 25.241448,-5.7680598 33.509678,8.5530293 41.777907,22.874119 H 25.241448 Z M 10.974101,21.603912 H 25.195456 39.41681 L 32.306133,9.2878683 25.195456,-3.0281768 18.084778,9.2878683 Z" />
      <text xml:space="preserve" style="font-style:normal;font-weight:normal;font-size:4.51622px;line-height:1.25;font-family:sans-serif;letter-spacing:-0.141133px;fill:#ffffff;fill-opacity:1;stroke:none;stroke-width:0.264583" x="21.260353" y="29.323828" id="text31409" transform="scale(0.93736007,1.0668259)"><tspan sodipodi:role="line" id="tspan31407" style="font-style:normal;font-variant:normal;font-weight:normal;font-stretch:normal;font-size:4.51622px;font-family:IMPACT;-inkscape-font-specification:IMPACT;fill:#ffffff;fill-opacity:1;stroke-width:0.264583" x="21.260353" y="29.323828">&quot; DO WHAT YOU LOVE</tspan></text>
      <text xml:space="preserve" style="font-style:normal;font-weight:normal;font-size:4.51622px;line-height:1.25;font-family:sans-serif;letter-spacing:-0.141132px;fill:#ffffff;fill-opacity:1;stroke:none;stroke-width:0.264583" x="-1.8853359" y="34.780064" id="text31413" transform="scale(0.93736077,1.0668251)"><tspan sodipodi:role="line" id="tspan31411" style="font-style:normal;font-variant:normal;font-weight:normal;font-stretch:normal;font-size:4.51622px;font-family:IMPACT;-inkscape-font-specification:IMPACT;fill:#ffffff;fill-opacity:1;stroke-width:0.264583" x="-1.8853359" y="34.780064">LOVE WHAT YOU DO &quot;</tspan></text>
      <path id="path31415" style="opacity:1;fill:#d56a11;stroke:none;stroke-width:1.32292;stroke-linejoin:round" inkscape:transform-center-x="-0.036286505" inkscape:transform-center-y="4.2105964" d="m 8.7049891,20.690291 8.2682289,14.32109 8.26823,14.321088 8.26823,-14.321088 8.268229,-14.32109 H 25.241448 Z m 2.2691119,1.270206 H 25.195456 39.41681 L 32.306133,34.276542 25.195456,46.592586 18.084779,34.276542 Z" />
      <path id="path31417" style="opacity:1;fill:#d56a11;stroke:none;stroke-width:1.32292;stroke-linejoin:round" inkscape:transform-center-x="-0.036286505" inkscape:transform-center-y="-4.2105964" d="m 8.7049891,44.040799 8.2682289,-14.321089 8.26823,-14.321089 8.26823,14.321089 8.268229,14.321089 H 25.241448 Z M 10.974101,42.770592 H 25.195456 39.41681 L 32.306133,30.454549 25.195456,18.138504 18.084778,30.454549 Z" />
    </g>
    <g id="g985" transform="matrix(0.62997051,0,0,0.62997051,-0.53008528,16.84251)" style="stroke-width:1.58737">
      <g aria-label="&quot; TAKE ONE STEP UP" transform="scale(0.93736007,1.0668259)" id="text31385" style="font-size:4.51622px;line-height:1.25;letter-spacing:0px;display:inline;fill:#ffffff;stroke-width:0.419993">
        <path d="m 49.683066,49.719461 -0.116874,-0.602016 v -0.546886 h 0.674786 v 0.546886 l -0.101438,0.602016 z m 0.835766,0 -0.116875,-0.602016 v -0.546886 h 0.674787 v 0.546886 L 50.9731,49.719461 Z" style="font-family:IMPACT;-inkscape-font-specification:IMPACT;stroke-width:0.419993" id="path39455" />
        <path d="m 54.007435,48.570559 v 0.71448 h -0.551296 v 2.855716 h -0.928383 v -2.855716 h -0.549091 v -0.71448 z" style="font-family:IMPACT;-inkscape-font-specification:IMPACT;stroke-width:0.419993" id="path39457" />
        <path d="m 55.641478,48.570559 0.531449,3.570196 h -0.950435 l -0.04631,-0.641709 H 54.8432 l -0.05513,0.641709 h -0.96146 l 0.47191,-3.570196 z m -0.491757,2.295598 q -0.07057,-0.606426 -0.141132,-1.497321 -0.141131,1.023207 -0.176414,1.497321 z" style="font-family:IMPACT;-inkscape-font-specification:IMPACT;stroke-width:0.419993" id="path39459" />
        <path d="m 58.543502,48.570559 -0.53145,1.611991 0.582169,1.958205 h -0.959255 l -0.374882,-1.530399 v 1.530399 h -0.928383 v -3.570196 h 0.928383 v 1.387062 l 0.41237,-1.387062 z" style="font-family:IMPACT;-inkscape-font-specification:IMPACT;stroke-width:0.419993" id="path39461" />
        <path d="m 58.7552,48.570559 h 1.54804 v 0.71448 h -0.619657 v 0.676992 h 0.579964 v 0.679197 h -0.579964 v 0.785047 h 0.681402 v 0.71448 H 58.7552 Z" style="font-family:IMPACT;-inkscape-font-specification:IMPACT;stroke-width:0.419993" id="path39463" />
        <path d="m 63.549273,50.661075 q 0,0.538065 -0.02646,0.762994 -0.02426,0.222724 -0.158773,0.40796 -0.132312,0.185235 -0.359446,0.284469 -0.227134,0.09923 -0.529244,0.09923 -0.286674,0 -0.516014,-0.09262 -0.227134,-0.09482 -0.36606,-0.282264 -0.138927,-0.18744 -0.165389,-0.407959 -0.02646,-0.220518 -0.02646,-0.771815 v -0.610836 q 0,-0.538066 0.02426,-0.760789 0.02646,-0.224929 0.158774,-0.410165 0.134516,-0.185235 0.36165,-0.284469 0.227134,-0.09923 0.529245,-0.09923 0.286674,0 0.513808,0.09482 0.229339,0.09262 0.368266,0.280058 0.138927,0.187441 0.165389,0.40796 0.02646,0.220518 0.02646,0.771815 z M 62.62089,49.487916 q 0,-0.249186 -0.02867,-0.317546 -0.02646,-0.07057 -0.112465,-0.07057 -0.07277,0 -0.112464,0.05734 -0.03749,0.05513 -0.03749,0.330777 v 1.667121 q 0,0.310931 0.02426,0.383702 0.02646,0.07277 0.11908,0.07277 0.09482,0 0.121285,-0.0838 0.02646,-0.0838 0.02646,-0.399138 z" style="font-family:IMPACT;-inkscape-font-specification:IMPACT;stroke-width:0.419993" id="path39465" />
        <path d="m 65.968362,48.570559 v 3.570196 h -0.813714 l -0.482935,-1.623017 v 1.623017 h -0.776226 v -3.570196 h 0.776226 l 0.520424,1.607581 v -1.607581 z" style="font-family:IMPACT;-inkscape-font-specification:IMPACT;stroke-width:0.419993" id="path39467" />
        <path d="m 66.341039,48.570559 h 1.548041 v 0.71448 h -0.619658 v 0.676992 h 0.579964 v 0.679197 h -0.579964 v 0.785047 h 0.681403 v 0.71448 h -1.609786 z" style="font-family:IMPACT;-inkscape-font-specification:IMPACT;stroke-width:0.419993" id="path39469" />
        <path d="m 70.980749,49.6511 h -0.862228 v -0.264622 q 0,-0.185236 -0.03308,-0.235955 -0.03308,-0.05072 -0.110259,-0.05072 -0.0838,0 -0.127901,0.06836 -0.0419,0.06836 -0.0419,0.207287 0,0.17862 0.04851,0.269033 0.04631,0.09041 0.262417,0.218313 0.619657,0.368266 0.780635,0.604221 0.160979,0.235955 0.160979,0.760789 0,0.381497 -0.09041,0.562322 -0.08821,0.180825 -0.344009,0.304316 -0.255801,0.121285 -0.5954,0.121285 -0.372676,0 -0.637298,-0.141132 -0.262417,-0.141132 -0.344009,-0.359445 -0.08159,-0.218313 -0.08159,-0.619657 v -0.23375 h 0.862227 v 0.434422 q 0,0.200672 0.03528,0.258006 0.03749,0.05734 0.130106,0.05734 0.09262,0 0.136722,-0.07277 0.04631,-0.07277 0.04631,-0.216108 0,-0.315342 -0.086,-0.41237 -0.08821,-0.09703 -0.434422,-0.324162 -0.346214,-0.229339 -0.458679,-0.332983 -0.112464,-0.103644 -0.18744,-0.286674 -0.07277,-0.183031 -0.07277,-0.4675 0,-0.410164 0.103644,-0.59981 0.105849,-0.189646 0.339599,-0.295495 0.233749,-0.108054 0.564527,-0.108054 0.361651,0 0.615247,0.116875 0.255802,0.116875 0.337393,0.295495 0.0838,0.176414 0.0838,0.602015 z" style="font-family:IMPACT;-inkscape-font-specification:IMPACT;stroke-width:0.419993" id="path39471" />
        <path d="m 73.219013,48.570559 v 0.71448 h -0.551296 v 2.855716 h -0.928383 v -2.855716 h -0.549092 v -0.71448 z" style="font-family:IMPACT;-inkscape-font-specification:IMPACT;stroke-width:0.419993" id="path39473" />
        <path d="m 73.430709,48.570559 h 1.548041 v 0.71448 h -0.619657 v 0.676992 h 0.579963 v 0.679197 h -0.579963 v 0.785047 h 0.681402 v 0.71448 h -1.609786 z" style="font-family:IMPACT;-inkscape-font-specification:IMPACT;stroke-width:0.419993" id="path39475" />
        <path d="m 75.307323,48.570559 h 0.934999 q 0.379292,0 0.582169,0.05954 0.205082,0.05954 0.306521,0.172005 0.103643,0.112464 0.138926,0.273443 0.03749,0.158773 0.03749,0.493961 v 0.310931 q 0,0.341804 -0.07057,0.498372 -0.07056,0.156569 -0.260211,0.240366 -0.187441,0.0838 -0.491757,0.0838 h -0.249186 v 1.437781 h -0.928383 z m 0.928383,0.610837 v 0.908536 q 0.03969,0.0022 0.06836,0.0022 0.127901,0 0.176415,-0.06175 0.05072,-0.06395 0.05072,-0.262417 v -0.29329 q 0,-0.18303 -0.05733,-0.23816 -0.05733,-0.05513 -0.23816,-0.05513 z" style="font-family:IMPACT;-inkscape-font-specification:IMPACT;stroke-width:0.419993" id="path39477" />
        <path d="m 80.480689,48.570559 v 2.386011 q 0,0.405754 -0.02646,0.571143 -0.02646,0.163184 -0.156568,0.337394 -0.130106,0.172004 -0.344009,0.262417 -0.211698,0.08821 -0.500577,0.08821 -0.319752,0 -0.564528,-0.105849 -0.244775,-0.105849 -0.366061,-0.275648 -0.121285,-0.169799 -0.143337,-0.35724 -0.02205,-0.189646 -0.02205,-0.793867 v -2.112568 h 0.928384 v 2.677096 q 0,0.233749 0.02426,0.299905 0.02646,0.06395 0.103643,0.06395 0.08821,0 0.112465,-0.07057 0.02646,-0.07277 0.02646,-0.339598 v -2.630787 z" style="font-family:IMPACT;-inkscape-font-specification:IMPACT;stroke-width:0.419993" id="path39479" />
        <path d="m 80.840133,48.570559 h 0.934999 q 0.379292,0 0.582169,0.05954 0.205082,0.05954 0.306521,0.172005 0.103643,0.112464 0.138926,0.273443 0.03749,0.158773 0.03749,0.493961 v 0.310931 q 0,0.341804 -0.07057,0.498372 -0.07057,0.156569 -0.260212,0.240366 -0.187441,0.0838 -0.491757,0.0838 h -0.249186 v 1.437781 H 80.84013 Z m 0.928383,0.610837 v 0.908536 q 0.03969,0.0022 0.06836,0.0022 0.127901,0 0.176415,-0.06175 0.05072,-0.06395 0.05072,-0.262417 v -0.29329 q 0,-0.18303 -0.05733,-0.23816 -0.05733,-0.05513 -0.23816,-0.05513 z" style="font-family:IMPACT;-inkscape-font-specification:IMPACT;stroke-width:0.419993" id="path39481" />
      </g>
      <g aria-label="ONE STEP DOWN &quot;" transform="matrix(0.93736077,0,0,1.0668251,1.058334,0)" id="text31389" style="font-size:4.51622px;line-height:1.25;letter-spacing:0px;display:inline;fill:#ffffff;stroke-width:0.419993">
        <path d="m -1.2722979,76.454143 q 0,0.538065 -0.026462,0.762994 -0.024257,0.222724 -0.1587734,0.40796 -0.1323111,0.185235 -0.3594452,0.284469 -0.2271342,0.09923 -0.5292446,0.09923 -0.2866741,0 -0.5160134,-0.09262 -0.2271341,-0.09482 -0.3660608,-0.282264 -0.1389267,-0.18744 -0.1653889,-0.407959 -0.026462,-0.220519 -0.026462,-0.771815 v -0.610836 q 0,-0.538066 0.024257,-0.760789 0.026462,-0.224929 0.1587733,-0.410165 0.1345164,-0.185235 0.3616505,-0.284469 0.2271341,-0.09923 0.5292445,-0.09923 0.2866741,0 0.5138083,0.09482 0.2293393,0.09262 0.3682659,0.280058 0.1389267,0.187441 0.165389,0.40796 0.026462,0.220518 0.026462,0.771815 z M -2.200681,75.280984 q 0,-0.249186 -0.028668,-0.317546 -0.026462,-0.07057 -0.1124644,-0.07057 -0.072771,0 -0.1124645,0.05734 -0.037488,0.05513 -0.037488,0.330777 v 1.667121 q 0,0.310931 0.024257,0.383702 0.026462,0.07277 0.11908,0.07277 0.094823,0 0.1212852,-0.0838 0.026462,-0.0838 0.026462,-0.399139 z" style="font-family:IMPACT;-inkscape-font-specification:IMPACT;stroke-width:0.419993" id="path39521" />
        <path d="m 1.1467907,74.363627 v 3.570196 H 0.33307726 l -0.48293565,-1.623017 v 1.623017 h -0.77622532 v -3.570196 h 0.77622532 l 0.5204238,1.60758 v -1.60758 z" style="font-family:IMPACT;-inkscape-font-specification:IMPACT;stroke-width:0.419993" id="path39523" />
        <path d="m 1.5194672,74.363627 h 1.5480403 v 0.71448 H 2.4478503 v 0.676992 h 0.5799638 v 0.679197 H 2.4478503 v 0.785046 h 0.6814024 v 0.714481 H 1.5194672 Z" style="font-family:IMPACT;-inkscape-font-specification:IMPACT;stroke-width:0.419993" id="path39525" />
        <path d="M 6.1591774,75.444168 H 5.2969499 v -0.264622 q 0,-0.185236 -0.033078,-0.235955 -0.033078,-0.05072 -0.1102593,-0.05072 -0.083797,0 -0.1279008,0.06836 -0.041899,0.06836 -0.041899,0.207288 0,0.17862 0.048514,0.269033 0.046309,0.09041 0.2624171,0.218313 0.6196571,0.368266 0.7806357,0.604221 0.1609785,0.235955 0.1609785,0.760789 0,0.381497 -0.090413,0.562322 -0.088207,0.180825 -0.3440089,0.304316 -0.2558016,0.121285 -0.5954002,0.121285 -0.3726763,0 -0.6372986,-0.141132 -0.2624171,-0.141132 -0.3440089,-0.359445 -0.081592,-0.218314 -0.081592,-0.619657 v -0.23375 h 0.8622276 v 0.434422 q 0,0.200671 0.035283,0.258006 0.037488,0.05733 0.130106,0.05733 0.092618,0 0.1367215,-0.07277 0.046309,-0.07277 0.046309,-0.216108 0,-0.315342 -0.086002,-0.41237 Q 5.180075,76.606301 4.8338609,76.379167 4.4876467,76.149827 4.3751823,76.046184 4.2627178,75.94254 4.1877415,75.75951 q -0.072771,-0.183031 -0.072771,-0.4675 0,-0.410164 0.1036437,-0.59981 0.1058489,-0.189646 0.3395986,-0.295495 0.2337497,-0.108054 0.5645275,-0.108054 0.3616504,0 0.6152468,0.116875 0.2558015,0.116875 0.3373934,0.295495 0.083797,0.176414 0.083797,0.602015 z" style="font-family:IMPACT;-inkscape-font-specification:IMPACT;stroke-width:0.419993" id="path39527" />
        <path d="m 8.3974411,74.363627 v 0.71448 H 7.8461447 v 2.855716 H 6.9177616 V 75.078107 H 6.3686704 v -0.71448 z" style="font-family:IMPACT;-inkscape-font-specification:IMPACT;stroke-width:0.419993" id="path39529" />
        <path d="m 8.6091383,74.363627 h 1.5480407 v 0.71448 H 9.5375215 v 0.676992 h 0.5799635 v 0.679197 H 9.5375215 v 0.785046 h 0.6814025 v 0.714481 H 8.6091383 Z" style="font-family:IMPACT;-inkscape-font-specification:IMPACT;stroke-width:0.419993" id="path39531" />
        <path d="m 10.485752,74.363627 h 0.934999 q 0.379292,0 0.582169,0.05954 0.205082,0.05954 0.30652,0.172005 0.103644,0.112464 0.138927,0.273443 0.03749,0.158773 0.03749,0.493961 v 0.310931 q 0,0.341804 -0.07057,0.498372 -0.07057,0.156569 -0.260212,0.240366 -0.18744,0.0838 -0.491756,0.0838 h -0.249186 v 1.437781 H 10.48575 Z m 0.928383,0.610837 V 75.883 q 0.03969,0.0022 0.06836,0.0022 0.127901,0 0.176415,-0.06175 0.05072,-0.06395 0.05072,-0.262417 v -0.29329 q 0,-0.18303 -0.05734,-0.23816 -0.05734,-0.05513 -0.23816,-0.05513 z" style="font-family:IMPACT;-inkscape-font-specification:IMPACT;stroke-width:0.419993" id="path39533" />
        <path d="m 13.548754,74.363627 h 0.694633 q 0.672582,0 0.908537,0.06175 0.23816,0.06175 0.36165,0.202877 0.12349,0.141132 0.154363,0.315342 0.03087,0.172004 0.03087,0.679197 v 1.25034 q 0,0.480731 -0.04631,0.643915 -0.0441,0.160978 -0.156569,0.253596 -0.112464,0.09041 -0.277853,0.127901 -0.165389,0.03528 -0.498372,0.03528 H 13.54875 Z m 0.928383,0.610837 v 2.348522 q 0.200672,0 0.246981,-0.07939 0.04631,-0.08159 0.04631,-0.438832 v -1.387062 q 0,-0.242571 -0.01544,-0.310931 -0.01544,-0.06836 -0.07057,-0.09923 -0.05513,-0.03308 -0.207287,-0.03308 z" style="font-family:IMPACT;-inkscape-font-specification:IMPACT;stroke-width:0.419993" id="path39535" />
        <path d="m 18.166413,76.454143 q 0,0.538065 -0.02646,0.762994 -0.02426,0.222724 -0.158773,0.40796 -0.132311,0.185235 -0.359446,0.284469 -0.227134,0.09923 -0.529244,0.09923 -0.286674,0 -0.516014,-0.09262 -0.227134,-0.09482 -0.36606,-0.282264 -0.138927,-0.18744 -0.165389,-0.407959 -0.02646,-0.220519 -0.02646,-0.771815 v -0.610836 q 0,-0.538066 0.02426,-0.760789 0.02646,-0.224929 0.158773,-0.410165 0.134516,-0.185235 0.36165,-0.284469 0.227134,-0.09923 0.529245,-0.09923 0.286674,0 0.513808,0.09482 0.229339,0.09262 0.368266,0.280058 0.138927,0.187441 0.165389,0.40796 0.02646,0.220518 0.02646,0.771815 z M 17.23803,75.280984 q 0,-0.249186 -0.02867,-0.317546 -0.02646,-0.07057 -0.112465,-0.07057 -0.07277,0 -0.112464,0.05734 -0.03749,0.05513 -0.03749,0.330777 v 1.667121 q 0,0.310931 0.02426,0.383702 0.02646,0.07277 0.11908,0.07277 0.09482,0 0.121285,-0.0838 0.02646,-0.0838 0.02646,-0.399139 z" style="font-family:IMPACT;-inkscape-font-specification:IMPACT;stroke-width:0.419993" id="path39537" />
        <path d="m 22.005642,74.363627 -0.412369,3.570196 h -1.159928 q -0.158773,-0.822535 -0.280059,-1.869998 -0.05513,0.447653 -0.258006,1.869998 h -1.153312 l -0.414575,-3.570196 h 0.901921 l 0.09482,1.24593 0.09703,1.201826 q 0.05072,-0.932793 0.255801,-2.447756 h 0.965872 q 0.01985,0.156568 0.101438,1.177569 l 0.101439,1.356189 q 0.07718,-1.294444 0.258006,-2.533758 z" style="font-family:IMPACT;-inkscape-font-specification:IMPACT;stroke-width:0.419993" id="path39539" />
        <path d="m 24.263752,74.363627 v 3.570196 h -0.813713 l -0.482936,-1.623017 v 1.623017 h -0.776225 v -3.570196 h 0.776225 l 0.520424,1.60758 v -1.60758 z" style="font-family:IMPACT;-inkscape-font-specification:IMPACT;stroke-width:0.419993" id="path39541" />
        <path d="m 25.443527,75.512529 -0.116875,-0.602016 v -0.546886 h 0.674787 v 0.546886 L 25.9,75.512529 Z m 0.835765,0 -0.116875,-0.602016 v -0.546886 h 0.674787 v 0.546886 l -0.103644,0.602016 z" style="font-family:IMPACT;-inkscape-font-specification:IMPACT;stroke-width:0.419993" id="path39543" />
      </g>
      <path id="path31391" style="display:inline;opacity:1;fill:#ff3838;fill-opacity:1;stroke:none;stroke-width:2.09997;stroke-linejoin:round" inkscape:transform-center-x="-0.036286505" inkscape:transform-center-y="4.2105964" d="m 9.7633231,47.148641 8.2682289,14.32109 8.26823,14.321088 8.26823,-14.321088 8.268229,-14.32109 H 26.299782 Z m 2.2691119,1.270206 H 26.25379 40.475144 L 33.364467,60.734892 26.25379,73.050936 19.143113,60.734892 Z" />
      <path id="path31393" style="display:inline;opacity:1;fill:#ff3838;fill-opacity:1;stroke:none;stroke-width:2.09997;stroke-linejoin:round" inkscape:transform-center-x="-0.036286505" inkscape:transform-center-y="-4.2105964" d="m 21.008115,63.552779 -8.268229,14.321089 -0.0067,0.01138 h 1.535824 l 6.693131,-11.592574 7.110677,12.316045 7.110677,12.316043 H 20.962123 6.7407688 L 10.483176,84.442467 H 8.9473523 L 4.4716563,92.19496 H 21.008115 37.544574 l -8.26823,-14.321092 z" />
      <path id="path33941" style="display:inline;opacity:1;fill:#ff3838;fill-opacity:1;stroke:none;stroke-width:2.09997;stroke-linejoin:round" inkscape:transform-center-x="-0.036286505" inkscape:transform-center-y="-4.2105964" d="m 47.995616,35.506945 -8.26823,14.321089 -8.268229,14.321092 H 47.995616 64.532074 L 60.335947,56.880834 H 58.70814 l 3.462838,5.998083 H 47.949623 33.728269 l 7.110677,-12.316043 7.110677,-12.316045 6.972703,12.076783 h 1.627806 l -0.286287,-0.495578 z" />
    </g>
    <path id="path33943" style="display:none;opacity:1;fill:#d56a11;stroke:none;stroke-width:1.32292;stroke-linejoin:round" inkscape:transform-center-x="-0.036286505" inkscape:transform-center-y="-4.2105964" d="M -12.990848,64.149145 -4.7226193,49.828056 3.5456109,35.506967 11.813842,49.828056 20.082071,64.149145 H 3.5456109 Z m 2.269112,-1.270207 H 3.4996189 17.720974 L 10.610297,50.562895 3.4996189,38.24685 -3.6110593,50.562895 Z" />
    <text xml:space="preserve" style="font-style:normal;font-weight:normal;font-size:4.51622px;line-height:1.25;font-family:sans-serif;letter-spacing:-0.141133px;display:none;fill:#ffffff;fill-opacity:1;stroke:none;stroke-width:0.264583" x="-23.901974" y="51.148712" id="text33947" transform="scale(0.93736007,1.0668259)"><tspan sodipodi:role="line" id="tspan33945" style="font-style:normal;font-variant:normal;font-weight:normal;font-stretch:normal;font-size:4.51622px;font-family:IMPACT;-inkscape-font-specification:IMPACT;fill:#ffffff;fill-opacity:1;stroke-width:0.264583" x="0" y="0">&quot; DO WHAT YOU LOVE</tspan></text>
    <text xml:space="preserve" style="font-style:normal;font-weight:normal;font-size:4.51622px;line-height:1.25;font-family:sans-serif;letter-spacing:-0.141132px;display:none;fill:#ffffff;fill-opacity:1;stroke:none;stroke-width:0.264583" x="38.196198" y="71.485565" id="text33951" transform="scale(0.93736077,1.0668251)"><tspan sodipodi:role="line" id="tspan33949" style="font-style:normal;font-variant:normal;font-weight:normal;font-stretch:normal;font-size:4.51622px;font-family:IMPACT;-inkscape-font-specification:IMPACT;fill:#ffffff;fill-opacity:1;stroke-width:0.264583" x="0" y="0">LOVE WHAT YOU DO &quot;</tspan></text>
  </g>
</svg>
