<?xml version="1.0" encoding="UTF-8" standalone="no"?>
<!-- Created with Inkscape (http://www.inkscape.org/) -->

<svg viewBox="0 0 132.29166 105.83334" version="1.1" id="svg5" inkscape:version="1.1.1 (3bf5ae0d25, 2021-09-20)" sodipodi:docname="000000final.svg" xmlns:inkscape="http://www.inkscape.org/namespaces/inkscape" xmlns:sodipodi="http://sodipodi.sourceforge.net/DTD/sodipodi-0.dtd" xmlns="http://www.w3.org/2000/svg" xmlns:svg="http://www.w3.org/2000/svg">
  <sodipodi:namedview id="namedview7" pagecolor="#505050" bordercolor="#ffffff" borderopacity="1" inkscape:pageshadow="0" inkscape:pageopacity="0" inkscape:pagecheckerboard="1" inkscape:document-units="px" showgrid="true" units="px" width="800px" inkscape:snap-bbox="true" inkscape:snap-bbox-midpoints="true" inkscape:snap-bbox-edge-midpoints="true" inkscape:bbox-nodes="true" inkscape:snap-global="false" inkscape:snap-center="true" inkscape:snap-grids="false" inkscape:snap-page="true" inkscape:zoom="0.95020605" inkscape:cx="307.82797" inkscape:cy="238.36935" inkscape:window-width="1366" inkscape:window-height="715" inkscape:window-x="-8" inkscape:window-y="-8" inkscape:window-maximized="1" inkscape:current-layer="layer1">
    <inkscape:grid type="xygrid" id="grid824" units="px" spacingx="0.99999999" spacingy="0.99999999" empcolor="#ffa23f" empopacity="0.25098039" dotted="false" enabled="false" />
  </sodipodi:namedview>
  <defs id="defs2">
    <filter inkscape:collect="always" style="color-interpolation-filters:sRGB" id="filter77938" x="-0.0072285052" y="-0.085296359" width="1.014457" height="1.1705927">
      <feGaussianBlur inkscape:collect="always" stdDeviation="0.099579475" id="feGaussianBlur77940" />
    </filter>
  </defs>
  <g inkscape:groupmode="layer" id="layer7" inkscape:label="BG" sodipodi:insensitive="true">
    <rect style="opacity:1;fill:#ffffff;fill-opacity:1;stroke:none;stroke-width:0.529167;stroke-linejoin:round;stroke-miterlimit:4;stroke-dasharray:none;stroke-opacity:1" id="rect77969" width="134.28084" height="106.32207" x="-0.78757095" y="0" />
  </g>
  <ellipse style="opacity:1;mix-blend-mode:normal;fill:#d0cde1;fill-opacity:1;stroke:none;stroke-width:0.621022;stroke-linejoin:round;stroke-miterlimit:4;stroke-dasharray:none;stroke-opacity:1;filter:url(#filter77938)" id="ellipse77944" cx="30.925646" cy="54.577057" rx="16.531132" ry="1.4009434" transform="matrix(0.72606032,0,0,1,83.684787,6.3620782)" />
  <ellipse style="opacity:1;mix-blend-mode:normal;fill:#d0cde1;fill-opacity:1;stroke:none;stroke-width:0.621022;stroke-linejoin:round;stroke-miterlimit:4;stroke-dasharray:none;stroke-opacity:1;filter:url(#filter77938)" id="ellipse77942" cx="30.925646" cy="54.577057" rx="16.531132" ry="1.4009434" transform="matrix(0.72606032,0,0,1,57.30116,13.585598)" />
  <ellipse style="opacity:1;mix-blend-mode:normal;fill:#d0cde1;fill-opacity:1;stroke:none;stroke-width:0.560034;stroke-linejoin:round;stroke-miterlimit:4;stroke-dasharray:none;stroke-opacity:1;filter:url(#filter77938)" id="path77536" cx="30.925646" cy="54.577057" rx="16.531132" ry="1.4009434" transform="matrix(0.89280621,0,0,1,3.3150371,0)" />
  <g inkscape:label="Phone" id="layer1" transform="rotate(-13.901884,106.98939,37.898323)">
    <rect style="fill:#3f3d56;fill-opacity:1;stroke:none;stroke-width:0.0264584;stroke-linejoin:round;stroke-opacity:1" id="rect65549" width="10.054873" height="20.109747" x="90.650124" y="33.055996" ry="2.0234766" />
    <rect style="fill:#6c63ff;fill-opacity:1;stroke:none;stroke-width:0.0264584;stroke-linejoin:round;stroke-opacity:1" id="rect66735" width="9.0666637" height="18.88625" x="91.144218" y="33.715981" ry="1.9003663" />
    <rect style="opacity:1;fill:#3f3d56;fill-opacity:1;stroke:none;stroke-width:0.132292;stroke-linejoin:round;stroke-miterlimit:4;stroke-dasharray:none;stroke-opacity:1" id="rect66777" width="0.39998955" height="1.9933015" x="90.406403" y="37.352882" ry="0.28110659" />
    <rect style="opacity:1;fill:#3f3d56;fill-opacity:1;stroke:none;stroke-width:0.132292;stroke-linejoin:round;stroke-miterlimit:4;stroke-dasharray:none;stroke-opacity:1" id="rect67544" width="0.39998955" height="1.9933015" x="90.406403" y="40.172916" ry="0.28110659" />
    <rect style="opacity:1;fill:#3f3d56;fill-opacity:1;stroke:none;stroke-width:0.132292;stroke-linejoin:round;stroke-miterlimit:4;stroke-dasharray:none;stroke-opacity:1" id="rect67546" width="0.39998955" height="1.9933015" x="100.46128" y="39.231766" ry="0.28110659" />
    <path id="path67550" style="opacity:0.671159;fill:#5951d1;fill-opacity:1;stroke:none;stroke-width:0.0264582;stroke-linejoin:round" d="m 91.143868,39.634063 v 11.068219 c 0,1.052801 0.848194,1.900014 1.900999,1.900014 h 5.266044 c 0.984287,0 1.788619,-0.740969 1.889219,-1.69774 z" />
    <rect style="display:inline;opacity:1;fill:#ffb8b8;fill-opacity:1;stroke:none;stroke-width:0.264583;stroke-linejoin:round;stroke-miterlimit:4;stroke-dasharray:none;stroke-opacity:1" id="rect69024" width="1.1908016" height="1.0278499" x="94.869591" y="35.987431" />
    <rect style="display:inline;opacity:1;fill:none;fill-opacity:1;stroke:#250657;stroke-width:0.132292;stroke-linejoin:round;stroke-miterlimit:4;stroke-dasharray:none;stroke-opacity:1" id="rect68275" width="0.73173541" height="0.6316033" x="95.451271" y="36.584126" />
    <rect style="display:inline;opacity:1;fill:#3f3d56;fill-opacity:1;stroke:none;stroke-width:0.264583;stroke-linejoin:round;stroke-miterlimit:4;stroke-dasharray:none;stroke-opacity:1" id="rect68273" width="3.782547" height="0.92277914" x="93.786285" y="33.401733" ry="0.46138957" />
    <path d="m 95.000992,33.994639 a 0.10859902,0.10859902 0 0 1 0.108477,-0.108478 h 0.737605 a 0.1084715,0.1084715 0 0 1 0,0.216943 h -0.737607 a 0.10859877,0.10859877 0 0 1 -0.108478,-0.108478 z" fill="#ffffff" id="path1856" style="stroke-width:0.264582" />
    <circle cx="96.259247" cy="33.99464" r="0.10847117" fill="#ffffff" id="circle1860" style="stroke-width:0.264582" />
    <g id="g65279" inkscape:label="g65279" style="display:inline;stroke-width:2.06989" transform="matrix(0.48311797,0,0,-0.48311797,60.638945,58.304603)">
      <circle style="opacity:1;fill:#ffffff;fill-opacity:1;stroke:#3f3d56;stroke-width:0.0547657;stroke-linejoin:round;stroke-opacity:1" id="path62371" cx="72.305122" cy="28.700668" r="1.681132" inkscape:label="path62371" />
      <ellipse style="opacity:1;fill:none;fill-opacity:1;stroke:#3f3d56;stroke-width:0.27383;stroke-linejoin:round;stroke-miterlimit:4;stroke-dasharray:none;stroke-opacity:1" id="circle62621" cx="71.488136" cy="28.070244" rx="1.9613206" ry="1.8912735" inkscape:label="circle62621" />
      <path style="fill:none;stroke:#3f3d56;stroke-width:0.547658;stroke-linecap:butt;stroke-linejoin:miter;stroke-miterlimit:4;stroke-dasharray:none;stroke-opacity:1" d="M 66.06762,39.817378 H 79.508398" id="path63231" />
      <path style="fill:none;stroke:#3f3d56;stroke-width:0.547658;stroke-linecap:butt;stroke-linejoin:miter;stroke-miterlimit:4;stroke-dasharray:none;stroke-opacity:1" d="M 66.06762,38.722062 H 79.508398" id="path69884" />
      <path style="fill:none;stroke:#3f3d56;stroke-width:0.547658;stroke-linecap:butt;stroke-linejoin:miter;stroke-miterlimit:4;stroke-dasharray:none;stroke-opacity:1" d="M 66.06762,37.626746 H 79.508398" id="path69886" />
      <path style="fill:none;stroke:#3f3d56;stroke-width:0.547658;stroke-linecap:butt;stroke-linejoin:miter;stroke-miterlimit:4;stroke-dasharray:none;stroke-opacity:1" d="M 66.06762,36.53143 H 79.508398" id="path69888" />
      <path style="fill:none;stroke:#3f3d56;stroke-width:0.547658;stroke-linecap:butt;stroke-linejoin:miter;stroke-miterlimit:4;stroke-dasharray:none;stroke-opacity:1" d="M 66.06762,35.436114 H 79.508398" id="path69890" />
      <path style="fill:none;stroke:#3f3d56;stroke-width:1.09532;stroke-linecap:butt;stroke-linejoin:miter;stroke-miterlimit:4;stroke-dasharray:none;stroke-opacity:1" d="m 70.852284,33.245482 h 3.871452" id="path69892" />
      <rect style="display:inline;opacity:1;fill:#ffb8b8;fill-opacity:1;stroke:none;stroke-width:0.264584;stroke-linejoin:round;stroke-miterlimit:4;stroke-dasharray:none;stroke-opacity:1" id="rect69894" width="10.432495" height="7.518364" x="67.092461" y="16.647532" />
      <path style="display:inline;fill:none;stroke:#3f3d56;stroke-width:1.05833;stroke-linecap:butt;stroke-linejoin:miter;stroke-miterlimit:4;stroke-dasharray:none;stroke-opacity:1" d="m 70.523409,15.299077 h 3.959354" id="path69896" />
    </g>
  </g>
  <g inkscape:label="Laptop" id="g65445" style="display:inline" transform="rotate(17.627372,65.36224,41.283552)">
    <rect style="fill:#3f3d56;fill-opacity:1;stroke:#250657;stroke-width:0.0264583;stroke-linejoin:round" id="rect65395" width="46.397968" height="26.85737" x="42.160641" y="26.45694" />
    <rect style="fill:#6c63ff;fill-opacity:1;stroke:none;stroke-width:0.0264583;stroke-linejoin:round" id="rect65397" width="43.624241" height="24.692965" x="43.547504" y="28.133509" />
    <path id="path65399" style="opacity:0.671159;fill:#5951d1;fill-opacity:1;stroke:none;stroke-width:0.0999999;stroke-linejoin:round" d="M 164.58984,106.33203 V 199.6582 H 273.96289 Z" transform="scale(0.26458333)" />
    <path d="m 89.157636,52.756294 h -4.17463 v -0.287417 a 0.05963592,0.05698645 0 0 0 -0.05964,-0.05699 h -1.431301 a 0.05963592,0.05698645 0 0 0 -0.05964,0.05699 v 0.287417 h -0.894563 v -0.287417 a 0.05963524,0.0569858 0 0 0 -0.05964,-0.05699 h -1.431299 a 0.05963592,0.05698645 0 0 0 -0.05964,0.05699 v 0.287417 H 80.09272 v -0.287417 a 0.05963592,0.05698645 0 0 0 -0.05964,-0.05699 h -1.431297 a 0.05963592,0.05698645 0 0 0 -0.05964,0.05699 v 0.287417 h -0.894568 v -0.287417 a 0.05963592,0.05698645 0 0 0 -0.05964,-0.05699 h -1.431302 a 0.05963592,0.05698645 0 0 0 -0.05964,0.05699 v 0.287417 h -0.894564 v -0.287417 a 0.05963592,0.05698645 0 0 0 -0.05964,-0.05699 h -1.431302 a 0.05963524,0.0569858 0 0 0 -0.05964,0.05699 v 0.287417 h -0.894564 v -0.287417 a 0.05963592,0.05698645 0 0 0 -0.05964,-0.05699 h -1.431302 a 0.05963592,0.05698645 0 0 0 -0.05964,0.05699 v 0.287417 h -0.894556 v -0.287417 a 0.05963592,0.05698645 0 0 0 -0.05964,-0.05699 h -11.21185 a 0.05963592,0.05698645 0 0 0 -0.05964,0.05699 v 0.287417 h -0.894564 v -0.287417 a 0.05963592,0.05698645 0 0 0 -0.05964,-0.05699 h -1.431302 a 0.05963524,0.0569858 0 0 0 -0.05964,0.05699 v 0.287417 h -0.894563 v -0.287417 a 0.05963592,0.05698645 0 0 0 -0.05964,-0.05699 h -1.431302 a 0.05963592,0.05698645 0 0 0 -0.05964,0.05699 v 0.287417 h -0.894565 v -0.287417 a 0.05963524,0.0569858 0 0 0 -0.05964,-0.05699 h -1.431302 a 0.05963592,0.05698645 0 0 0 -0.05964,0.05699 v 0.287417 h -0.89456 v -0.287417 a 0.05963592,0.05698645 0 0 0 -0.05964,-0.05699 h -1.431304 a 0.05963592,0.05698645 0 0 0 -0.05964,0.05699 v 0.287417 h -0.894564 v -0.287417 a 0.05963592,0.05698645 0 0 0 -0.05964,-0.05699 h -1.431302 a 0.05963592,0.05698645 0 0 0 -0.05964,0.05699 v 0.287417 H 45.86073 v -0.287417 a 0.05963592,0.05698645 0 0 0 -0.05964,-0.05699 h -1.431293 a 0.05963524,0.0569858 0 0 0 -0.05964,0.05699 v 0.287417 h -2.743313 a 1.4313035,1.3677145 0 0 0 -1.431302,1.367714 v 0.618447 a 1.4313022,1.3677132 0 0 0 1.431302,1.36771 h 47.59079 a 1.4313014,1.3677125 0 0 0 1.431303,-1.36771 v -0.618447 a 1.4313029,1.3677139 0 0 0 -1.431301,-1.367714 z" fill="#3f3d56" id="path65401" style="stroke-width:0.264583" />
    <g id="g65417" inkscape:label="g65279" style="display:inline">
      <circle style="opacity:1;fill:#ffffff;fill-opacity:1;stroke:#3f3d56;stroke-width:0.0264583;stroke-linejoin:round;stroke-opacity:1" id="circle65403" cx="52.589466" cy="35.27256" r="1.681132" inkscape:label="path62371" />
      <ellipse style="opacity:1;fill:none;fill-opacity:1;stroke:#3f3d56;stroke-width:0.132292;stroke-linejoin:round;stroke-miterlimit:4;stroke-dasharray:none;stroke-opacity:1" id="ellipse65405" cx="51.772484" cy="34.642136" rx="1.9613206" ry="1.8912735" inkscape:label="circle62621" />
      <path style="fill:none;stroke:#3f3d56;stroke-width:0.529167;stroke-linecap:butt;stroke-linejoin:miter;stroke-miterlimit:4;stroke-dasharray:none;stroke-opacity:1" d="M 66.06762,33.365333 H 81.828234" id="path65407" />
      <path style="fill:none;stroke:#3f3d56;stroke-width:0.529167;stroke-linecap:butt;stroke-linejoin:miter;stroke-miterlimit:4;stroke-dasharray:none;stroke-opacity:1" d="M 66.06762,34.423667 H 81.828234" id="path65409" />
      <path style="fill:none;stroke:#3f3d56;stroke-width:0.529167;stroke-linecap:butt;stroke-linejoin:miter;stroke-miterlimit:4;stroke-dasharray:none;stroke-opacity:1" d="M 66.06762,35.482001 H 81.828234" id="path65411" />
      <path style="fill:none;stroke:#3f3d56;stroke-width:0.529167;stroke-linecap:butt;stroke-linejoin:miter;stroke-miterlimit:4;stroke-dasharray:none;stroke-opacity:1" d="M 67.608657,36.540335 H 80.287196" id="path65413" />
      <path style="fill:none;stroke:#3f3d56;stroke-width:1.05833;stroke-linecap:butt;stroke-linejoin:miter;stroke-miterlimit:4;stroke-dasharray:none;stroke-opacity:1" d="m 72.441912,38.127836 h 3.012029" id="path65415" />
    </g>
    <g id="g65441" style="display:inline">
      <circle style="opacity:1;fill:#ffffff;fill-opacity:1;stroke:none;stroke-width:0.0264583;stroke-linejoin:round;stroke-opacity:1" id="circle65419" cx="82.727135" cy="29.559902" r="0.26636142" />
      <circle style="opacity:1;fill:#ffffff;fill-opacity:1;stroke:none;stroke-width:0.0264583;stroke-linejoin:round;stroke-opacity:1" id="circle65421" cx="83.876968" cy="29.559902" r="0.26636142" />
      <circle style="opacity:1;fill:#ffffff;fill-opacity:1;stroke:none;stroke-width:0.0264583;stroke-linejoin:round;stroke-opacity:1" id="circle65423" cx="85.026802" cy="29.559902" r="0.26636142" />
      <path style="fill:none;stroke:#3f3d56;stroke-width:0.132292;stroke-linecap:butt;stroke-linejoin:miter;stroke-miterlimit:4;stroke-dasharray:none;stroke-opacity:1" d="M 44.378695,30.190331 H 86.266903" id="path65425" />
      <path style="fill:none;stroke:#3f3d56;stroke-width:0.264583;stroke-linecap:butt;stroke-linejoin:miter;stroke-miterlimit:4;stroke-dasharray:none;stroke-opacity:1" d="M 50.1614,40.244503 H 81.542532" id="path65427" />
      <rect style="opacity:1;fill:#ffb8b8;fill-opacity:1;stroke:none;stroke-width:0.264583;stroke-linejoin:round;stroke-miterlimit:4;stroke-dasharray:none;stroke-opacity:1" id="rect65429" width="6.6544809" height="5.7438679" x="51.445831" y="41.608017" />
      <path style="fill:none;stroke:#3f3d56;stroke-width:1.05833;stroke-linecap:butt;stroke-linejoin:miter;stroke-miterlimit:4;stroke-dasharray:none;stroke-opacity:1" d="m 53.267057,48.713287 h 3.012029" id="path65431" />
      <rect style="opacity:1;fill:#ffb8b8;fill-opacity:1;stroke:none;stroke-width:0.264583;stroke-linejoin:round;stroke-miterlimit:4;stroke-dasharray:none;stroke-opacity:1" id="rect65433" width="6.6544809" height="5.7438679" x="62.558342" y="41.608017" />
      <path style="fill:none;stroke:#3f3d56;stroke-width:1.05833;stroke-linecap:butt;stroke-linejoin:miter;stroke-miterlimit:4;stroke-dasharray:none;stroke-opacity:1" d="m 64.379564,48.713287 h 3.012029" id="path65435" />
      <rect style="opacity:1;fill:#ffb8b8;fill-opacity:1;stroke:none;stroke-width:0.264583;stroke-linejoin:round;stroke-miterlimit:4;stroke-dasharray:none;stroke-opacity:1" id="rect65437" width="6.6544809" height="5.7438679" x="73.670853" y="41.608017" />
      <path style="fill:none;stroke:#3f3d56;stroke-width:1.05833;stroke-linecap:butt;stroke-linejoin:miter;stroke-miterlimit:4;stroke-dasharray:none;stroke-opacity:1" d="M 75.492071,48.713287 H 78.5041" id="path65439" />
    </g>
    <circle style="opacity:1;fill:#ffffff;fill-opacity:1;stroke:#3f3d56;stroke-width:0.0264583;stroke-linejoin:round;stroke-opacity:1" id="circle65443" cx="65.359627" cy="27.443233" r="0.49033007" />
  </g>
  <text xml:space="preserve" style="font-style:normal;font-weight:normal;font-size:8.5327px;line-height:1.25;font-family:sans-serif;fill:#000000;fill-opacity:1;stroke:none;stroke-width:0.264583" x="19.791424" y="54.424561" id="text70228"><tspan sodipodi:role="line" id="tspan70226" style="font-style:normal;font-variant:normal;font-weight:normal;font-stretch:normal;font-family:'Franklin Gothic Heavy';-inkscape-font-specification:'Franklin Gothic Heavy, ';stroke-width:0.264583" x="19.791424" y="54.424561">HTML</tspan></text>
  <text xml:space="preserve" style="font-style:normal;font-weight:normal;font-size:8.5327px;line-height:1.25;font-family:sans-serif;fill:#000000;fill-opacity:1;stroke:none;stroke-width:0.264583" x="72.1558" y="68.879654" id="text74088"><tspan sodipodi:role="line" id="tspan74086" style="font-style:normal;font-variant:normal;font-weight:normal;font-stretch:normal;font-family:'Franklin Gothic Heavy';-inkscape-font-specification:'Franklin Gothic Heavy, ';stroke-width:0.264583" x="72.1558" y="68.879654">CSS</tspan></text>
  <text xml:space="preserve" style="font-style:normal;font-weight:normal;font-size:8.5327px;line-height:1.25;font-family:sans-serif;fill:#000000;fill-opacity:1;stroke:none;stroke-width:0.264583" x="98.485291" y="61.070782" id="text74092"><tspan sodipodi:role="line" id="tspan74090" style="font-style:normal;font-variant:normal;font-weight:normal;font-stretch:normal;font-family:'Franklin Gothic Heavy';-inkscape-font-specification:'Franklin Gothic Heavy, ';stroke-width:0.264583" x="98.485291" y="61.070782">PHP</tspan></text>
  <text xml:space="preserve" style="font-style:normal;font-weight:normal;font-size:8.5327px;line-height:1.25;font-family:sans-serif;fill:#000000;fill-opacity:1;stroke:none;stroke-width:0.264583" x="85.345695" y="3.8996689" id="text74096" transform="rotate(18.078633)"><tspan sodipodi:role="line" id="tspan74094" style="font-style:normal;font-variant:normal;font-weight:normal;font-stretch:normal;font-family:'Franklin Gothic Heavy';-inkscape-font-specification:'Franklin Gothic Heavy, ';stroke-width:0.264583" x="85.345695" y="3.8996689">JS</tspan></text>
</svg>
