<?xml version="1.0" encoding="UTF-8" standalone="no"?>
<!-- Created with Inkscape (http://www.inkscape.org/) -->

<svg  viewBox="0 0 158.74999 132.29168" version="1.1" id="svg5" inkscape:version="1.1.1 (3bf5ae0d25, 2021-09-20)" sodipodi:docname="0000main.svg" xmlns:inkscape="http://www.inkscape.org/namespaces/inkscape" xmlns:sodipodi="http://sodipodi.sourceforge.net/DTD/sodipodi-0.dtd" xmlns="http://www.w3.org/2000/svg" xmlns:svg="http://www.w3.org/2000/svg">
  <sodipodi:namedview id="namedview7" pagecolor="#505050" bordercolor="#ffffff" borderopacity="1" inkscape:pageshadow="0" inkscape:pageopacity="0" inkscape:pagecheckerboard="1" inkscape:document-units="px" showgrid="true" units="px" width="800px" inkscape:snap-bbox="true" inkscape:snap-bbox-midpoints="true" inkscape:snap-bbox-edge-midpoints="true" inkscape:bbox-nodes="true" inkscape:snap-global="false" inkscape:snap-center="true" inkscape:snap-grids="false" inkscape:snap-page="true" inkscape:zoom="0.77964991" inkscape:cx="338.61352" inkscape:cy="100.68622" inkscape:window-width="1366" inkscape:window-height="715" inkscape:window-x="-8" inkscape:window-y="-8" inkscape:window-maximized="1" inkscape:current-layer="pc" fit-margin-top="0" fit-margin-left="0" fit-margin-right="0" fit-margin-bottom="0">
    <inkscape:grid type="xygrid" id="grid824" units="px" spacingx="0.99999999" spacingy="0.99999999" empcolor="#ffa23f" empopacity="0.25098039" dotted="false" enabled="false" originx="20.72568" originy="20.330234" />
  </sodipodi:namedview>
  <defs id="defs2" />
  <path d="m 123.96719,45.499342 -0.79353,-17.665177 a 55.22145,78.054836 66.589919 0 1 34.14006,-15.630036 c -15.65287,14.612417 -11.4845,33.912705 -21.37809,50.682392 A 33.216021,46.950434 66.589919 0 1 104.62929,87.012836 L 91.304007,97.078286 A 55.65943,78.673909 66.589919 0 1 102.364,47.08309 53.76437,75.995269 66.589919 0 1 114.74879,34.289739 c 4.04984,5.787088 9.2184,11.209603 9.2184,11.209603 z" fill="#f2f2f2" id="path1844" style="fill:#d0cde1;fill-opacity:1;stroke-width:0.264583" />
  <circle cx="65.156487" cy="27.0623" r="25.050566" fill="#f2f2f2" id="circle53787-0" style="display:inline;stroke-width:0.169692;fill:#d0cde1;fill-opacity:1" />
  <rect style="display:none;opacity:1;fill:#ffffff;fill-opacity:1;stroke:none;stroke-width:0.529168;stroke-linejoin:round;stroke-miterlimit:4;stroke-dasharray:none;stroke-opacity:1" id="rect80815" width="154.63583" height="107.57273" x="9.3333921" y="17.110638" />
  <g inkscape:label="multimeter" id="phone" transform="matrix(2.1633312,0.04146692,-0.04146692,2.1633312,-76.569261,-3.4214408)" style="display:inline;stroke-width:0.462165">
    <rect style="display:none;opacity:1;fill:#ffffff;fill-opacity:1;stroke:none;stroke-width:0.122281;stroke-linejoin:round;stroke-miterlimit:4;stroke-dasharray:none;stroke-opacity:1" id="rect23873" width="84.0812" height="67.701744" x="28.699286" y="1.6838075" transform="rotate(-1.0981177)" inkscape:label="rect23873" />
    <path id="rect65549" style="fill:#3f3d56;fill-opacity:1;stroke-width:0.0122282;stroke-linejoin:round" d="m 91.070313,32.589706 7.942997,-0.223194 c 0.886191,-0.0249 1.63882,0.598572 1.63446,1.398211 l -0.094,17.241558 c -0.004,0.799698 -0.605755,1.459901 -1.40519,1.480862 l -7.165369,0.187888 c -0.799437,0.02092 -1.434569,-0.606819 -1.480863,-1.405187 l -0.99686,-17.192028 c -0.04629,-0.798335 0.6786,-1.463208 1.564795,-1.48811 z" sodipodi:nodetypes="sssssssss" inkscape:label="rect65549" />
    <path id="path4866" style="fill:#555274;fill-opacity:1;stroke-width:0.0122282;stroke-linejoin:round" d="m 91.470231,33.111292 7.164876,-0.204531 c 0.799377,-0.02282 1.478833,0.56835 1.475593,1.32572 l -0.0699,16.330134 c -0.003,0.757424 -0.545163,1.382212 -1.266284,1.401372 l -6.463439,0.171763 c -0.721123,0.01912 -1.294594,-0.575983 -1.337044,-1.332193 L 90.059948,34.519392 c -0.04244,-0.756177 0.610874,-1.385281 1.410255,-1.4081 z" sodipodi:nodetypes="sssssssss" />
    <rect style="fill:#483434;fill-opacity:1;stroke:none;stroke-width:0.244562;stroke-linejoin:round;stroke-miterlimit:4;stroke-dasharray:none" id="rect5008" width="8.3262234" height="3.1393955" x="90.361107" y="37.002007" transform="rotate(-1.0981177)" ry="0" />
    <ellipse style="fill:#ffb8b8;fill-opacity:1;stroke:none;stroke-width:0.247922;stroke-linejoin:round;stroke-miterlimit:4;stroke-dasharray:none" id="path5256" cx="81.091438" cy="42.368195" transform="matrix(0.99981634,-0.0191646,0.24907272,0.96848479,0,0)" rx="0.79382896" ry="0.6078434" />
    <ellipse style="fill:#ffb8b8;fill-opacity:1;stroke:none;stroke-width:0.247922;stroke-linejoin:round;stroke-miterlimit:4;stroke-dasharray:none" id="ellipse5561" cx="-107.95699" cy="42.368187" transform="matrix(-0.99981634,0.01916453,-0.2117754,0.97731836,0,0)" rx="0.79382896" ry="0.6078434" />
    <circle style="opacity:0.278455;fill:#6c63ff;fill-opacity:1;stroke:none;stroke-width:0.244562;stroke-linejoin:round;stroke-miterlimit:4;stroke-dasharray:none" id="path5607" cx="94.408806" cy="45.810513" transform="rotate(-1.0981176)" r="4.5953469" />
    <circle style="fill:#3f3d56;fill-opacity:1;stroke:#ffb8b8;stroke-width:0.122281;stroke-linejoin:round;stroke-miterlimit:4;stroke-dasharray:none;stroke-opacity:1" id="circle6078" cx="94.408806" cy="45.810513" transform="rotate(-1.0981174)" r="3.4578848" />
    <rect style="fill:#886262;fill-opacity:1;stroke:none;stroke-width:0.244562;stroke-linejoin:round;stroke-miterlimit:4;stroke-dasharray:none" id="rect6604" width="0.94451678" height="6.8477473" x="104.10161" y="5.2900572" transform="rotate(20.022857)" ry="0.51033491" />
    <ellipse style="fill:#020104;fill-opacity:1;stroke:#d0cde1;stroke-width:0.122281;stroke-linejoin:round;stroke-miterlimit:4;stroke-dasharray:none;stroke-opacity:1" id="ellipse19884" cx="94.7742" cy="52.978695" transform="rotate(-1.0981206)" rx="0.55872351" ry="0.55026543" />
    <ellipse style="fill:#020104;fill-opacity:1;stroke:#d0cde1;stroke-width:0.122281;stroke-linejoin:round;stroke-miterlimit:4;stroke-dasharray:none;stroke-opacity:1" id="ellipse23601" cx="97.219826" cy="52.978695" transform="rotate(-1.0981206)" rx="0.55872351" ry="0.55026543" />
    <ellipse style="fill:#020104;fill-opacity:1;stroke:#d0cde1;stroke-width:0.122281;stroke-linejoin:round;stroke-miterlimit:4;stroke-dasharray:none;stroke-opacity:1" id="ellipse23603" cx="92.328575" cy="52.978695" transform="rotate(-1.0981206)" rx="0.55872351" ry="0.55026543" />
  </g>
  <g id="pc" style="display:inline;stroke-width:0.641356" transform="matrix(1.5591918,-0.00429027,0.00429027,1.5591918,-30.593012,16.575639)" inkscape:label="Laptop">
    <ellipse style="opacity:1;fill:#4a4956;fill-opacity:1;stroke:none;stroke-width:0.509076;stroke-linejoin:round;stroke-miterlimit:4;stroke-dasharray:none;stroke-opacity:1" id="path50167" cx="57.908611" cy="64.303871" transform="rotate(0.15765469)" rx="42.422993" ry="2.5453796" />
    <polygon points="643.417,667.466 651.452,645.651 962.312,645.651 968.978,667.466 968.978,673.526 642.968,673.526 642.968,668.678 " fill="#2f2e41" id="polygon54124" style="display:inline;stroke-width:0.842932" transform="matrix(0.12911187,3.5526404e-4,-3.5526404e-4,0.12911187,-49.293192,-21.262783)" />
    <path d="m 91.776606,64.537867 c -0.07757,0.327605 -0.367999,0.672625 -1.022966,0.997851 -2.350359,1.167103 -7.118745,-0.332539 -7.118745,-0.332539 0,0 -3.675435,-0.636018 -3.670915,-2.279001 a 2.9340227,2.9340227 0 0 1 0.322869,-0.190791 c 0.988226,-0.51935 4.263671,-1.798588 10.05995,0.08223 a 2.4194635,2.4194635 0 0 1 1.100771,0.725693 c 0.234323,0.275841 0.417684,0.625418 0.329036,0.996559 z" fill="#2f2e41" id="path54126" style="display:inline;stroke-width:0.108833" />
    <path d="m 91.776606,64.537867 c -2.875895,1.092903 -5.436839,1.167998 -8.059811,-0.664513 -1.322814,-0.92372 -2.526259,-1.154706 -3.429948,-1.139974 0.988226,-0.51935 4.263672,-1.798587 10.059952,0.08223 a 2.4194635,2.4194635 0 0 1 1.100764,0.725693 c 0.23433,0.275847 0.417691,0.625424 0.329043,0.996564 z" opacity="0.1" id="path54128" style="display:inline;stroke-width:0.108833" />
    <ellipse cx="88.351791" cy="63.329803" rx="1.0170903" ry="0.31295028" fill="#f2f2f2" id="ellipse54130" style="display:inline;stroke-width:0.108833" transform="rotate(0.15765445)" />
    <polygon points="643.417,667.466 968.978,667.466 968.978,673.526 642.968,673.526 642.968,668.678 " opacity="0.1" id="polygon54132" style="display:inline;stroke-width:0.842932" transform="matrix(0.12911187,3.5526404e-4,-3.5526404e-4,0.12911187,-49.293192,-21.262783)" />
    <path sodipodi:type="star" style="opacity:1;fill:#3f3d56;fill-opacity:1;stroke:none;stroke-width:1.40361;stroke-linejoin:round;stroke-miterlimit:4;stroke-dasharray:none;stroke-opacity:1" id="path33135" inkscape:flatsided="false" sodipodi:sides="8" sodipodi:cx="258.9682" sodipodi:cy="46.882175" sodipodi:r1="66.647552" sodipodi:r2="85.124413" sodipodi:arg1="0.61781661" sodipodi:arg2="1.0105157" inkscape:rounded="0.8" inkscape:randomized="0" d="m 313.29563,85.488221 c -16.08696,22.637989 14.43532,18.744789 -9.09028,33.503359 -23.5256,14.75856 -6.73777,-11.02779 -34.12045,-6.39551 -27.38268,4.63227 -3.04726,23.46188 -30.11825,17.26265 -27.07099,-6.19923 3.0335,-12.56215 -19.60449,-28.64912 -22.638,-16.08696 -18.7448,14.43533 -33.50336,-9.090274 -14.75856,-23.525601 11.02779,-6.737775 6.39551,-34.120454 -4.63228,-27.38268 -23.46188,-3.047254 -17.26265,-30.118247 6.19923,-27.07099266 12.56215,3.033497 28.64911,-19.6044951 16.08697,-22.6379929 -14.43532,-18.7447919 9.09028,-33.5033559 23.5256,-14.758564 6.73778,11.027788 34.12045,6.395512 27.38268,-4.632277 3.04726,-23.461885 30.11825,-17.262653 27.07099,6.199231 -3.0335,12.56215 19.6045,28.6491138 22.63799,16.0869642 18.74479,-14.4353238 33.50335,9.090278 14.75857,23.5256012 -11.02779,6.7377751 -6.39551,34.1204542 4.63228,27.38268 23.46189,3.047254 17.26265,30.118247 -6.19923,27.070993 -12.56215,-3.033497 -28.64911,19.604495 z" transform="matrix(0.11612976,-0.03361621,0.03361621,0.11612976,46.581183,27.90896)" inkscape:transform-center-x="2.6037844" inkscape:transform-center-y="-4.2009965" />
    <circle style="opacity:1;fill:#3f3d56;fill-opacity:1;stroke:#ffffff;stroke-width:0.339384;stroke-linejoin:round;stroke-miterlimit:4;stroke-dasharray:none;stroke-opacity:1" id="circle33137" cx="68.292572" cy="45.428463" transform="rotate(-16.1442)" r="4.2422996" />
    <circle style="opacity:1;fill:#ffffff;fill-opacity:1;stroke:none;stroke-width:0.339384;stroke-linejoin:round;stroke-miterlimit:4;stroke-dasharray:none;stroke-opacity:1" id="circle33229" cx="68.292572" cy="45.428467" transform="rotate(-16.144201)" r="1.6969198" />
    <rect style="fill:#3f3d56;fill-opacity:1;stroke:#ffffff;stroke-width:0.135754;stroke-linejoin:round;stroke-miterlimit:4;stroke-dasharray:none;stroke-opacity:1" id="rect65395" width="47.154495" height="31.244581" x="41.917244" y="26.493793" transform="matrix(0.99999992,-3.9812605e-4,-3.4780315e-4,0.99999994,0,0)" ry="1.8785543" />
    <rect style="fill:#7a74c9;fill-opacity:1;stroke:none;stroke-width:0.0169692;stroke-linejoin:round" id="rect65397" width="43.624241" height="24.692965" x="43.73357" y="28.690014" transform="rotate(-0.09439107)" />
    <rect style="opacity:0.283859;fill:#3f3d56;fill-opacity:1;stroke:none;stroke-width:0.0189514;stroke-linejoin:round" id="rect49751" width="17.068178" height="30.54425" x="83.399353" y="36.410374" transform="matrix(0.99996394,-0.00849189,-0.59082197,0.80680196,0,0)" />
    <path style="fill:none;stroke:#ffb8b8;stroke-width:0.509076;stroke-linecap:butt;stroke-linejoin:miter;stroke-miterlimit:4;stroke-dasharray:none;stroke-opacity:1" d="m 44.361768,34.706893 42.422833,0.116729" id="path38814" />
    <circle style="opacity:1;fill:#ffffff;fill-opacity:1;stroke:#3f3d56;stroke-width:0.0169692;stroke-linejoin:round;stroke-opacity:1" id="circle65443" cx="65.095528" cy="55.668781" r="1.1878438" />
    <path id="rect24794" style="opacity:1;fill:#3f3d56;fill-opacity:1;stroke-width:0.169692;stroke-linejoin:round" d="m 61.079352,57.301129 7.071554,0.01946 1.976479,4.17264 1.692246,1.567374 -14.440536,-0.03974 1.70078,-1.534349 z" sodipodi:nodetypes="ccccccc" />
    <path sodipodi:type="star" style="opacity:1;fill:#f6f6ff;fill-opacity:1;stroke:none;stroke-width:2.80722;stroke-linejoin:round;stroke-miterlimit:4;stroke-dasharray:none;stroke-opacity:1" id="path26604" inkscape:flatsided="false" sodipodi:sides="8" sodipodi:cx="258.96821" sodipodi:cy="46.882176" sodipodi:r1="66.647552" sodipodi:r2="85.124413" sodipodi:arg1="0.61781661" sodipodi:arg2="1.0105157" inkscape:rounded="0.8" inkscape:randomized="0" d="m 313.29564,85.488221 c -16.08697,22.637989 14.43532,18.744789 -9.09028,33.503359 -23.5256,14.75856 -6.73777,-11.02779 -34.12045,-6.39551 -27.38268,4.63227 -3.04726,23.46188 -30.11825,17.26265 -27.07099,-6.19923 3.0335,-12.56215 -19.6045,-28.64912 -22.63799,-16.08696 -18.74479,14.43533 -33.50335,-9.090273 -14.75857,-23.525601 11.02779,-6.737776 6.39551,-34.120454 -4.63228,-27.38268 -23.46188,-3.047255 -17.26265,-30.118248 6.19923,-27.07099216 12.56215,3.033498 28.64911,-19.6044946 16.08697,-22.6379924 -14.43532,-18.7447924 9.09028,-33.5033564 23.5256,-14.758563 6.73777,11.027789 34.12045,6.395512 27.38268,-4.632277 3.04726,-23.461885 30.11825,-17.262653 27.07099,6.199232 -3.0335,12.562151 19.6045,28.6491143 22.63799,16.0869642 18.74479,-14.4353233 33.50335,9.090278 14.75857,23.5256007 -11.02779,6.7377751 -6.39551,34.1204537 4.63228,27.38268 23.46188,3.047255 17.26265,30.118248 -6.19923,27.070992 -12.56215,-3.033498 -28.64911,19.604494 z" transform="matrix(0.06044845,1.6632988e-4,-1.6632988e-4,0.06044845,54.871295,40.734139)" inkscape:transform-center-x="0.65994042" inkscape:transform-center-y="-2.3814891" />
    <g id="g65417" inkscape:label="g65279" style="display:inline;stroke-width:0.641356" transform="translate(-2.1327016,-2.6299997)">
      <circle style="opacity:1;fill:#ffffff;fill-opacity:1;stroke:#3f3d56;stroke-width:0.0169692;stroke-linejoin:round;stroke-opacity:1" id="circle80470" cx="49.87534" cy="34.925705" r="1.681132" inkscape:label="path62371" />
      <ellipse style="opacity:1;fill:none;fill-opacity:1;stroke:#3f3d56;stroke-width:0.0848462;stroke-linejoin:round;stroke-miterlimit:4;stroke-dasharray:none;stroke-opacity:1" id="ellipse65405" cx="49.058357" cy="34.29528" rx="1.9613206" ry="1.8912735" inkscape:label="circle62621" />
    </g>
    <path sodipodi:type="star" style="opacity:1;fill:#ffb8b8;fill-opacity:1;stroke:none;stroke-width:2.80722;stroke-linejoin:round;stroke-miterlimit:4;stroke-dasharray:none;stroke-opacity:1" id="path28772" inkscape:flatsided="false" sodipodi:sides="8" sodipodi:cx="258.9682" sodipodi:cy="46.882175" sodipodi:r1="66.647552" sodipodi:r2="85.124413" sodipodi:arg1="0.61781661" sodipodi:arg2="1.0105157" inkscape:rounded="0.8" inkscape:randomized="0" d="m 313.29563,85.488221 c -16.08696,22.637989 14.43532,18.744789 -9.09028,33.503359 -23.5256,14.75856 -6.73777,-11.02779 -34.12045,-6.39551 -27.38268,4.63227 -3.04726,23.46188 -30.11825,17.26265 -27.07099,-6.19923 3.0335,-12.56215 -19.60449,-28.64912 -22.638,-16.08696 -18.7448,14.43533 -33.50336,-9.090274 -14.75856,-23.525601 11.02779,-6.737775 6.39551,-34.120454 -4.63228,-27.38268 -23.46188,-3.047254 -17.26265,-30.118247 6.19923,-27.07099266 12.56215,3.033497 28.64911,-19.6044951 16.08697,-22.6379929 -14.43532,-18.7447919 9.09028,-33.5033559 23.5256,-14.758564 6.73778,11.027788 34.12045,6.395512 27.38268,-4.632277 3.04726,-23.461885 30.11825,-17.262653 27.07099,6.199231 -3.0335,12.56215 19.6045,28.6491138 22.63799,16.0869642 18.74479,-14.4353238 33.50335,9.090278 14.75857,23.5256012 -11.02779,6.7377751 -6.39551,34.1204542 4.63228,27.38268 23.46189,3.047254 17.26265,30.118247 -6.19923,27.070993 -12.56215,-3.033497 -28.64911,19.604495 z" transform="matrix(0.06044845,1.6632988e-4,-1.6632988e-4,0.06044845,54.872229,40.394756)" inkscape:transform-center-x="0.65994042" inkscape:transform-center-y="-2.3814891" />
    <path sodipodi:type="star" style="opacity:1;fill:#ffffff;fill-opacity:1;stroke:none;stroke-width:2.59128;stroke-linejoin:round;stroke-miterlimit:4;stroke-dasharray:none;stroke-opacity:1" id="path31948" inkscape:flatsided="false" sodipodi:sides="8" sodipodi:cx="258.9682" sodipodi:cy="46.882175" sodipodi:r1="66.647552" sodipodi:r2="85.124413" sodipodi:arg1="0.61781661" sodipodi:arg2="1.0105157" inkscape:rounded="0.8" inkscape:randomized="0" d="m 313.29563,85.488221 c -16.08696,22.637989 14.43532,18.744789 -9.09028,33.503359 -23.5256,14.75856 -6.73777,-11.02779 -34.12045,-6.39551 -27.38268,4.63227 -3.04726,23.46188 -30.11825,17.26265 -27.07099,-6.19923 3.0335,-12.56215 -19.60449,-28.64912 -22.638,-16.08696 -18.7448,14.43533 -33.50336,-9.090274 -14.75856,-23.525601 11.02779,-6.737775 6.39551,-34.120454 -4.63228,-27.38268 -23.46188,-3.047254 -17.26265,-30.118247 6.19923,-27.07099266 12.56215,3.033497 28.64911,-19.6044951 16.08697,-22.6379929 -14.43532,-18.7447919 9.09028,-33.5033559 23.5256,-14.758564 6.73778,11.027788 34.12045,6.395512 27.38268,-4.632277 3.04726,-23.461885 30.11825,-17.262653 27.07099,6.199231 -3.0335,12.56215 19.6045,28.6491138 22.63799,16.0869642 18.74479,-14.4353238 33.50335,9.090278 14.75857,23.5256012 -11.02779,6.7377751 -6.39551,34.1204542 4.63228,27.38268 23.46189,3.047254 17.26265,30.118247 -6.19923,27.070993 -12.56215,-3.033497 -28.64911,19.604495 z" transform="matrix(0.06548582,1.8019072e-4,-1.8019072e-4,0.06548582,60.79869,33.472034)" inkscape:transform-center-x="0.71493981" inkscape:transform-center-y="-2.5799454" />
    <circle style="opacity:1;fill:#7a74c9;fill-opacity:1;stroke:none;stroke-width:0.169692;stroke-linejoin:round;stroke-miterlimit:4;stroke-dasharray:none;stroke-opacity:1" id="path32598" cx="70.637459" cy="43.077583" transform="rotate(0.15765459)" r="1.6969198" />
    <circle style="opacity:1;fill:#7a74c9;fill-opacity:1;stroke:none;stroke-width:0.169692;stroke-linejoin:round;stroke-miterlimit:4;stroke-dasharray:none;stroke-opacity:1" id="circle33133" cx="77.849373" cy="36.374744" transform="rotate(0.15765459)" r="1.6969198" />
    <rect style="opacity:1;fill:#3f3d56;fill-opacity:1;stroke:none;stroke-width:0.135754;stroke-linejoin:round;stroke-miterlimit:4;stroke-dasharray:none;stroke-opacity:1" id="rect34813" width="6.7876792" height="3.3938396" x="44.458717" y="42.242073" transform="rotate(0.15765469)" ry="1.6969198" />
    <rect style="opacity:1;fill:#ffb8b8;fill-opacity:1;stroke:none;stroke-width:0.135754;stroke-linejoin:round;stroke-miterlimit:4;stroke-dasharray:none;stroke-opacity:1" id="rect35531" width="8.4845982" height="0.8484599" x="53.282692" y="43.514763" transform="rotate(0.15765482)" ry="0.42422995" rx="0.75766945" />
    <rect style="opacity:1;fill:#3f3d56;fill-opacity:1;stroke:none;stroke-width:0.135754;stroke-linejoin:round;stroke-miterlimit:4;stroke-dasharray:none;stroke-opacity:1" id="rect35409" width="3.3938396" height="3.3938396" x="50.567627" y="42.242073" transform="rotate(0.15765527)" ry="0.62504542" />
    <path style="fill:none;stroke:#7a74c9;stroke-width:0.169692;stroke-linecap:butt;stroke-linejoin:miter;stroke-miterlimit:4;stroke-dasharray:none;stroke-opacity:1" d="m 45.013456,44.550867 5.312867,0.01462" id="path36735" />
    <path style="fill:none;stroke:#7a74c9;stroke-width:0.169692;stroke-linecap:butt;stroke-linejoin:miter;stroke-miterlimit:4;stroke-dasharray:none;stroke-opacity:1" d="m 45.01719,43.193336 5.312867,0.01462" id="path37162" />
    <rect style="opacity:1;fill:#155724;fill-opacity:1;stroke:none;stroke-width:0.169692;stroke-linejoin:round;stroke-miterlimit:4;stroke-dasharray:none;stroke-opacity:1" id="rect37186" width="6.7876792" height="6.7876792" x="57.999168" y="88.420425" transform="rotate(-24.253488)" rx="0.73840231" ry="0.47424218" />
    <path id="path38645" style="fill:none;stroke:#ffffff;stroke-width:0.169692px;stroke-linecap:butt;stroke-linejoin:miter;stroke-opacity:1" d="m 91.580919,58.134975 -0.554961,0.257663 z m 3.713147,-1.672923 -0.554961,0.257663 z m -3.225212,2.755924 -0.55496,0.257663 z m 3.713147,-1.672923 -0.55496,0.257663 z m -3.225211,2.755924 -0.55496,0.257663 z m 3.713147,-1.672923 -0.55496,0.257663 z" />
    <path id="path38793" style="fill:none;stroke:#ffffff;stroke-width:0.169692px;stroke-linecap:butt;stroke-linejoin:miter;stroke-opacity:1" d="m 94.023343,56.443327 -0.257686,-0.55495 z m 1.67292,3.713148 -0.257687,-0.554949 z m -2.755924,-3.22521 -0.257687,-0.554951 z m 1.672919,3.713147 -0.257687,-0.554949 z m -2.755924,-3.225211 -0.257686,-0.554949 z m 1.67292,3.713149 -0.257687,-0.554949 z" />
    <rect style="opacity:1;fill:#06180a;fill-opacity:1;stroke:none;stroke-width:0.169692;stroke-linejoin:round;stroke-miterlimit:4;stroke-dasharray:none;stroke-opacity:1" id="rect37286" width="3.7570014" height="3.7570014" x="59.514503" y="89.935768" transform="rotate(-24.253488)" rx="0.40870795" ry="0.26249453" />
    <rect style="opacity:1;fill:#523e48;fill-opacity:1;stroke:none;stroke-width:0.169692;stroke-linejoin:round;stroke-miterlimit:4;stroke-dasharray:none;stroke-opacity:1" id="rect37324" width="2.9046233" height="2.9046233" x="59.909119" y="90.361954" transform="rotate(-24.253488)" rx="1.4523116" ry="1.4523116" />
    <path style="fill:none;stroke:#ffb8b8;stroke-width:0.509076;stroke-linecap:butt;stroke-linejoin:miter;stroke-miterlimit:4;stroke-dasharray:none;stroke-opacity:1" d="m 69.768795,51.746073 16.969133,0.04669" id="path40378" />
  </g>
  <path style="fill:none;stroke:#000000;stroke-width:0.264583px;stroke-linecap:butt;stroke-linejoin:miter;stroke-opacity:1" d="M 140.51255,125.80163 H -1.8341145" id="path81010" />
  <rect style="opacity:1;fill:#6c63ff;fill-opacity:1;stroke:none;stroke-width:0.529165;stroke-linejoin:round;stroke-miterlimit:4;stroke-dasharray:none;stroke-opacity:1" id="rect81034" width="5.1618953" height="4.5233107" x="84.681458" y="123.97897" />
  <rect style="opacity:1;fill:none;fill-opacity:1;stroke:#000000;stroke-width:0.529165;stroke-linejoin:round;stroke-miterlimit:4;stroke-dasharray:none;stroke-opacity:1" id="rect81565" width="3.4727752" height="3.0431533" x="87.734322" y="123.2448" />
  <rect style="opacity:1;fill:#6c63ff;fill-opacity:1;stroke:none;stroke-width:0.529165;stroke-linejoin:round;stroke-miterlimit:4;stroke-dasharray:none;stroke-opacity:1" id="rect81683" width="5.0001001" height="4.3815312" x="136.39996" y="117.80905" />
  <ellipse cx="145.51143" cy="114.6315" rx="11.655653" ry="1.5856632" fill="#3f3d56" id="ellipse53807" style="display:inline;stroke-width:0.169692" />
  <circle cx="145.92279" cy="107.26102" r="5.4164505" fill="#2f2e41" id="circle53865" style="display:inline;stroke-width:0.169692" />
  <rect x="143.45454" y="111.5119" width="1.6455039" height="2.9481945" fill="#2f2e41" id="rect53867" style="display:inline;stroke-width:0.169692" />
  <rect x="146.74554" y="111.5119" width="1.6455039" height="2.9481945" fill="#2f2e41" id="rect53869" style="display:inline;stroke-width:0.169692" />
  <ellipse cx="144.82579" cy="114.49438" rx="1.3712533" ry="0.51421994" fill="#2f2e41" id="ellipse53871" style="display:inline;stroke-width:0.169692" />
  <ellipse cx="148.11679" cy="114.42581" rx="1.3712533" ry="0.51421994" fill="#2f2e41" id="ellipse53873" style="display:inline;stroke-width:0.169692" />
  <circle cx="146.05992" cy="105.88977" r="1.851192" fill="#ffffff" id="circle53875" style="display:inline;stroke-width:0.169692" />
  <circle cx="146.05992" cy="105.88977" r="0.61706394" fill="#3f3d56" id="circle53877" style="display:inline;stroke-width:0.169692" />
  <path d="m 140.66861,102.22387 c -0.43735,-1.95867 0.96069,-3.93782 3.12262,-4.42056 2.16192,-0.482739 4.26906,0.713737 4.70641,2.67241 0.43736,1.95867 -0.99543,2.68106 -3.15736,3.1638 -2.16192,0.48274 -4.23432,0.54302 -4.67167,-1.41565 z" fill="#6c63ff" id="path53879" style="display:inline;stroke-width:0.169692" />
  <ellipse cx="97.042084" cy="156.18179" rx="2.7082253" ry="0.85019559" transform="rotate(-23.171159)" fill="#2f2e41" id="ellipse53881" style="display:inline;stroke-width:0.169692" />
  <ellipse cx="86.283524" cy="155.52975" rx="2.7082253" ry="0.85019559" transform="rotate(-23.171159)" fill="#2f2e41" id="ellipse53883" style="display:inline;stroke-width:0.169692" />
  <path d="m 149.07663,108.83796 c 0,0.53012 -1.36498,1.57694 -2.87963,1.57694 -1.51464,0 -2.9482,-0.97826 -2.9482,-1.50838 0,-0.53013 1.43356,-0.41138 2.9482,-0.41138 1.51465,0 2.87963,-0.18731 2.87963,0.34282 z" fill="#ffffff" id="path53885" style="display:inline;stroke-width:0.169692" />
  <rect style="opacity:1;fill:none;fill-opacity:1;stroke:#000000;stroke-width:0.529165;stroke-linejoin:round;stroke-miterlimit:4;stroke-dasharray:none;stroke-opacity:1" id="rect81685" width="3.3639243" height="2.9477684" x="139.35716" y="117.09793" />
  <rect style="fill:#ff3838;fill-opacity:1;stroke:#250657;stroke-width:0.264583;stroke-linejoin:round;stroke-miterlimit:4;stroke-dasharray:none" id="rect916" width="22.051987" height="8.269495" x="2.6211178" y="5.7521029" />
  <rect style="opacity:1;fill:#3f3d56;fill-opacity:1;stroke:none;stroke-width:0.793748;stroke-linejoin:round;stroke-miterlimit:4;stroke-dasharray:none;stroke-opacity:1" id="rect40426" width="26.987501" height="62.177082" x="5.7716002" y="52.263836" rx="1.9678553" ry="2.6838536" />
  <path id="rect41181" style="opacity:1;fill:#817fab;fill-opacity:1;stroke:none;stroke-width:2.99998;stroke-linejoin:round;stroke-miterlimit:4;stroke-dasharray:none;stroke-opacity:1" d="m 31.251953,197.5332 c -5.228411,0 -9.4375,4.06471 -9.4375,9.11524 0,58.11837 0,118.62694 0,168.65039 0,12.31704 11.345085,22.23437 25.4375,22.23437 h 51.125 c 14.092417,0 25.437497,-9.91733 25.437497,-22.23437 0,-55.65843 0,-117.90021 0,-168.65039 0,-5.05053 -4.20909,-9.11524 -9.4375,-9.11524 -28.306796,0 -58.512718,0 -83.124997,0 z" transform="scale(0.26458334)" sodipodi:nodetypes="cccsscccc" />
  <rect style="opacity:1;fill:#3f3d56;fill-opacity:1;stroke:none;stroke-width:0.79375;stroke-linejoin:round;stroke-miterlimit:4;stroke-dasharray:none;stroke-opacity:1" id="rect41974" width="24.606251" height="7.9375" x="6.9770403" y="55.902748" />
  <rect style="opacity:1;fill:#3f3d56;fill-opacity:1;stroke:none;stroke-width:0.793753;stroke-linejoin:round;stroke-miterlimit:4;stroke-dasharray:none;stroke-opacity:1" id="rect42056" width="24.606251" height="3.96875" x="6.9770403" y="77.069435" />
  <circle style="opacity:1;fill:#3f3d56;fill-opacity:1;stroke:#ffffff;stroke-width:0.79375;stroke-linejoin:round;stroke-miterlimit:4;stroke-dasharray:none;stroke-opacity:1" id="path42080" cx="19.265491" cy="92.706017" r="1.984375" />
  <rect style="opacity:1;fill:#ffffff;fill-opacity:1;stroke:none;stroke-width:0.79375;stroke-linejoin:round;stroke-miterlimit:4;stroke-dasharray:none;stroke-opacity:1" id="rect47239" width="5.291667" height="1.0583334" x="26.205418" y="53.883949" />
  <rect style="opacity:1;fill:#ffffff;fill-opacity:1;stroke:none;stroke-width:0.79375;stroke-linejoin:round;stroke-miterlimit:4;stroke-dasharray:none;stroke-opacity:1" id="rect47642" width="5.291667" height="1.0583334" x="8.2137394" y="57.058952" />
  <rect style="opacity:1;fill:#ffb8b8;fill-opacity:1;stroke:none;stroke-width:0.79375;stroke-linejoin:round;stroke-miterlimit:4;stroke-dasharray:none;stroke-opacity:1" id="rect47644" width="10.583333" height="2.1166668" x="18.797079" y="57.058952" />
  <rect style="opacity:1;fill:#6c63ff;fill-opacity:1;stroke:none;stroke-width:0.529165;stroke-linejoin:round;stroke-miterlimit:4;stroke-dasharray:none;stroke-opacity:1" id="rect81687" width="7.8291321" height="6.8605795" x="5.8346133" y="122.25587" />
  <rect style="opacity:1;fill:none;fill-opacity:1;stroke:#000000;stroke-width:0.529165;stroke-linejoin:round;stroke-miterlimit:4;stroke-dasharray:none;stroke-opacity:1" id="rect81689" width="5.2672157" height="4.6156011" x="10.464983" y="121.14234" />
  <rect style="opacity:1;fill:#ffffff;fill-opacity:1;stroke:none;stroke-width:0.793751;stroke-linejoin:round;stroke-miterlimit:4;stroke-dasharray:none;stroke-opacity:1" id="rect47638" width="2.1166668" height="1.0583334" x="5.0387368" y="108.91731" />
  <rect style="opacity:1;fill:#ffffff;fill-opacity:1;stroke:none;stroke-width:0.793751;stroke-linejoin:round;stroke-miterlimit:4;stroke-dasharray:none;stroke-opacity:1" id="rect47640" width="2.1166668" height="1.0583334" x="10.330408" y="108.91734" />
  <path d="m 30.743228,8.0265199 c 0,9.1143901 5.717892,16.4896401 12.784106,16.4896401" fill="#2f2e41" id="path53789-7" style="display:inline;stroke-width:0.169692" />
  <path d="m 43.527334,24.51616 c 0,-9.2168 6.380838,-16.6749201 14.266323,-16.6749201" fill="#6c63ff" id="path53791-8" style="display:inline;stroke-width:0.169692" />
  <path d="m 35.37515,8.8527499 c 0,8.6577101 3.646193,15.6634101 8.152184,15.6634101" fill="#6c63ff" id="path53793-4" style="display:inline;stroke-width:0.169692" />
  <path d="m 43.527334,24.51616 c 0,-11.77702 7.375251,-21.3068442 16.489645,-21.3068442" fill="#2f2e41" id="path53795-2" style="display:inline;stroke-width:0.169692" />
  <path d="m 40.837888,24.63242 c 0,0 1.812996,-0.0558 2.359388,-0.44492 0.546391,-0.38907 2.788845,-0.85366 2.924392,-0.22966 0.135547,0.624 2.724597,3.10347 0.677733,3.11998 -2.046864,0.0165 -4.756003,-0.31883 -5.301343,-0.65101 -0.54534,-0.33219 -0.66017,-1.79439 -0.66017,-1.79439 z" fill="#a8a8a8" id="path53797-3" style="display:inline;stroke-width:0.169692" />
  <path d="m 46.835935,26.8606 c -2.046864,0.0165 -4.756,-0.31883 -5.301342,-0.65101 -0.415305,-0.25298 -0.5808,-1.16073 -0.636174,-1.57953 -0.03835,0.002 -0.06052,0.002 -0.06052,0.002 0,0 0.11483,1.46219 0.660171,1.79438 0.545342,0.3322 3.254477,0.66753 5.301342,0.65102 0.590848,-0.005 0.794938,-0.21498 0.783731,-0.52633 -0.08209,0.18812 -0.307432,0.30558 -0.747204,0.30912 z" opacity="0.2" id="path53799-5" style="display:inline;stroke-width:0.169692" />
  <ellipse cx="54.101315" cy="51.936451" rx="21.99275" ry="2.9919467" fill="#3f3d56" id="ellipse53801-2" style="display:inline;stroke-width:0.169692" />
  <ellipse cx="54.101315" cy="51.936451" rx="18.464502" ry="2.5119555" opacity="0.1" id="ellipse53803-1" style="display:inline;stroke-width:0.169692" />
  <rect x="43.516563" y="20.711458" width="24.462523" height="28.461206" fill="#2f2e41" id="rect53839-8" style="display:inline;stroke-width:0.169692" />
  <rect x="41.046791" y="17.888857" width="29.402073" height="10.114313" fill="#3f3d56" id="rect53841-3" style="display:inline;stroke-width:0.169692" />
  <rect x="41.046791" y="29.884901" width="29.402073" height="10.114313" fill="#3f3d56" id="rect53843-0" style="display:inline;stroke-width:0.169692" />
  <rect x="41.046791" y="41.880962" width="29.402073" height="10.114313" fill="#3f3d56" id="rect53845-9" style="display:inline;stroke-width:0.169692" />
  <rect x="62.686718" y="19.652987" width="1.8817327" height="1.8817327" fill="#6c63ff" opacity="0.4" id="rect53847-3" style="display:inline;stroke-width:0.169692" />
  <rect x="65.391701" y="19.652987" width="1.8817327" height="1.8817327" fill="#6c63ff" opacity="0.8" id="rect53849-5" style="display:inline;stroke-width:0.169692" />
  <rect x="68.096687" y="19.652987" width="1.8817327" height="1.8817327" fill="#6c63ff" id="rect53851-3" style="display:inline;stroke-width:0.169692" />
  <rect x="62.686718" y="31.531408" width="1.8817327" height="1.8817327" fill="#6c63ff" opacity="0.4" id="rect53853-6" style="display:inline;stroke-width:0.169692" />
  <rect x="65.391701" y="31.531408" width="1.8817327" height="1.8817327" fill="#6c63ff" opacity="0.8" id="rect53855-8" style="display:inline;stroke-width:0.169692" />
  <rect x="68.096687" y="31.531408" width="1.8817327" height="1.8817327" fill="#6c63ff" id="rect53857-5" style="display:inline;stroke-width:0.169692" />
  <rect x="62.686718" y="43.409855" width="1.8817327" height="1.8817327" fill="#6c63ff" opacity="0.4" id="rect53859-9" style="display:inline;stroke-width:0.169692" />
  <rect x="65.391701" y="43.409855" width="1.8817327" height="1.8817327" fill="#6c63ff" opacity="0.8" id="rect53861-8" style="display:inline;stroke-width:0.169692" />
  <rect x="68.096687" y="43.409855" width="1.8817327" height="1.8817327" fill="#6c63ff" id="rect53863-9" style="display:inline;stroke-width:0.169692" />
</svg>
